<mxfile host="Electron" agent="Mozilla/5.0 (Windows NT 10.0; Win64; x64) AppleWebKit/537.36 (KHTML, like Gecko) draw.io/24.7.17 Chrome/128.0.6613.36 Electron/32.0.1 Safari/537.36" version="24.7.17" pages="2">
  <diagram name="Page-1" id="UAaap_4CxFC_UeX148YJ">
    <mxGraphModel dx="1837" dy="602" grid="1" gridSize="10" guides="1" tooltips="1" connect="1" arrows="1" fold="1" page="0" pageScale="1" pageWidth="827" pageHeight="1169" math="0" shadow="0">
      <root>
        <mxCell id="0" />
        <mxCell id="1" parent="0" />
        <mxCell id="WrEfPnqkk7uLzwkbPZXc-34" value="&lt;br&gt;&lt;div&gt;&lt;/div&gt;" style="rounded=0;whiteSpace=wrap;html=1;fontFamily=Lucida Console;movable=1;resizable=1;rotatable=1;deletable=1;editable=1;locked=0;connectable=1;align=center;verticalAlign=bottom;" parent="1" vertex="1">
          <mxGeometry x="1160" y="190" width="230" height="320" as="geometry" />
        </mxCell>
        <mxCell id="WrEfPnqkk7uLzwkbPZXc-18" value="" style="group" parent="1" vertex="1" connectable="0">
          <mxGeometry x="370" y="160" width="290" height="380" as="geometry" />
        </mxCell>
        <mxCell id="WrEfPnqkk7uLzwkbPZXc-5" value="" style="shape=process;whiteSpace=wrap;html=1;backgroundOutline=1;movable=1;resizable=1;rotatable=1;deletable=1;editable=1;locked=0;connectable=1;" parent="WrEfPnqkk7uLzwkbPZXc-18" vertex="1">
          <mxGeometry width="290" height="380" as="geometry" />
        </mxCell>
        <mxCell id="WrEfPnqkk7uLzwkbPZXc-4" value="Actual Screen&amp;nbsp;&amp;nbsp;[ili9341]" style="shape=process;whiteSpace=wrap;html=1;backgroundOutline=1;movable=1;resizable=1;rotatable=1;deletable=1;editable=1;locked=0;connectable=1;" parent="WrEfPnqkk7uLzwkbPZXc-18" vertex="1">
          <mxGeometry width="290" height="30" as="geometry" />
        </mxCell>
        <mxCell id="WrEfPnqkk7uLzwkbPZXc-17" value="Actual Screen" style="shape=process;whiteSpace=wrap;html=1;backgroundOutline=1;movable=1;resizable=1;rotatable=1;deletable=1;editable=1;locked=0;connectable=1;" parent="WrEfPnqkk7uLzwkbPZXc-18" vertex="1">
          <mxGeometry y="350" width="290" height="30" as="geometry" />
        </mxCell>
        <mxCell id="WrEfPnqkk7uLzwkbPZXc-1" value="The first tetrix game was created using ascii characters. As the release date for the TETRIS movie is 15th of March. I saw it as a fitting deadline to try and implement tetrix using embedded rust" style="rounded=0;whiteSpace=wrap;html=1;fontFamily=Lucida Console;" parent="1" vertex="1">
          <mxGeometry x="-290" y="190" width="450" height="190" as="geometry" />
        </mxCell>
        <mxCell id="WrEfPnqkk7uLzwkbPZXc-3" value="" style="rounded=0;whiteSpace=wrap;html=1;movable=1;resizable=1;rotatable=1;deletable=1;editable=1;locked=0;connectable=1;strokeWidth=3;strokeColor=#521414;" parent="1" vertex="1">
          <mxGeometry x="400" y="190" width="230" height="320" as="geometry" />
        </mxCell>
        <mxCell id="WrEfPnqkk7uLzwkbPZXc-6" value="" style="rounded=0;whiteSpace=wrap;html=1;fontFamily=Lucida Console;movable=1;resizable=1;rotatable=1;deletable=1;editable=1;locked=0;connectable=1;" parent="1" vertex="1">
          <mxGeometry x="430" y="200" width="170" height="240" as="geometry" />
        </mxCell>
        <mxCell id="WrEfPnqkk7uLzwkbPZXc-7" value="Level: 1&lt;br&gt;Score:&lt;br&gt;&lt;div style=&quot;&quot;&gt;&lt;span style=&quot;background-color: initial;&quot;&gt;Time: 2:23&lt;/span&gt;&lt;/div&gt;" style="rounded=0;whiteSpace=wrap;html=1;align=left;dashed=1;dashPattern=8 8;fontFamily=Lucida Console;movable=1;resizable=1;rotatable=1;deletable=1;editable=1;locked=0;connectable=1;" parent="1" vertex="1">
          <mxGeometry x="410" y="450" width="90" height="50" as="geometry" />
        </mxCell>
        <mxCell id="WrEfPnqkk7uLzwkbPZXc-8" value="NEXT: &lt;br&gt;&amp;nbsp; [ ][ ][ ]&lt;br&gt;&amp;nbsp; &amp;nbsp; &amp;nbsp; &lt;span style=&quot;white-space: pre;&quot;&gt;&#x9;&lt;/span&gt;[ ]" style="rounded=0;whiteSpace=wrap;html=1;align=left;dashed=1;dashPattern=8 8;fontFamily=Lucida Console;movable=1;resizable=1;rotatable=1;deletable=1;editable=1;locked=0;connectable=1;" parent="1" vertex="1">
          <mxGeometry x="530" y="450" width="90" height="50" as="geometry" />
        </mxCell>
        <mxCell id="WrEfPnqkk7uLzwkbPZXc-9" value="[][][][][][][][][][][][][][][][][][][][][][][][][][][][][][][][][][][][][][][][][][][][][][][][][][][][][][][][][][][][][][][][][][][][][][][][][][][][][][][][][][][][][][][][][][][][][][][][][][][][][][][][][][][][][][][][][][][][][][][][][][][][][][][][][][][][][][][][][][][][][][][][][][][][][][][][][][][][][][][][][][][][][][][][][][][][][][][][]&lt;div&gt;&lt;/div&gt;" style="rounded=0;whiteSpace=wrap;html=1;fontFamily=Lucida Console;movable=1;resizable=1;rotatable=1;deletable=1;editable=1;locked=0;connectable=1;" parent="1" vertex="1">
          <mxGeometry x="430" y="200" width="170" height="240" as="geometry" />
        </mxCell>
        <mxCell id="WrEfPnqkk7uLzwkbPZXc-11" value="" style="rounded=0;whiteSpace=wrap;html=1;movable=1;resizable=1;rotatable=1;deletable=1;editable=1;locked=0;connectable=1;" parent="1" vertex="1">
          <mxGeometry x="790" y="190" width="230" height="320" as="geometry" />
        </mxCell>
        <mxCell id="WrEfPnqkk7uLzwkbPZXc-13" value="" style="rounded=0;whiteSpace=wrap;html=1;fontFamily=Lucida Console;movable=1;resizable=1;rotatable=1;deletable=1;editable=1;locked=0;connectable=1;" parent="1" vertex="1">
          <mxGeometry x="820" y="200" width="170" height="240" as="geometry" />
        </mxCell>
        <mxCell id="WrEfPnqkk7uLzwkbPZXc-14" value="Level: 1&lt;br&gt;Score:&lt;br&gt;&lt;div style=&quot;&quot;&gt;&lt;span style=&quot;background-color: initial;&quot;&gt;Time: 2:23&lt;/span&gt;&lt;/div&gt;" style="rounded=0;whiteSpace=wrap;html=1;align=left;dashed=1;dashPattern=8 8;fontFamily=Lucida Console;movable=1;resizable=1;rotatable=1;deletable=1;editable=1;locked=0;connectable=1;" parent="1" vertex="1">
          <mxGeometry x="800" y="450" width="90" height="50" as="geometry" />
        </mxCell>
        <mxCell id="WrEfPnqkk7uLzwkbPZXc-15" value="NEXT: &lt;br&gt;&amp;nbsp; [ ][ ][ ]&lt;br&gt;&amp;nbsp; &amp;nbsp; &amp;nbsp; &lt;span style=&quot;white-space: pre;&quot;&gt;&#x9;&lt;/span&gt;[ ]" style="rounded=0;whiteSpace=wrap;html=1;align=left;dashed=1;dashPattern=8 8;fontFamily=Lucida Console;movable=1;resizable=1;rotatable=1;deletable=1;editable=1;locked=0;connectable=1;" parent="1" vertex="1">
          <mxGeometry x="920" y="450" width="90" height="50" as="geometry" />
        </mxCell>
        <mxCell id="WrEfPnqkk7uLzwkbPZXc-19" value="" style="group" parent="1" vertex="1" connectable="0">
          <mxGeometry x="760" y="160" width="290" height="380" as="geometry" />
        </mxCell>
        <mxCell id="WrEfPnqkk7uLzwkbPZXc-20" value="" style="shape=process;whiteSpace=wrap;html=1;backgroundOutline=1;movable=1;resizable=1;rotatable=1;deletable=1;editable=1;locked=0;connectable=1;" parent="WrEfPnqkk7uLzwkbPZXc-19" vertex="1">
          <mxGeometry width="290" height="380" as="geometry" />
        </mxCell>
        <mxCell id="WrEfPnqkk7uLzwkbPZXc-21" value="Actual Screen [ili9341]" style="shape=process;whiteSpace=wrap;html=1;backgroundOutline=1;movable=1;resizable=1;rotatable=1;deletable=1;editable=1;locked=0;connectable=1;" parent="WrEfPnqkk7uLzwkbPZXc-19" vertex="1">
          <mxGeometry width="290" height="30" as="geometry" />
        </mxCell>
        <mxCell id="WrEfPnqkk7uLzwkbPZXc-22" value="240x320 2.8&quot; LCD-TFT SPI display" style="shape=process;whiteSpace=wrap;html=1;backgroundOutline=1;movable=1;resizable=1;rotatable=1;deletable=1;editable=1;locked=0;connectable=1;" parent="WrEfPnqkk7uLzwkbPZXc-19" vertex="1">
          <mxGeometry y="350" width="290" height="30" as="geometry" />
        </mxCell>
        <mxCell id="WrEfPnqkk7uLzwkbPZXc-23" value="Level: 1&lt;br&gt;Score:&lt;br&gt;&lt;div style=&quot;&quot;&gt;&lt;span style=&quot;background-color: initial;&quot;&gt;Time: 2:23&lt;/span&gt;&lt;/div&gt;" style="rounded=0;whiteSpace=wrap;html=1;align=left;dashed=1;dashPattern=8 8;fontFamily=Lucida Console;movable=1;resizable=1;rotatable=1;deletable=1;editable=1;locked=0;connectable=1;" parent="WrEfPnqkk7uLzwkbPZXc-19" vertex="1">
          <mxGeometry x="40" y="290" width="90" height="50" as="geometry" />
        </mxCell>
        <mxCell id="WrEfPnqkk7uLzwkbPZXc-24" value="NEXT: &lt;br&gt;&amp;nbsp; [ ][ ][ ]&lt;br&gt;&amp;nbsp; &amp;nbsp; &amp;nbsp; &lt;span style=&quot;white-space: pre;&quot;&gt;&#x9;&lt;/span&gt;[ ]" style="rounded=0;whiteSpace=wrap;html=1;align=left;dashed=1;dashPattern=8 8;fontFamily=Lucida Console;movable=1;resizable=1;rotatable=1;deletable=1;editable=1;locked=0;connectable=1;" parent="WrEfPnqkk7uLzwkbPZXc-19" vertex="1">
          <mxGeometry x="160" y="290" width="90" height="50" as="geometry" />
        </mxCell>
        <mxCell id="WrEfPnqkk7uLzwkbPZXc-16" value="&amp;lt;!&amp;nbsp;.&amp;nbsp;.&amp;nbsp;.&amp;nbsp;.&amp;nbsp;.&amp;nbsp;.&amp;nbsp;.&amp;nbsp;.&amp;nbsp;.&amp;nbsp;.!&amp;gt;&amp;lt;!&amp;nbsp;.&amp;nbsp;.&amp;nbsp;.&amp;nbsp;.&amp;nbsp;.&amp;nbsp;.&amp;nbsp;.&amp;nbsp;.&amp;nbsp;.&amp;nbsp;.!&amp;gt;&lt;br&gt;&amp;lt;!&amp;nbsp;.&amp;nbsp;.&amp;nbsp;.&amp;nbsp;.&amp;nbsp;.&amp;nbsp;.&amp;nbsp;.&amp;nbsp;.&amp;nbsp;.&amp;nbsp;.!&amp;gt;&amp;lt;!&amp;nbsp;.&amp;nbsp;.&amp;nbsp;.&amp;nbsp;.&amp;nbsp;.&amp;nbsp;.&amp;nbsp;.&amp;nbsp;.&amp;nbsp;.&amp;nbsp;.!&amp;gt;&amp;lt;!&amp;nbsp;.&amp;nbsp;.&amp;nbsp;.&amp;nbsp;.&amp;nbsp;.&amp;nbsp;.&amp;nbsp;.&amp;nbsp;.&amp;nbsp;.&amp;nbsp;.!&amp;gt;&lt;div style=&quot;&quot;&gt;&amp;lt;!&amp;nbsp;.&amp;nbsp;.&amp;nbsp;.&amp;nbsp;.&amp;nbsp;.&amp;nbsp;.&amp;nbsp;.&amp;nbsp;.&amp;nbsp;.&amp;nbsp;.!&amp;gt;&lt;br&gt;&lt;/div&gt;&amp;lt;!&amp;nbsp;.&amp;nbsp;.&amp;nbsp;.&amp;nbsp;.&amp;nbsp;.&amp;nbsp;.&amp;nbsp;.&amp;nbsp;.&amp;nbsp;.&amp;nbsp;.!&amp;gt;&amp;lt;!&amp;nbsp;.&amp;nbsp;.&amp;nbsp;.&amp;nbsp;.&amp;nbsp;.&amp;nbsp;.&amp;nbsp;.&amp;nbsp;.&amp;nbsp;.&amp;nbsp;.!&amp;gt;&amp;lt;!&amp;nbsp;.&amp;nbsp;.&amp;nbsp;.&amp;nbsp;.&amp;nbsp;.&amp;nbsp;.&amp;nbsp;.&amp;nbsp;.&amp;nbsp;.&amp;nbsp;.!&amp;gt;&amp;lt;!&amp;nbsp;.&amp;nbsp;.&amp;nbsp;.&amp;nbsp;.&amp;nbsp;.&amp;nbsp;.&amp;nbsp;.&amp;nbsp;.&amp;nbsp;.&amp;nbsp;.!&amp;gt;&amp;lt;!&amp;nbsp;.&amp;nbsp;.&amp;nbsp;.&amp;nbsp;.&amp;nbsp;.&amp;nbsp;.&amp;nbsp;.&amp;nbsp;.&amp;nbsp;.&amp;nbsp;.!&amp;gt;&lt;br&gt;&amp;lt;![][][] . . .[][] .[]!&amp;gt;&lt;br&gt;&amp;lt;![][][]&amp;nbsp;.&amp;nbsp;.&amp;nbsp;.[][]&amp;nbsp;.&lt;span style=&quot;background-color: initial;&quot;&gt;[]!&amp;gt;&lt;br&gt;&amp;lt;![][][][]&amp;nbsp; &amp;nbsp; [][][][]!&amp;gt;&lt;br&gt;&amp;lt;![][][][]&amp;nbsp; [][][][][]!&amp;gt;&lt;br&gt;&amp;lt;!********************!&amp;gt;&lt;/span&gt;&lt;br&gt;&lt;div&gt;&lt;/div&gt;" style="rounded=0;whiteSpace=wrap;html=1;fontFamily=Lucida Console;movable=1;resizable=1;rotatable=1;deletable=1;editable=1;locked=0;connectable=1;align=center;verticalAlign=bottom;" parent="1" vertex="1">
          <mxGeometry x="810" y="200" width="190" height="240" as="geometry" />
        </mxCell>
        <mxCell id="WrEfPnqkk7uLzwkbPZXc-30" value="&lt;br&gt;&lt;div&gt;&lt;/div&gt;" style="rounded=0;whiteSpace=wrap;html=1;fontFamily=Lucida Console;movable=1;resizable=1;rotatable=1;deletable=1;editable=1;locked=0;connectable=1;align=center;verticalAlign=bottom;" parent="1" vertex="1">
          <mxGeometry x="1180" y="200" width="190" height="240" as="geometry" />
        </mxCell>
        <mxCell id="WrEfPnqkk7uLzwkbPZXc-31" value="10 char&amp;nbsp;&amp;nbsp;" style="endArrow=baseDash;startArrow=baseDash;html=1;rounded=0;entryX=0.25;entryY=0;entryDx=0;entryDy=0;exitX=0.25;exitY=1;exitDx=0;exitDy=0;startFill=0;endFill=0;align=left;" parent="1" edge="1">
          <mxGeometry width="50" height="50" relative="1" as="geometry">
            <mxPoint x="1380" y="440" as="sourcePoint" />
            <mxPoint x="1380" y="200" as="targetPoint" />
            <mxPoint as="offset" />
          </mxGeometry>
        </mxCell>
        <mxCell id="WrEfPnqkk7uLzwkbPZXc-33" value="18 char" style="endArrow=baseDash;startArrow=baseDash;html=1;rounded=0;entryX=1;entryY=0.75;entryDx=0;entryDy=0;exitX=0;exitY=0.75;exitDx=0;exitDy=0;startFill=0;endFill=0;verticalAlign=top;" parent="1" edge="1">
          <mxGeometry x="-0.0023" width="50" height="50" relative="1" as="geometry">
            <mxPoint x="1180" y="450" as="sourcePoint" />
            <mxPoint x="1370" y="450" as="targetPoint" />
            <mxPoint as="offset" />
          </mxGeometry>
        </mxCell>
        <mxCell id="WrEfPnqkk7uLzwkbPZXc-35" value="24 char" style="endArrow=baseDash;startArrow=baseDash;html=1;rounded=0;entryX=1;entryY=0.75;entryDx=0;entryDy=0;exitX=0;exitY=0.75;exitDx=0;exitDy=0;startFill=0;endFill=0;verticalAlign=top;" parent="1" edge="1">
          <mxGeometry width="50" height="50" relative="1" as="geometry">
            <mxPoint x="1160" y="520" as="sourcePoint" />
            <mxPoint x="1390" y="520" as="targetPoint" />
          </mxGeometry>
        </mxCell>
        <mxCell id="WrEfPnqkk7uLzwkbPZXc-37" value="16 char&amp;nbsp;&amp;nbsp;" style="endArrow=baseDash;startArrow=baseDash;html=1;rounded=0;entryX=0.25;entryY=0;entryDx=0;entryDy=0;exitX=0.25;exitY=1;exitDx=0;exitDy=0;startFill=0;endFill=0;align=right;" parent="1" edge="1">
          <mxGeometry width="50" height="50" relative="1" as="geometry">
            <mxPoint x="1150" y="510" as="sourcePoint" />
            <mxPoint x="1150" y="190" as="targetPoint" />
            <mxPoint as="offset" />
          </mxGeometry>
        </mxCell>
        <mxCell id="fDy47ZpwI2PATpwe9wIe-4" value="" style="edgeStyle=orthogonalEdgeStyle;rounded=0;orthogonalLoop=1;jettySize=auto;html=1;" parent="1" source="KeokR91T0c1GwpaEWYI1-1" target="KeokR91T0c1GwpaEWYI1-4" edge="1">
          <mxGeometry relative="1" as="geometry" />
        </mxCell>
        <mxCell id="KeokR91T0c1GwpaEWYI1-1" value="No Menu" style="rounded=1;whiteSpace=wrap;html=1;" parent="1" vertex="1">
          <mxGeometry x="-285" y="510" width="120" height="60" as="geometry" />
        </mxCell>
        <mxCell id="fDy47ZpwI2PATpwe9wIe-2" style="edgeStyle=orthogonalEdgeStyle;rounded=0;orthogonalLoop=1;jettySize=auto;html=1;exitX=0.5;exitY=1;exitDx=0;exitDy=0;entryX=0.5;entryY=0;entryDx=0;entryDy=0;" parent="1" source="KeokR91T0c1GwpaEWYI1-2" target="KeokR91T0c1GwpaEWYI1-1" edge="1">
          <mxGeometry relative="1" as="geometry" />
        </mxCell>
        <mxCell id="fDy47ZpwI2PATpwe9wIe-3" style="edgeStyle=orthogonalEdgeStyle;rounded=0;orthogonalLoop=1;jettySize=auto;html=1;exitX=0.5;exitY=1;exitDx=0;exitDy=0;entryX=0.5;entryY=0;entryDx=0;entryDy=0;" parent="1" source="KeokR91T0c1GwpaEWYI1-2" target="KeokR91T0c1GwpaEWYI1-3" edge="1">
          <mxGeometry relative="1" as="geometry" />
        </mxCell>
        <mxCell id="KeokR91T0c1GwpaEWYI1-2" value="Program Start" style="shape=process;whiteSpace=wrap;html=1;backgroundOutline=1;" parent="1" vertex="1">
          <mxGeometry x="-290" y="410" width="130" height="30" as="geometry" />
        </mxCell>
        <mxCell id="fDy47ZpwI2PATpwe9wIe-7" style="edgeStyle=orthogonalEdgeStyle;rounded=0;orthogonalLoop=1;jettySize=auto;html=1;exitX=0.5;exitY=1;exitDx=0;exitDy=0;" parent="1" source="KeokR91T0c1GwpaEWYI1-3" target="KeokR91T0c1GwpaEWYI1-4" edge="1">
          <mxGeometry relative="1" as="geometry" />
        </mxCell>
        <mxCell id="fDy47ZpwI2PATpwe9wIe-13" style="edgeStyle=orthogonalEdgeStyle;rounded=0;orthogonalLoop=1;jettySize=auto;html=1;exitX=1;exitY=0.5;exitDx=0;exitDy=0;entryX=0;entryY=0.5;entryDx=0;entryDy=0;" parent="1" source="KeokR91T0c1GwpaEWYI1-3" target="fDy47ZpwI2PATpwe9wIe-11" edge="1">
          <mxGeometry relative="1" as="geometry" />
        </mxCell>
        <mxCell id="fDy47ZpwI2PATpwe9wIe-14" style="edgeStyle=orthogonalEdgeStyle;rounded=0;orthogonalLoop=1;jettySize=auto;html=1;exitX=1;exitY=0.5;exitDx=0;exitDy=0;entryX=0;entryY=0.5;entryDx=0;entryDy=0;" parent="1" source="KeokR91T0c1GwpaEWYI1-3" target="fDy47ZpwI2PATpwe9wIe-12" edge="1">
          <mxGeometry relative="1" as="geometry" />
        </mxCell>
        <mxCell id="fDy47ZpwI2PATpwe9wIe-15" style="edgeStyle=orthogonalEdgeStyle;rounded=0;orthogonalLoop=1;jettySize=auto;html=1;exitX=1;exitY=0.5;exitDx=0;exitDy=0;entryX=0;entryY=0.5;entryDx=0;entryDy=0;" parent="1" source="KeokR91T0c1GwpaEWYI1-3" target="fDy47ZpwI2PATpwe9wIe-8" edge="1">
          <mxGeometry relative="1" as="geometry" />
        </mxCell>
        <mxCell id="fDy47ZpwI2PATpwe9wIe-16" style="edgeStyle=orthogonalEdgeStyle;rounded=0;orthogonalLoop=1;jettySize=auto;html=1;exitX=1;exitY=0.5;exitDx=0;exitDy=0;entryX=0;entryY=0.5;entryDx=0;entryDy=0;" parent="1" source="KeokR91T0c1GwpaEWYI1-3" target="fDy47ZpwI2PATpwe9wIe-9" edge="1">
          <mxGeometry relative="1" as="geometry" />
        </mxCell>
        <mxCell id="KeokR91T0c1GwpaEWYI1-3" value="Menu" style="rounded=1;whiteSpace=wrap;html=1;" parent="1" vertex="1">
          <mxGeometry x="-90" y="510" width="120" height="50" as="geometry" />
        </mxCell>
        <mxCell id="fDy47ZpwI2PATpwe9wIe-103" style="edgeStyle=orthogonalEdgeStyle;rounded=0;orthogonalLoop=1;jettySize=auto;html=1;exitX=0.5;exitY=1;exitDx=0;exitDy=0;entryX=0.5;entryY=0;entryDx=0;entryDy=0;" parent="1" source="KeokR91T0c1GwpaEWYI1-4" target="fDy47ZpwI2PATpwe9wIe-18" edge="1">
          <mxGeometry relative="1" as="geometry" />
        </mxCell>
        <mxCell id="KeokR91T0c1GwpaEWYI1-4" value="Game Loop" style="rounded=1;whiteSpace=wrap;html=1;" parent="1" vertex="1">
          <mxGeometry x="-285" y="660" width="120" height="60" as="geometry" />
        </mxCell>
        <mxCell id="fDy47ZpwI2PATpwe9wIe-8" value="Play" style="rounded=1;whiteSpace=wrap;html=1;" parent="1" vertex="1">
          <mxGeometry x="130" y="520" width="60" height="30" as="geometry" />
        </mxCell>
        <mxCell id="fDy47ZpwI2PATpwe9wIe-9" value="View High Score" style="rounded=1;whiteSpace=wrap;html=1;" parent="1" vertex="1">
          <mxGeometry x="130" y="560" width="120" height="30" as="geometry" />
        </mxCell>
        <mxCell id="fDy47ZpwI2PATpwe9wIe-11" value="Exit" style="rounded=1;whiteSpace=wrap;html=1;" parent="1" vertex="1">
          <mxGeometry x="130" y="640" width="60" height="30" as="geometry" />
        </mxCell>
        <mxCell id="fDy47ZpwI2PATpwe9wIe-12" value="Settings" style="rounded=1;whiteSpace=wrap;html=1;" parent="1" vertex="1">
          <mxGeometry x="130" y="600" width="60" height="30" as="geometry" />
        </mxCell>
        <mxCell id="fDy47ZpwI2PATpwe9wIe-97" style="edgeStyle=orthogonalEdgeStyle;rounded=0;orthogonalLoop=1;jettySize=auto;html=1;exitX=0.5;exitY=1;exitDx=0;exitDy=0;entryX=0.5;entryY=0;entryDx=0;entryDy=0;" parent="1" source="fDy47ZpwI2PATpwe9wIe-18" target="fDy47ZpwI2PATpwe9wIe-84" edge="1">
          <mxGeometry relative="1" as="geometry" />
        </mxCell>
        <mxCell id="fDy47ZpwI2PATpwe9wIe-104" style="edgeStyle=orthogonalEdgeStyle;rounded=0;orthogonalLoop=1;jettySize=auto;html=1;exitX=0.5;exitY=1;exitDx=0;exitDy=0;" parent="1" source="fDy47ZpwI2PATpwe9wIe-18" target="fDy47ZpwI2PATpwe9wIe-27" edge="1">
          <mxGeometry relative="1" as="geometry" />
        </mxCell>
        <mxCell id="fDy47ZpwI2PATpwe9wIe-18" value="Event Handler" style="shape=hexagon;perimeter=hexagonPerimeter2;whiteSpace=wrap;html=1;fixedSize=1;" parent="1" vertex="1">
          <mxGeometry x="-280" y="740" width="110" height="80" as="geometry" />
        </mxCell>
        <mxCell id="fDy47ZpwI2PATpwe9wIe-19" value="What has to happen every frame.&lt;br&gt;&lt;br&gt;&amp;nbsp;Assume clock speed variation ~1-5%" style="ellipse;shape=cloud;whiteSpace=wrap;html=1;spacing=20;" parent="1" vertex="1">
          <mxGeometry x="-710" y="600" width="210" height="160" as="geometry" />
        </mxCell>
        <mxCell id="fDy47ZpwI2PATpwe9wIe-80" style="edgeStyle=orthogonalEdgeStyle;rounded=0;orthogonalLoop=1;jettySize=auto;html=1;exitX=1;exitY=0.5;exitDx=0;exitDy=0;entryX=0.5;entryY=0;entryDx=0;entryDy=0;" parent="1" source="fDy47ZpwI2PATpwe9wIe-25" target="fDy47ZpwI2PATpwe9wIe-26" edge="1">
          <mxGeometry relative="1" as="geometry" />
        </mxCell>
        <mxCell id="fDy47ZpwI2PATpwe9wIe-113" style="edgeStyle=orthogonalEdgeStyle;rounded=0;orthogonalLoop=1;jettySize=auto;html=1;exitX=0.5;exitY=1;exitDx=0;exitDy=0;entryX=0.5;entryY=0;entryDx=0;entryDy=0;" parent="1" source="fDy47ZpwI2PATpwe9wIe-25" target="fDy47ZpwI2PATpwe9wIe-62" edge="1">
          <mxGeometry relative="1" as="geometry" />
        </mxCell>
        <mxCell id="fDy47ZpwI2PATpwe9wIe-114" style="edgeStyle=orthogonalEdgeStyle;rounded=0;orthogonalLoop=1;jettySize=auto;html=1;exitX=0.5;exitY=1;exitDx=0;exitDy=0;entryX=0.5;entryY=0;entryDx=0;entryDy=0;" parent="1" source="fDy47ZpwI2PATpwe9wIe-25" target="fDy47ZpwI2PATpwe9wIe-63" edge="1">
          <mxGeometry relative="1" as="geometry" />
        </mxCell>
        <mxCell id="fDy47ZpwI2PATpwe9wIe-25" value="Render Screen" style="shape=process;whiteSpace=wrap;html=1;backgroundOutline=1;" parent="1" vertex="1">
          <mxGeometry x="510" y="1030" width="170" height="30" as="geometry" />
        </mxCell>
        <mxCell id="fDy47ZpwI2PATpwe9wIe-76" value="" style="edgeStyle=orthogonalEdgeStyle;rounded=0;orthogonalLoop=1;jettySize=auto;html=1;" parent="1" source="fDy47ZpwI2PATpwe9wIe-26" target="fDy47ZpwI2PATpwe9wIe-28" edge="1">
          <mxGeometry relative="1" as="geometry" />
        </mxCell>
        <mxCell id="fDy47ZpwI2PATpwe9wIe-96" style="edgeStyle=orthogonalEdgeStyle;rounded=0;orthogonalLoop=1;jettySize=auto;html=1;exitX=1;exitY=0.5;exitDx=0;exitDy=0;entryX=1;entryY=0.5;entryDx=0;entryDy=0;" parent="1" source="fDy47ZpwI2PATpwe9wIe-26" target="fDy47ZpwI2PATpwe9wIe-18" edge="1">
          <mxGeometry relative="1" as="geometry" />
        </mxCell>
        <mxCell id="fDy47ZpwI2PATpwe9wIe-26" value="Perpetuate Game" style="shape=process;whiteSpace=wrap;html=1;backgroundOutline=1;" parent="1" vertex="1">
          <mxGeometry x="800" y="1070" width="140" height="30" as="geometry" />
        </mxCell>
        <mxCell id="fDy47ZpwI2PATpwe9wIe-78" style="edgeStyle=orthogonalEdgeStyle;rounded=0;orthogonalLoop=1;jettySize=auto;html=1;exitX=1;exitY=0.5;exitDx=0;exitDy=0;entryX=0.5;entryY=0;entryDx=0;entryDy=0;" parent="1" source="fDy47ZpwI2PATpwe9wIe-27" target="fDy47ZpwI2PATpwe9wIe-34" edge="1">
          <mxGeometry relative="1" as="geometry" />
        </mxCell>
        <mxCell id="fDy47ZpwI2PATpwe9wIe-106" style="edgeStyle=orthogonalEdgeStyle;rounded=0;orthogonalLoop=1;jettySize=auto;html=1;exitX=0.5;exitY=1;exitDx=0;exitDy=0;entryX=0.5;entryY=0;entryDx=0;entryDy=0;" parent="1" source="fDy47ZpwI2PATpwe9wIe-27" target="fDy47ZpwI2PATpwe9wIe-51" edge="1">
          <mxGeometry relative="1" as="geometry" />
        </mxCell>
        <mxCell id="fDy47ZpwI2PATpwe9wIe-27" value="Calculate Block Logic" style="shape=process;whiteSpace=wrap;html=1;backgroundOutline=1;" parent="1" vertex="1">
          <mxGeometry x="-70" y="950" width="170" height="30" as="geometry" />
        </mxCell>
        <mxCell id="fDy47ZpwI2PATpwe9wIe-28" value="Frame Rate Control" style="rounded=0;whiteSpace=wrap;html=1;" parent="1" vertex="1">
          <mxGeometry x="810" y="1120" width="120" height="30" as="geometry" />
        </mxCell>
        <mxCell id="fDy47ZpwI2PATpwe9wIe-43" value="" style="edgeStyle=orthogonalEdgeStyle;rounded=0;orthogonalLoop=1;jettySize=auto;html=1;" parent="1" source="fDy47ZpwI2PATpwe9wIe-29" target="fDy47ZpwI2PATpwe9wIe-41" edge="1">
          <mxGeometry relative="1" as="geometry" />
        </mxCell>
        <mxCell id="fDy47ZpwI2PATpwe9wIe-29" value="Collisions" style="rounded=0;whiteSpace=wrap;html=1;" parent="1" vertex="1">
          <mxGeometry x="-20" y="1200" width="70" height="30" as="geometry" />
        </mxCell>
        <mxCell id="fDy47ZpwI2PATpwe9wIe-58" style="edgeStyle=orthogonalEdgeStyle;rounded=0;orthogonalLoop=1;jettySize=auto;html=1;exitX=0.5;exitY=1;exitDx=0;exitDy=0;" parent="1" source="fDy47ZpwI2PATpwe9wIe-30" target="fDy47ZpwI2PATpwe9wIe-29" edge="1">
          <mxGeometry relative="1" as="geometry" />
        </mxCell>
        <mxCell id="fDy47ZpwI2PATpwe9wIe-59" style="edgeStyle=orthogonalEdgeStyle;rounded=0;orthogonalLoop=1;jettySize=auto;html=1;exitX=0.5;exitY=1;exitDx=0;exitDy=0;entryX=0.5;entryY=0;entryDx=0;entryDy=0;" parent="1" source="fDy47ZpwI2PATpwe9wIe-30" target="fDy47ZpwI2PATpwe9wIe-29" edge="1">
          <mxGeometry relative="1" as="geometry" />
        </mxCell>
        <mxCell id="fDy47ZpwI2PATpwe9wIe-31" value="Spawning" style="rounded=0;whiteSpace=wrap;html=1;" parent="1" vertex="1">
          <mxGeometry x="70" y="1080" width="70" height="30" as="geometry" />
        </mxCell>
        <mxCell id="fDy47ZpwI2PATpwe9wIe-65" value="" style="edgeStyle=orthogonalEdgeStyle;rounded=0;orthogonalLoop=1;jettySize=auto;html=1;" parent="1" source="fDy47ZpwI2PATpwe9wIe-34" target="fDy47ZpwI2PATpwe9wIe-64" edge="1">
          <mxGeometry relative="1" as="geometry" />
        </mxCell>
        <mxCell id="fDy47ZpwI2PATpwe9wIe-79" style="edgeStyle=orthogonalEdgeStyle;rounded=0;orthogonalLoop=1;jettySize=auto;html=1;exitX=1;exitY=0.5;exitDx=0;exitDy=0;entryX=0.5;entryY=0;entryDx=0;entryDy=0;" parent="1" source="fDy47ZpwI2PATpwe9wIe-34" target="fDy47ZpwI2PATpwe9wIe-25" edge="1">
          <mxGeometry relative="1" as="geometry" />
        </mxCell>
        <mxCell id="fDy47ZpwI2PATpwe9wIe-34" value="Other Logic" style="shape=process;whiteSpace=wrap;html=1;backgroundOutline=1;" parent="1" vertex="1">
          <mxGeometry x="220" y="990" width="170" height="30" as="geometry" />
        </mxCell>
        <mxCell id="fDy47ZpwI2PATpwe9wIe-102" style="edgeStyle=orthogonalEdgeStyle;rounded=0;orthogonalLoop=1;jettySize=auto;html=1;exitX=0.5;exitY=1;exitDx=0;exitDy=0;entryX=0.5;entryY=0;entryDx=0;entryDy=0;" parent="1" source="fDy47ZpwI2PATpwe9wIe-36" target="fDy47ZpwI2PATpwe9wIe-70" edge="1">
          <mxGeometry relative="1" as="geometry">
            <Array as="points">
              <mxPoint x="350" y="1320" />
              <mxPoint x="305" y="1320" />
            </Array>
          </mxGeometry>
        </mxCell>
        <mxCell id="fDy47ZpwI2PATpwe9wIe-36" value="Move Clock" style="rounded=0;whiteSpace=wrap;html=1;" parent="1" vertex="1">
          <mxGeometry x="310" y="1130" width="80" height="30" as="geometry" />
        </mxCell>
        <mxCell id="fDy47ZpwI2PATpwe9wIe-101" style="edgeStyle=orthogonalEdgeStyle;rounded=0;orthogonalLoop=1;jettySize=auto;html=1;exitX=0.5;exitY=1;exitDx=0;exitDy=0;entryX=0.5;entryY=0;entryDx=0;entryDy=0;" parent="1" source="fDy47ZpwI2PATpwe9wIe-39" target="fDy47ZpwI2PATpwe9wIe-70" edge="1">
          <mxGeometry relative="1" as="geometry">
            <Array as="points">
              <mxPoint x="260" y="1320" />
              <mxPoint x="305" y="1320" />
            </Array>
          </mxGeometry>
        </mxCell>
        <mxCell id="fDy47ZpwI2PATpwe9wIe-39" value="Update Score" style="shape=parallelogram;perimeter=parallelogramPerimeter;whiteSpace=wrap;html=1;fixedSize=1;" parent="1" vertex="1">
          <mxGeometry x="200" y="1250" width="120" height="30" as="geometry" />
        </mxCell>
        <mxCell id="fDy47ZpwI2PATpwe9wIe-61" value="" style="edgeStyle=orthogonalEdgeStyle;rounded=0;orthogonalLoop=1;jettySize=auto;html=1;" parent="1" source="fDy47ZpwI2PATpwe9wIe-40" target="fDy47ZpwI2PATpwe9wIe-52" edge="1">
          <mxGeometry relative="1" as="geometry" />
        </mxCell>
        <mxCell id="fDy47ZpwI2PATpwe9wIe-40" value="Generating Next Piece" style="rounded=0;whiteSpace=wrap;html=1;" parent="1" vertex="1">
          <mxGeometry x="-20" y="1300" width="70" height="30" as="geometry" />
        </mxCell>
        <mxCell id="fDy47ZpwI2PATpwe9wIe-68" style="edgeStyle=orthogonalEdgeStyle;rounded=0;orthogonalLoop=1;jettySize=auto;html=1;entryX=0;entryY=0.5;entryDx=0;entryDy=0;" parent="1" source="fDy47ZpwI2PATpwe9wIe-41" target="fDy47ZpwI2PATpwe9wIe-39" edge="1">
          <mxGeometry relative="1" as="geometry" />
        </mxCell>
        <mxCell id="fDy47ZpwI2PATpwe9wIe-41" value="Advancement" style="rounded=0;whiteSpace=wrap;html=1;" parent="1" vertex="1">
          <mxGeometry x="-25" y="1250" width="80" height="30" as="geometry" />
        </mxCell>
        <mxCell id="fDy47ZpwI2PATpwe9wIe-56" style="edgeStyle=orthogonalEdgeStyle;rounded=0;orthogonalLoop=1;jettySize=auto;html=1;exitX=0.5;exitY=1;exitDx=0;exitDy=0;entryX=0.5;entryY=0;entryDx=0;entryDy=0;" parent="1" source="fDy47ZpwI2PATpwe9wIe-87" target="fDy47ZpwI2PATpwe9wIe-30" edge="1">
          <mxGeometry relative="1" as="geometry" />
        </mxCell>
        <mxCell id="fDy47ZpwI2PATpwe9wIe-98" style="edgeStyle=orthogonalEdgeStyle;rounded=0;orthogonalLoop=1;jettySize=auto;html=1;exitX=0.5;exitY=1;exitDx=0;exitDy=0;" parent="1" source="fDy47ZpwI2PATpwe9wIe-51" target="fDy47ZpwI2PATpwe9wIe-31" edge="1">
          <mxGeometry relative="1" as="geometry" />
        </mxCell>
        <mxCell id="fDy47ZpwI2PATpwe9wIe-51" value="Read m_Positions" style="rounded=1;whiteSpace=wrap;html=1;" parent="1" vertex="1">
          <mxGeometry x="-40" y="1010" width="110" height="30" as="geometry" />
        </mxCell>
        <mxCell id="fDy47ZpwI2PATpwe9wIe-52" value="Write m_Positions" style="rounded=1;whiteSpace=wrap;html=1;" parent="1" vertex="1">
          <mxGeometry x="-42.5" y="1350" width="115" height="30" as="geometry" />
        </mxCell>
        <mxCell id="fDy47ZpwI2PATpwe9wIe-60" style="edgeStyle=orthogonalEdgeStyle;rounded=0;orthogonalLoop=1;jettySize=auto;html=1;exitX=0.5;exitY=1;exitDx=0;exitDy=0;entryX=0.514;entryY=-0.1;entryDx=0;entryDy=0;entryPerimeter=0;" parent="1" source="fDy47ZpwI2PATpwe9wIe-41" target="fDy47ZpwI2PATpwe9wIe-40" edge="1">
          <mxGeometry relative="1" as="geometry" />
        </mxCell>
        <mxCell id="fDy47ZpwI2PATpwe9wIe-111" style="edgeStyle=orthogonalEdgeStyle;rounded=0;orthogonalLoop=1;jettySize=auto;html=1;exitX=0.5;exitY=1;exitDx=0;exitDy=0;entryX=0.5;entryY=0;entryDx=0;entryDy=0;" parent="1" source="fDy47ZpwI2PATpwe9wIe-62" target="fDy47ZpwI2PATpwe9wIe-73" edge="1">
          <mxGeometry relative="1" as="geometry" />
        </mxCell>
        <mxCell id="fDy47ZpwI2PATpwe9wIe-62" value="Read m_Positions" style="rounded=1;whiteSpace=wrap;html=1;" parent="1" vertex="1">
          <mxGeometry x="470" y="1110" width="110" height="30" as="geometry" />
        </mxCell>
        <mxCell id="fDy47ZpwI2PATpwe9wIe-110" style="edgeStyle=orthogonalEdgeStyle;rounded=0;orthogonalLoop=1;jettySize=auto;html=1;exitX=0.5;exitY=1;exitDx=0;exitDy=0;entryX=0.5;entryY=0;entryDx=0;entryDy=0;" parent="1" source="fDy47ZpwI2PATpwe9wIe-63" target="fDy47ZpwI2PATpwe9wIe-73" edge="1">
          <mxGeometry relative="1" as="geometry" />
        </mxCell>
        <mxCell id="fDy47ZpwI2PATpwe9wIe-63" value="Read m_Stats" style="rounded=1;whiteSpace=wrap;html=1;" parent="1" vertex="1">
          <mxGeometry x="600" y="1110" width="110" height="30" as="geometry" />
        </mxCell>
        <mxCell id="fDy47ZpwI2PATpwe9wIe-67" style="edgeStyle=orthogonalEdgeStyle;rounded=0;orthogonalLoop=1;jettySize=auto;html=1;exitX=0.5;exitY=1;exitDx=0;exitDy=0;" parent="1" source="fDy47ZpwI2PATpwe9wIe-64" target="fDy47ZpwI2PATpwe9wIe-36" edge="1">
          <mxGeometry relative="1" as="geometry" />
        </mxCell>
        <mxCell id="fDy47ZpwI2PATpwe9wIe-89" style="edgeStyle=orthogonalEdgeStyle;rounded=0;orthogonalLoop=1;jettySize=auto;html=1;exitX=0.5;exitY=1;exitDx=0;exitDy=0;entryX=0.5;entryY=0;entryDx=0;entryDy=0;" parent="1" source="fDy47ZpwI2PATpwe9wIe-64" target="fDy47ZpwI2PATpwe9wIe-39" edge="1">
          <mxGeometry relative="1" as="geometry">
            <Array as="points">
              <mxPoint x="305" y="1100" />
              <mxPoint x="260" y="1100" />
            </Array>
          </mxGeometry>
        </mxCell>
        <mxCell id="fDy47ZpwI2PATpwe9wIe-64" value="Read m_Stats" style="rounded=1;whiteSpace=wrap;html=1;" parent="1" vertex="1">
          <mxGeometry x="250" y="1040" width="110" height="30" as="geometry" />
        </mxCell>
        <mxCell id="fDy47ZpwI2PATpwe9wIe-70" value="Write m_Stats" style="rounded=1;whiteSpace=wrap;html=1;" parent="1" vertex="1">
          <mxGeometry x="247.5" y="1350" width="115" height="30" as="geometry" />
        </mxCell>
        <mxCell id="fDy47ZpwI2PATpwe9wIe-112" value="" style="edgeStyle=orthogonalEdgeStyle;rounded=0;orthogonalLoop=1;jettySize=auto;html=1;" parent="1" source="fDy47ZpwI2PATpwe9wIe-73" target="fDy47ZpwI2PATpwe9wIe-74" edge="1">
          <mxGeometry relative="1" as="geometry" />
        </mxCell>
        <mxCell id="fDy47ZpwI2PATpwe9wIe-73" value="Allign Chars" style="rounded=0;whiteSpace=wrap;html=1;" parent="1" vertex="1">
          <mxGeometry x="550" y="1180" width="80" height="30" as="geometry" />
        </mxCell>
        <mxCell id="fDy47ZpwI2PATpwe9wIe-74" value="Render to p_Screen" style="rounded=0;whiteSpace=wrap;html=1;" parent="1" vertex="1">
          <mxGeometry x="550" y="1230" width="80" height="30" as="geometry" />
        </mxCell>
        <mxCell id="fDy47ZpwI2PATpwe9wIe-107" value="" style="edgeStyle=orthogonalEdgeStyle;rounded=0;orthogonalLoop=1;jettySize=auto;html=1;" parent="1" source="fDy47ZpwI2PATpwe9wIe-84" target="fDy47ZpwI2PATpwe9wIe-86" edge="1">
          <mxGeometry relative="1" as="geometry" />
        </mxCell>
        <mxCell id="fDy47ZpwI2PATpwe9wIe-84" value="Controller Input" style="shape=process;whiteSpace=wrap;html=1;backgroundOutline=1;" parent="1" vertex="1">
          <mxGeometry x="-310" y="950" width="170" height="30" as="geometry" />
        </mxCell>
        <mxCell id="fDy47ZpwI2PATpwe9wIe-108" style="edgeStyle=orthogonalEdgeStyle;rounded=0;orthogonalLoop=1;jettySize=auto;html=1;exitX=0.5;exitY=1;exitDx=0;exitDy=0;entryX=0;entryY=0.5;entryDx=0;entryDy=0;" parent="1" source="fDy47ZpwI2PATpwe9wIe-86" target="fDy47ZpwI2PATpwe9wIe-87" edge="1">
          <mxGeometry relative="1" as="geometry">
            <Array as="points">
              <mxPoint x="-225" y="1095" />
            </Array>
          </mxGeometry>
        </mxCell>
        <mxCell id="fDy47ZpwI2PATpwe9wIe-86" value="Read User p_Input" style="rounded=1;whiteSpace=wrap;html=1;" parent="1" vertex="1">
          <mxGeometry x="-280" y="1010" width="110" height="30" as="geometry" />
        </mxCell>
        <mxCell id="fDy47ZpwI2PATpwe9wIe-90" value="" style="edgeStyle=orthogonalEdgeStyle;rounded=0;orthogonalLoop=1;jettySize=auto;html=1;exitX=0.5;exitY=1;exitDx=0;exitDy=0;entryX=0.5;entryY=0;entryDx=0;entryDy=0;" parent="1" source="fDy47ZpwI2PATpwe9wIe-31" target="fDy47ZpwI2PATpwe9wIe-30" edge="1">
          <mxGeometry relative="1" as="geometry">
            <mxPoint x="105" y="1110" as="sourcePoint" />
            <mxPoint x="15" y="1220" as="targetPoint" />
          </mxGeometry>
        </mxCell>
        <mxCell id="fDy47ZpwI2PATpwe9wIe-30" value="Falling" style="rounded=0;whiteSpace=wrap;html=1;" parent="1" vertex="1">
          <mxGeometry x="-20" y="1150" width="70" height="30" as="geometry" />
        </mxCell>
        <mxCell id="fDy47ZpwI2PATpwe9wIe-87" value="Attempt Adjustement" style="shape=parallelogram;perimeter=parallelogramPerimeter;whiteSpace=wrap;html=1;fixedSize=1;" parent="1" vertex="1">
          <mxGeometry x="-105" y="1080" width="150" height="30" as="geometry" />
        </mxCell>
        <mxCell id="fDy47ZpwI2PATpwe9wIe-99" style="edgeStyle=orthogonalEdgeStyle;rounded=0;orthogonalLoop=1;jettySize=auto;html=1;exitX=0.5;exitY=1;exitDx=0;exitDy=0;entryX=0.56;entryY=0.078;entryDx=0;entryDy=0;entryPerimeter=0;" parent="1" source="fDy47ZpwI2PATpwe9wIe-51" target="fDy47ZpwI2PATpwe9wIe-87" edge="1">
          <mxGeometry relative="1" as="geometry" />
        </mxCell>
        <mxCell id="fDy47ZpwI2PATpwe9wIe-118" value="p_ =&amp;gt; Periferal&lt;br&gt;m_ =&amp;gt; Memory" style="shape=callout;whiteSpace=wrap;html=1;perimeter=calloutPerimeter;position2=0;size=30;position=0.13;" parent="1" vertex="1">
          <mxGeometry x="50" y="790" width="120" height="80" as="geometry" />
        </mxCell>
      </root>
    </mxGraphModel>
  </diagram>
  <diagram id="2qZ9KP_Xk6jybSxUznoW" name="Page-2">
    <mxGraphModel dx="2474" dy="1604" grid="1" gridSize="10" guides="1" tooltips="1" connect="1" arrows="1" fold="1" page="0" pageScale="1" pageWidth="827" pageHeight="1169" math="0" shadow="0">
      <root>
        <mxCell id="0" />
        <mxCell id="1" parent="0" />
        <mxCell id="9aJ4kUpK9t7uexoVAxs4-896" value="" style="shape=process;whiteSpace=wrap;html=1;backgroundOutline=1;size=0.010638297872340427;rotation=90;opacity=50;" parent="1" vertex="1">
          <mxGeometry x="-330" y="150" width="940" height="540" as="geometry" />
        </mxCell>
        <mxCell id="9aJ4kUpK9t7uexoVAxs4-895" value="" style="shape=process;whiteSpace=wrap;html=1;backgroundOutline=1;size=0.018518518518518517;opacity=50;" parent="1" vertex="1">
          <mxGeometry x="-130" y="-50" width="540" height="940" as="geometry" />
        </mxCell>
        <mxCell id="9aJ4kUpK9t7uexoVAxs4-1" value="" style="whiteSpace=wrap;html=1;aspect=fixed;movable=0;resizable=0;rotatable=0;deletable=0;editable=0;locked=1;connectable=0;" parent="1" vertex="1">
          <mxGeometry x="-120" y="240" width="40" height="40" as="geometry" />
        </mxCell>
        <mxCell id="9aJ4kUpK9t7uexoVAxs4-2" value="" style="whiteSpace=wrap;html=1;aspect=fixed;movable=0;resizable=0;rotatable=0;deletable=0;editable=0;locked=1;connectable=0;" parent="1" vertex="1">
          <mxGeometry x="-80" y="240" width="40" height="40" as="geometry" />
        </mxCell>
        <mxCell id="9aJ4kUpK9t7uexoVAxs4-5" value="" style="whiteSpace=wrap;html=1;aspect=fixed;movable=0;resizable=0;rotatable=0;deletable=0;editable=0;locked=1;connectable=0;" parent="1" vertex="1">
          <mxGeometry x="-40" y="240" width="40" height="40" as="geometry" />
        </mxCell>
        <mxCell id="9aJ4kUpK9t7uexoVAxs4-6" value="" style="whiteSpace=wrap;html=1;aspect=fixed;movable=0;resizable=0;rotatable=0;deletable=0;editable=0;locked=1;connectable=0;" parent="1" vertex="1">
          <mxGeometry y="240" width="40" height="40" as="geometry" />
        </mxCell>
        <mxCell id="9aJ4kUpK9t7uexoVAxs4-7" value="" style="whiteSpace=wrap;html=1;aspect=fixed;movable=0;resizable=0;rotatable=0;deletable=0;editable=0;locked=1;connectable=0;" parent="1" vertex="1">
          <mxGeometry x="40" y="240" width="40" height="40" as="geometry" />
        </mxCell>
        <mxCell id="9aJ4kUpK9t7uexoVAxs4-8" value="" style="whiteSpace=wrap;html=1;aspect=fixed;movable=0;resizable=0;rotatable=0;deletable=0;editable=0;locked=1;connectable=0;" parent="1" vertex="1">
          <mxGeometry x="80" y="240" width="40" height="40" as="geometry" />
        </mxCell>
        <mxCell id="9aJ4kUpK9t7uexoVAxs4-9" value="" style="whiteSpace=wrap;html=1;aspect=fixed;movable=0;resizable=0;rotatable=0;deletable=0;editable=0;locked=1;connectable=0;" parent="1" vertex="1">
          <mxGeometry x="120" y="240" width="40" height="40" as="geometry" />
        </mxCell>
        <mxCell id="9aJ4kUpK9t7uexoVAxs4-10" value="" style="whiteSpace=wrap;html=1;aspect=fixed;movable=0;resizable=0;rotatable=0;deletable=0;editable=0;locked=1;connectable=0;" parent="1" vertex="1">
          <mxGeometry x="160" y="240" width="40" height="40" as="geometry" />
        </mxCell>
        <mxCell id="9aJ4kUpK9t7uexoVAxs4-11" value="" style="whiteSpace=wrap;html=1;aspect=fixed;movable=0;resizable=0;rotatable=0;deletable=0;editable=0;locked=1;connectable=0;" parent="1" vertex="1">
          <mxGeometry x="200" y="240" width="40" height="40" as="geometry" />
        </mxCell>
        <mxCell id="9aJ4kUpK9t7uexoVAxs4-12" value="" style="whiteSpace=wrap;html=1;aspect=fixed;movable=0;resizable=0;rotatable=0;deletable=0;editable=0;locked=1;connectable=0;" parent="1" vertex="1">
          <mxGeometry x="240" y="240" width="40" height="40" as="geometry" />
        </mxCell>
        <mxCell id="9aJ4kUpK9t7uexoVAxs4-13" value="" style="whiteSpace=wrap;html=1;aspect=fixed;movable=0;resizable=0;rotatable=0;deletable=0;editable=0;locked=1;connectable=0;" parent="1" vertex="1">
          <mxGeometry x="-120" y="280" width="40" height="40" as="geometry" />
        </mxCell>
        <mxCell id="9aJ4kUpK9t7uexoVAxs4-14" value="" style="whiteSpace=wrap;html=1;aspect=fixed;movable=0;resizable=0;rotatable=0;deletable=0;editable=0;locked=1;connectable=0;" parent="1" vertex="1">
          <mxGeometry x="-80" y="280" width="40" height="40" as="geometry" />
        </mxCell>
        <mxCell id="9aJ4kUpK9t7uexoVAxs4-15" value="" style="whiteSpace=wrap;html=1;aspect=fixed;movable=0;resizable=0;rotatable=0;deletable=0;editable=0;locked=1;connectable=0;" parent="1" vertex="1">
          <mxGeometry x="-40" y="280" width="40" height="40" as="geometry" />
        </mxCell>
        <mxCell id="9aJ4kUpK9t7uexoVAxs4-16" value="" style="whiteSpace=wrap;html=1;aspect=fixed;movable=0;resizable=0;rotatable=0;deletable=0;editable=0;locked=1;connectable=0;" parent="1" vertex="1">
          <mxGeometry y="280" width="40" height="40" as="geometry" />
        </mxCell>
        <mxCell id="9aJ4kUpK9t7uexoVAxs4-17" value="" style="whiteSpace=wrap;html=1;aspect=fixed;movable=0;resizable=0;rotatable=0;deletable=0;editable=0;locked=1;connectable=0;" parent="1" vertex="1">
          <mxGeometry x="40" y="280" width="40" height="40" as="geometry" />
        </mxCell>
        <mxCell id="9aJ4kUpK9t7uexoVAxs4-18" value="" style="whiteSpace=wrap;html=1;aspect=fixed;movable=0;resizable=0;rotatable=0;deletable=0;editable=0;locked=1;connectable=0;" parent="1" vertex="1">
          <mxGeometry x="80" y="280" width="40" height="40" as="geometry" />
        </mxCell>
        <mxCell id="9aJ4kUpK9t7uexoVAxs4-19" value="" style="whiteSpace=wrap;html=1;aspect=fixed;movable=0;resizable=0;rotatable=0;deletable=0;editable=0;locked=1;connectable=0;" parent="1" vertex="1">
          <mxGeometry x="120" y="280" width="40" height="40" as="geometry" />
        </mxCell>
        <mxCell id="9aJ4kUpK9t7uexoVAxs4-20" value="" style="whiteSpace=wrap;html=1;aspect=fixed;movable=0;resizable=0;rotatable=0;deletable=0;editable=0;locked=1;connectable=0;" parent="1" vertex="1">
          <mxGeometry x="160" y="280" width="40" height="40" as="geometry" />
        </mxCell>
        <mxCell id="9aJ4kUpK9t7uexoVAxs4-21" value="" style="whiteSpace=wrap;html=1;aspect=fixed;movable=0;resizable=0;rotatable=0;deletable=0;editable=0;locked=1;connectable=0;" parent="1" vertex="1">
          <mxGeometry x="200" y="280" width="40" height="40" as="geometry" />
        </mxCell>
        <mxCell id="9aJ4kUpK9t7uexoVAxs4-22" value="" style="whiteSpace=wrap;html=1;aspect=fixed;movable=0;resizable=0;rotatable=0;deletable=0;editable=0;locked=1;connectable=0;" parent="1" vertex="1">
          <mxGeometry x="240" y="280" width="40" height="40" as="geometry" />
        </mxCell>
        <mxCell id="9aJ4kUpK9t7uexoVAxs4-23" value="" style="whiteSpace=wrap;html=1;aspect=fixed;movable=0;resizable=0;rotatable=0;deletable=0;editable=0;locked=1;connectable=0;" parent="1" vertex="1">
          <mxGeometry x="-120" y="320" width="40" height="40" as="geometry" />
        </mxCell>
        <mxCell id="9aJ4kUpK9t7uexoVAxs4-24" value="" style="whiteSpace=wrap;html=1;aspect=fixed;movable=0;resizable=0;rotatable=0;deletable=0;editable=0;locked=1;connectable=0;" parent="1" vertex="1">
          <mxGeometry x="-80" y="320" width="40" height="40" as="geometry" />
        </mxCell>
        <mxCell id="9aJ4kUpK9t7uexoVAxs4-25" value="" style="whiteSpace=wrap;html=1;aspect=fixed;movable=0;resizable=0;rotatable=0;deletable=0;editable=0;locked=1;connectable=0;" parent="1" vertex="1">
          <mxGeometry x="-40" y="320" width="40" height="40" as="geometry" />
        </mxCell>
        <mxCell id="9aJ4kUpK9t7uexoVAxs4-26" value="" style="whiteSpace=wrap;html=1;aspect=fixed;movable=0;resizable=0;rotatable=0;deletable=0;editable=0;locked=1;connectable=0;" parent="1" vertex="1">
          <mxGeometry y="320" width="40" height="40" as="geometry" />
        </mxCell>
        <mxCell id="9aJ4kUpK9t7uexoVAxs4-27" value="" style="whiteSpace=wrap;html=1;aspect=fixed;movable=0;resizable=0;rotatable=0;deletable=0;editable=0;locked=1;connectable=0;" parent="1" vertex="1">
          <mxGeometry x="40" y="320" width="40" height="40" as="geometry" />
        </mxCell>
        <mxCell id="9aJ4kUpK9t7uexoVAxs4-28" value="" style="whiteSpace=wrap;html=1;aspect=fixed;movable=0;resizable=0;rotatable=0;deletable=0;editable=0;locked=1;connectable=0;" parent="1" vertex="1">
          <mxGeometry x="80" y="320" width="40" height="40" as="geometry" />
        </mxCell>
        <mxCell id="9aJ4kUpK9t7uexoVAxs4-29" value="" style="whiteSpace=wrap;html=1;aspect=fixed;movable=0;resizable=0;rotatable=0;deletable=0;editable=0;locked=1;connectable=0;" parent="1" vertex="1">
          <mxGeometry x="120" y="320" width="40" height="40" as="geometry" />
        </mxCell>
        <mxCell id="9aJ4kUpK9t7uexoVAxs4-30" value="" style="whiteSpace=wrap;html=1;aspect=fixed;movable=0;resizable=0;rotatable=0;deletable=0;editable=0;locked=1;connectable=0;" parent="1" vertex="1">
          <mxGeometry x="160" y="320" width="40" height="40" as="geometry" />
        </mxCell>
        <mxCell id="9aJ4kUpK9t7uexoVAxs4-31" value="" style="whiteSpace=wrap;html=1;aspect=fixed;movable=0;resizable=0;rotatable=0;deletable=0;editable=0;locked=1;connectable=0;" parent="1" vertex="1">
          <mxGeometry x="200" y="320" width="40" height="40" as="geometry" />
        </mxCell>
        <mxCell id="9aJ4kUpK9t7uexoVAxs4-32" value="" style="whiteSpace=wrap;html=1;aspect=fixed;movable=0;resizable=0;rotatable=0;deletable=0;editable=0;locked=1;connectable=0;" parent="1" vertex="1">
          <mxGeometry x="240" y="320" width="40" height="40" as="geometry" />
        </mxCell>
        <mxCell id="9aJ4kUpK9t7uexoVAxs4-33" value="" style="whiteSpace=wrap;html=1;aspect=fixed;movable=0;resizable=0;rotatable=0;deletable=0;editable=0;locked=1;connectable=0;" parent="1" vertex="1">
          <mxGeometry x="-120" y="360" width="40" height="40" as="geometry" />
        </mxCell>
        <mxCell id="9aJ4kUpK9t7uexoVAxs4-34" value="" style="whiteSpace=wrap;html=1;aspect=fixed;movable=0;resizable=0;rotatable=0;deletable=0;editable=0;locked=1;connectable=0;" parent="1" vertex="1">
          <mxGeometry x="-80" y="360" width="40" height="40" as="geometry" />
        </mxCell>
        <mxCell id="9aJ4kUpK9t7uexoVAxs4-35" value="" style="whiteSpace=wrap;html=1;aspect=fixed;movable=0;resizable=0;rotatable=0;deletable=0;editable=0;locked=1;connectable=0;" parent="1" vertex="1">
          <mxGeometry x="-40" y="360" width="40" height="40" as="geometry" />
        </mxCell>
        <mxCell id="9aJ4kUpK9t7uexoVAxs4-36" value="" style="whiteSpace=wrap;html=1;aspect=fixed;movable=0;resizable=0;rotatable=0;deletable=0;editable=0;locked=1;connectable=0;" parent="1" vertex="1">
          <mxGeometry y="360" width="40" height="40" as="geometry" />
        </mxCell>
        <mxCell id="9aJ4kUpK9t7uexoVAxs4-37" value="" style="whiteSpace=wrap;html=1;aspect=fixed;movable=0;resizable=0;rotatable=0;deletable=0;editable=0;locked=1;connectable=0;" parent="1" vertex="1">
          <mxGeometry x="40" y="360" width="40" height="40" as="geometry" />
        </mxCell>
        <mxCell id="9aJ4kUpK9t7uexoVAxs4-38" value="" style="whiteSpace=wrap;html=1;aspect=fixed;movable=0;resizable=0;rotatable=0;deletable=0;editable=0;locked=1;connectable=0;" parent="1" vertex="1">
          <mxGeometry x="80" y="360" width="40" height="40" as="geometry" />
        </mxCell>
        <mxCell id="9aJ4kUpK9t7uexoVAxs4-39" value="" style="whiteSpace=wrap;html=1;aspect=fixed;movable=0;resizable=0;rotatable=0;deletable=0;editable=0;locked=1;connectable=0;" parent="1" vertex="1">
          <mxGeometry x="120" y="360" width="40" height="40" as="geometry" />
        </mxCell>
        <mxCell id="9aJ4kUpK9t7uexoVAxs4-40" value="" style="whiteSpace=wrap;html=1;aspect=fixed;movable=0;resizable=0;rotatable=0;deletable=0;editable=0;locked=1;connectable=0;" parent="1" vertex="1">
          <mxGeometry x="160" y="360" width="40" height="40" as="geometry" />
        </mxCell>
        <mxCell id="9aJ4kUpK9t7uexoVAxs4-41" value="" style="whiteSpace=wrap;html=1;aspect=fixed;movable=0;resizable=0;rotatable=0;deletable=0;editable=0;locked=1;connectable=0;" parent="1" vertex="1">
          <mxGeometry x="200" y="360" width="40" height="40" as="geometry" />
        </mxCell>
        <mxCell id="9aJ4kUpK9t7uexoVAxs4-42" value="" style="whiteSpace=wrap;html=1;aspect=fixed;movable=0;resizable=0;rotatable=0;deletable=0;editable=0;locked=1;connectable=0;" parent="1" vertex="1">
          <mxGeometry x="240" y="360" width="40" height="40" as="geometry" />
        </mxCell>
        <mxCell id="9aJ4kUpK9t7uexoVAxs4-43" value="" style="whiteSpace=wrap;html=1;aspect=fixed;movable=0;resizable=0;rotatable=0;deletable=0;editable=0;locked=1;connectable=0;" parent="1" vertex="1">
          <mxGeometry x="-120" y="400" width="40" height="40" as="geometry" />
        </mxCell>
        <mxCell id="9aJ4kUpK9t7uexoVAxs4-44" value="" style="whiteSpace=wrap;html=1;aspect=fixed;movable=0;resizable=0;rotatable=0;deletable=0;editable=0;locked=1;connectable=0;" parent="1" vertex="1">
          <mxGeometry x="-80" y="400" width="40" height="40" as="geometry" />
        </mxCell>
        <mxCell id="9aJ4kUpK9t7uexoVAxs4-45" value="" style="whiteSpace=wrap;html=1;aspect=fixed;movable=0;resizable=0;rotatable=0;deletable=0;editable=0;locked=1;connectable=0;" parent="1" vertex="1">
          <mxGeometry x="-40" y="400" width="40" height="40" as="geometry" />
        </mxCell>
        <mxCell id="9aJ4kUpK9t7uexoVAxs4-46" value="" style="whiteSpace=wrap;html=1;aspect=fixed;movable=0;resizable=0;rotatable=0;deletable=0;editable=0;locked=1;connectable=0;" parent="1" vertex="1">
          <mxGeometry y="400" width="40" height="40" as="geometry" />
        </mxCell>
        <mxCell id="9aJ4kUpK9t7uexoVAxs4-47" value="" style="whiteSpace=wrap;html=1;aspect=fixed;movable=0;resizable=0;rotatable=0;deletable=0;editable=0;locked=1;connectable=0;" parent="1" vertex="1">
          <mxGeometry x="40" y="400" width="40" height="40" as="geometry" />
        </mxCell>
        <mxCell id="9aJ4kUpK9t7uexoVAxs4-48" value="" style="whiteSpace=wrap;html=1;aspect=fixed;movable=0;resizable=0;rotatable=0;deletable=0;editable=0;locked=1;connectable=0;" parent="1" vertex="1">
          <mxGeometry x="80" y="400" width="40" height="40" as="geometry" />
        </mxCell>
        <mxCell id="9aJ4kUpK9t7uexoVAxs4-49" value="" style="whiteSpace=wrap;html=1;aspect=fixed;movable=0;resizable=0;rotatable=0;deletable=0;editable=0;locked=1;connectable=0;" parent="1" vertex="1">
          <mxGeometry x="120" y="400" width="40" height="40" as="geometry" />
        </mxCell>
        <mxCell id="9aJ4kUpK9t7uexoVAxs4-50" value="" style="whiteSpace=wrap;html=1;aspect=fixed;movable=0;resizable=0;rotatable=0;deletable=0;editable=0;locked=1;connectable=0;" parent="1" vertex="1">
          <mxGeometry x="160" y="400" width="40" height="40" as="geometry" />
        </mxCell>
        <mxCell id="9aJ4kUpK9t7uexoVAxs4-51" value="" style="whiteSpace=wrap;html=1;aspect=fixed;movable=0;resizable=0;rotatable=0;deletable=0;editable=0;locked=1;connectable=0;" parent="1" vertex="1">
          <mxGeometry x="200" y="400" width="40" height="40" as="geometry" />
        </mxCell>
        <mxCell id="9aJ4kUpK9t7uexoVAxs4-52" value="" style="whiteSpace=wrap;html=1;aspect=fixed;movable=0;resizable=0;rotatable=0;deletable=0;editable=0;locked=1;connectable=0;" parent="1" vertex="1">
          <mxGeometry x="240" y="400" width="40" height="40" as="geometry" />
        </mxCell>
        <mxCell id="9aJ4kUpK9t7uexoVAxs4-53" value="" style="whiteSpace=wrap;html=1;aspect=fixed;movable=0;resizable=0;rotatable=0;deletable=0;editable=0;locked=1;connectable=0;" parent="1" vertex="1">
          <mxGeometry x="-120" y="440" width="40" height="40" as="geometry" />
        </mxCell>
        <mxCell id="9aJ4kUpK9t7uexoVAxs4-54" value="" style="whiteSpace=wrap;html=1;aspect=fixed;movable=0;resizable=0;rotatable=0;deletable=0;editable=0;locked=1;connectable=0;" parent="1" vertex="1">
          <mxGeometry x="-80" y="440" width="40" height="40" as="geometry" />
        </mxCell>
        <mxCell id="9aJ4kUpK9t7uexoVAxs4-55" value="" style="whiteSpace=wrap;html=1;aspect=fixed;movable=0;resizable=0;rotatable=0;deletable=0;editable=0;locked=1;connectable=0;" parent="1" vertex="1">
          <mxGeometry x="-40" y="440" width="40" height="40" as="geometry" />
        </mxCell>
        <mxCell id="9aJ4kUpK9t7uexoVAxs4-56" value="" style="whiteSpace=wrap;html=1;aspect=fixed;movable=0;resizable=0;rotatable=0;deletable=0;editable=0;locked=1;connectable=0;" parent="1" vertex="1">
          <mxGeometry y="440" width="40" height="40" as="geometry" />
        </mxCell>
        <mxCell id="9aJ4kUpK9t7uexoVAxs4-57" value="" style="whiteSpace=wrap;html=1;aspect=fixed;movable=0;resizable=0;rotatable=0;deletable=0;editable=0;locked=1;connectable=0;" parent="1" vertex="1">
          <mxGeometry x="40" y="440" width="40" height="40" as="geometry" />
        </mxCell>
        <mxCell id="9aJ4kUpK9t7uexoVAxs4-58" value="" style="whiteSpace=wrap;html=1;aspect=fixed;movable=0;resizable=0;rotatable=0;deletable=0;editable=0;locked=1;connectable=0;" parent="1" vertex="1">
          <mxGeometry x="80" y="440" width="40" height="40" as="geometry" />
        </mxCell>
        <mxCell id="9aJ4kUpK9t7uexoVAxs4-59" value="" style="whiteSpace=wrap;html=1;aspect=fixed;movable=0;resizable=0;rotatable=0;deletable=0;editable=0;locked=1;connectable=0;" parent="1" vertex="1">
          <mxGeometry x="120" y="440" width="40" height="40" as="geometry" />
        </mxCell>
        <mxCell id="9aJ4kUpK9t7uexoVAxs4-60" value="" style="whiteSpace=wrap;html=1;aspect=fixed;movable=0;resizable=0;rotatable=0;deletable=0;editable=0;locked=1;connectable=0;" parent="1" vertex="1">
          <mxGeometry x="160" y="440" width="40" height="40" as="geometry" />
        </mxCell>
        <mxCell id="9aJ4kUpK9t7uexoVAxs4-61" value="" style="whiteSpace=wrap;html=1;aspect=fixed;movable=0;resizable=0;rotatable=0;deletable=0;editable=0;locked=1;connectable=0;" parent="1" vertex="1">
          <mxGeometry x="200" y="440" width="40" height="40" as="geometry" />
        </mxCell>
        <mxCell id="9aJ4kUpK9t7uexoVAxs4-62" value="" style="whiteSpace=wrap;html=1;aspect=fixed;movable=0;resizable=0;rotatable=0;deletable=0;editable=0;locked=1;connectable=0;" parent="1" vertex="1">
          <mxGeometry x="240" y="440" width="40" height="40" as="geometry" />
        </mxCell>
        <mxCell id="9aJ4kUpK9t7uexoVAxs4-63" value="" style="whiteSpace=wrap;html=1;aspect=fixed;movable=0;resizable=0;rotatable=0;deletable=0;editable=0;locked=1;connectable=0;" parent="1" vertex="1">
          <mxGeometry x="-120" y="480" width="40" height="40" as="geometry" />
        </mxCell>
        <mxCell id="9aJ4kUpK9t7uexoVAxs4-64" value="" style="whiteSpace=wrap;html=1;aspect=fixed;movable=0;resizable=0;rotatable=0;deletable=0;editable=0;locked=1;connectable=0;" parent="1" vertex="1">
          <mxGeometry x="-80" y="480" width="40" height="40" as="geometry" />
        </mxCell>
        <mxCell id="9aJ4kUpK9t7uexoVAxs4-65" value="" style="whiteSpace=wrap;html=1;aspect=fixed;movable=0;resizable=0;rotatable=0;deletable=0;editable=0;locked=1;connectable=0;" parent="1" vertex="1">
          <mxGeometry x="-40" y="480" width="40" height="40" as="geometry" />
        </mxCell>
        <mxCell id="9aJ4kUpK9t7uexoVAxs4-66" value="" style="whiteSpace=wrap;html=1;aspect=fixed;movable=0;resizable=0;rotatable=0;deletable=0;editable=0;locked=1;connectable=0;" parent="1" vertex="1">
          <mxGeometry y="480" width="40" height="40" as="geometry" />
        </mxCell>
        <mxCell id="9aJ4kUpK9t7uexoVAxs4-67" value="" style="whiteSpace=wrap;html=1;aspect=fixed;movable=0;resizable=0;rotatable=0;deletable=0;editable=0;locked=1;connectable=0;" parent="1" vertex="1">
          <mxGeometry x="40" y="480" width="40" height="40" as="geometry" />
        </mxCell>
        <mxCell id="9aJ4kUpK9t7uexoVAxs4-68" value="" style="whiteSpace=wrap;html=1;aspect=fixed;movable=0;resizable=0;rotatable=0;deletable=0;editable=0;locked=1;connectable=0;" parent="1" vertex="1">
          <mxGeometry x="80" y="480" width="40" height="40" as="geometry" />
        </mxCell>
        <mxCell id="9aJ4kUpK9t7uexoVAxs4-69" value="" style="whiteSpace=wrap;html=1;aspect=fixed;movable=0;resizable=0;rotatable=0;deletable=0;editable=0;locked=1;connectable=0;" parent="1" vertex="1">
          <mxGeometry x="120" y="480" width="40" height="40" as="geometry" />
        </mxCell>
        <mxCell id="9aJ4kUpK9t7uexoVAxs4-70" value="" style="whiteSpace=wrap;html=1;aspect=fixed;movable=0;resizable=0;rotatable=0;deletable=0;editable=0;locked=1;connectable=0;" parent="1" vertex="1">
          <mxGeometry x="160" y="480" width="40" height="40" as="geometry" />
        </mxCell>
        <mxCell id="9aJ4kUpK9t7uexoVAxs4-71" value="" style="whiteSpace=wrap;html=1;aspect=fixed;movable=0;resizable=0;rotatable=0;deletable=0;editable=0;locked=1;connectable=0;" parent="1" vertex="1">
          <mxGeometry x="200" y="480" width="40" height="40" as="geometry" />
        </mxCell>
        <mxCell id="9aJ4kUpK9t7uexoVAxs4-72" value="" style="whiteSpace=wrap;html=1;aspect=fixed;movable=0;resizable=0;rotatable=0;deletable=0;editable=0;locked=1;connectable=0;" parent="1" vertex="1">
          <mxGeometry x="240" y="480" width="40" height="40" as="geometry" />
        </mxCell>
        <mxCell id="9aJ4kUpK9t7uexoVAxs4-73" value="" style="whiteSpace=wrap;html=1;aspect=fixed;movable=0;resizable=0;rotatable=0;deletable=0;editable=0;locked=1;connectable=0;" parent="1" vertex="1">
          <mxGeometry x="-120" y="520" width="40" height="40" as="geometry" />
        </mxCell>
        <mxCell id="9aJ4kUpK9t7uexoVAxs4-74" value="" style="whiteSpace=wrap;html=1;aspect=fixed;movable=0;resizable=0;rotatable=0;deletable=0;editable=0;locked=1;connectable=0;" parent="1" vertex="1">
          <mxGeometry x="-80" y="520" width="40" height="40" as="geometry" />
        </mxCell>
        <mxCell id="9aJ4kUpK9t7uexoVAxs4-75" value="" style="whiteSpace=wrap;html=1;aspect=fixed;movable=0;resizable=0;rotatable=0;deletable=0;editable=0;locked=1;connectable=0;" parent="1" vertex="1">
          <mxGeometry x="-40" y="520" width="40" height="40" as="geometry" />
        </mxCell>
        <mxCell id="9aJ4kUpK9t7uexoVAxs4-76" value="" style="whiteSpace=wrap;html=1;aspect=fixed;movable=0;resizable=0;rotatable=0;deletable=0;editable=0;locked=1;connectable=0;" parent="1" vertex="1">
          <mxGeometry y="520" width="40" height="40" as="geometry" />
        </mxCell>
        <mxCell id="9aJ4kUpK9t7uexoVAxs4-77" value="" style="whiteSpace=wrap;html=1;aspect=fixed;movable=0;resizable=0;rotatable=0;deletable=0;editable=0;locked=1;connectable=0;" parent="1" vertex="1">
          <mxGeometry x="40" y="520" width="40" height="40" as="geometry" />
        </mxCell>
        <mxCell id="9aJ4kUpK9t7uexoVAxs4-78" value="" style="whiteSpace=wrap;html=1;aspect=fixed;movable=0;resizable=0;rotatable=0;deletable=0;editable=0;locked=1;connectable=0;" parent="1" vertex="1">
          <mxGeometry x="80" y="520" width="40" height="40" as="geometry" />
        </mxCell>
        <mxCell id="9aJ4kUpK9t7uexoVAxs4-79" value="" style="whiteSpace=wrap;html=1;aspect=fixed;movable=0;resizable=0;rotatable=0;deletable=0;editable=0;locked=1;connectable=0;" parent="1" vertex="1">
          <mxGeometry x="120" y="520" width="40" height="40" as="geometry" />
        </mxCell>
        <mxCell id="9aJ4kUpK9t7uexoVAxs4-80" value="" style="whiteSpace=wrap;html=1;aspect=fixed;movable=0;resizable=0;rotatable=0;deletable=0;editable=0;locked=1;connectable=0;" parent="1" vertex="1">
          <mxGeometry x="160" y="520" width="40" height="40" as="geometry" />
        </mxCell>
        <mxCell id="9aJ4kUpK9t7uexoVAxs4-81" value="" style="whiteSpace=wrap;html=1;aspect=fixed;movable=0;resizable=0;rotatable=0;deletable=0;editable=0;locked=1;connectable=0;" parent="1" vertex="1">
          <mxGeometry x="200" y="520" width="40" height="40" as="geometry" />
        </mxCell>
        <mxCell id="9aJ4kUpK9t7uexoVAxs4-82" value="" style="whiteSpace=wrap;html=1;aspect=fixed;movable=0;resizable=0;rotatable=0;deletable=0;editable=0;locked=1;connectable=0;" parent="1" vertex="1">
          <mxGeometry x="240" y="520" width="40" height="40" as="geometry" />
        </mxCell>
        <mxCell id="9aJ4kUpK9t7uexoVAxs4-83" value="" style="whiteSpace=wrap;html=1;aspect=fixed;movable=0;resizable=0;rotatable=0;deletable=0;editable=0;locked=1;connectable=0;" parent="1" vertex="1">
          <mxGeometry x="-120" y="560" width="40" height="40" as="geometry" />
        </mxCell>
        <mxCell id="9aJ4kUpK9t7uexoVAxs4-84" value="" style="whiteSpace=wrap;html=1;aspect=fixed;movable=0;resizable=0;rotatable=0;deletable=0;editable=0;locked=1;connectable=0;" parent="1" vertex="1">
          <mxGeometry x="-80" y="560" width="40" height="40" as="geometry" />
        </mxCell>
        <mxCell id="9aJ4kUpK9t7uexoVAxs4-85" value="" style="whiteSpace=wrap;html=1;aspect=fixed;movable=0;resizable=0;rotatable=0;deletable=0;editable=0;locked=1;connectable=0;" parent="1" vertex="1">
          <mxGeometry x="-40" y="560" width="40" height="40" as="geometry" />
        </mxCell>
        <mxCell id="9aJ4kUpK9t7uexoVAxs4-86" value="" style="whiteSpace=wrap;html=1;aspect=fixed;movable=0;resizable=0;rotatable=0;deletable=0;editable=0;locked=1;connectable=0;" parent="1" vertex="1">
          <mxGeometry y="560" width="40" height="40" as="geometry" />
        </mxCell>
        <mxCell id="9aJ4kUpK9t7uexoVAxs4-87" value="" style="whiteSpace=wrap;html=1;aspect=fixed;movable=0;resizable=0;rotatable=0;deletable=0;editable=0;locked=1;connectable=0;" parent="1" vertex="1">
          <mxGeometry x="40" y="560" width="40" height="40" as="geometry" />
        </mxCell>
        <mxCell id="9aJ4kUpK9t7uexoVAxs4-88" value="" style="whiteSpace=wrap;html=1;aspect=fixed;movable=0;resizable=0;rotatable=0;deletable=0;editable=0;locked=1;connectable=0;" parent="1" vertex="1">
          <mxGeometry x="80" y="560" width="40" height="40" as="geometry" />
        </mxCell>
        <mxCell id="9aJ4kUpK9t7uexoVAxs4-89" value="" style="whiteSpace=wrap;html=1;aspect=fixed;movable=0;resizable=0;rotatable=0;deletable=0;editable=0;locked=1;connectable=0;" parent="1" vertex="1">
          <mxGeometry x="120" y="560" width="40" height="40" as="geometry" />
        </mxCell>
        <mxCell id="9aJ4kUpK9t7uexoVAxs4-90" value="" style="whiteSpace=wrap;html=1;aspect=fixed;movable=0;resizable=0;rotatable=0;deletable=0;editable=0;locked=1;connectable=0;" parent="1" vertex="1">
          <mxGeometry x="160" y="560" width="40" height="40" as="geometry" />
        </mxCell>
        <mxCell id="9aJ4kUpK9t7uexoVAxs4-91" value="" style="whiteSpace=wrap;html=1;aspect=fixed;movable=0;resizable=0;rotatable=0;deletable=0;editable=0;locked=1;connectable=0;" parent="1" vertex="1">
          <mxGeometry x="200" y="560" width="40" height="40" as="geometry" />
        </mxCell>
        <mxCell id="9aJ4kUpK9t7uexoVAxs4-92" value="" style="whiteSpace=wrap;html=1;aspect=fixed;movable=0;resizable=0;rotatable=0;deletable=0;editable=0;locked=1;connectable=0;" parent="1" vertex="1">
          <mxGeometry x="240" y="560" width="40" height="40" as="geometry" />
        </mxCell>
        <mxCell id="9aJ4kUpK9t7uexoVAxs4-93" value="" style="whiteSpace=wrap;html=1;aspect=fixed;movable=0;resizable=0;rotatable=0;deletable=0;editable=0;locked=1;connectable=0;" parent="1" vertex="1">
          <mxGeometry x="-120" y="600" width="40" height="40" as="geometry" />
        </mxCell>
        <mxCell id="9aJ4kUpK9t7uexoVAxs4-94" value="" style="whiteSpace=wrap;html=1;aspect=fixed;movable=0;resizable=0;rotatable=0;deletable=0;editable=0;locked=1;connectable=0;" parent="1" vertex="1">
          <mxGeometry x="-80" y="600" width="40" height="40" as="geometry" />
        </mxCell>
        <mxCell id="9aJ4kUpK9t7uexoVAxs4-95" value="" style="whiteSpace=wrap;html=1;aspect=fixed;movable=0;resizable=0;rotatable=0;deletable=0;editable=0;locked=1;connectable=0;" parent="1" vertex="1">
          <mxGeometry x="-40" y="600" width="40" height="40" as="geometry" />
        </mxCell>
        <mxCell id="9aJ4kUpK9t7uexoVAxs4-96" value="" style="whiteSpace=wrap;html=1;aspect=fixed;movable=0;resizable=0;rotatable=0;deletable=0;editable=0;locked=1;connectable=0;" parent="1" vertex="1">
          <mxGeometry y="600" width="40" height="40" as="geometry" />
        </mxCell>
        <mxCell id="9aJ4kUpK9t7uexoVAxs4-97" value="" style="whiteSpace=wrap;html=1;aspect=fixed;movable=0;resizable=0;rotatable=0;deletable=0;editable=0;locked=1;connectable=0;" parent="1" vertex="1">
          <mxGeometry x="40" y="600" width="40" height="40" as="geometry" />
        </mxCell>
        <mxCell id="9aJ4kUpK9t7uexoVAxs4-98" value="" style="whiteSpace=wrap;html=1;aspect=fixed;movable=0;resizable=0;rotatable=0;deletable=0;editable=0;locked=1;connectable=0;" parent="1" vertex="1">
          <mxGeometry x="80" y="600" width="40" height="40" as="geometry" />
        </mxCell>
        <mxCell id="9aJ4kUpK9t7uexoVAxs4-99" value="" style="whiteSpace=wrap;html=1;aspect=fixed;movable=0;resizable=0;rotatable=0;deletable=0;editable=0;locked=1;connectable=0;" parent="1" vertex="1">
          <mxGeometry x="120" y="600" width="40" height="40" as="geometry" />
        </mxCell>
        <mxCell id="9aJ4kUpK9t7uexoVAxs4-100" value="" style="whiteSpace=wrap;html=1;aspect=fixed;movable=0;resizable=0;rotatable=0;deletable=0;editable=0;locked=1;connectable=0;" parent="1" vertex="1">
          <mxGeometry x="160" y="600" width="40" height="40" as="geometry" />
        </mxCell>
        <mxCell id="9aJ4kUpK9t7uexoVAxs4-101" value="" style="whiteSpace=wrap;html=1;aspect=fixed;movable=0;resizable=0;rotatable=0;deletable=0;editable=0;locked=1;connectable=0;" parent="1" vertex="1">
          <mxGeometry x="200" y="600" width="40" height="40" as="geometry" />
        </mxCell>
        <mxCell id="9aJ4kUpK9t7uexoVAxs4-102" value="" style="whiteSpace=wrap;html=1;aspect=fixed;movable=0;resizable=0;rotatable=0;deletable=0;editable=0;locked=1;connectable=0;" parent="1" vertex="1">
          <mxGeometry x="240" y="600" width="40" height="40" as="geometry" />
        </mxCell>
        <mxCell id="9aJ4kUpK9t7uexoVAxs4-103" value="" style="whiteSpace=wrap;html=1;aspect=fixed;movable=0;resizable=0;rotatable=0;deletable=0;editable=0;locked=1;connectable=0;" parent="1" vertex="1">
          <mxGeometry x="-120" y="640" width="40" height="40" as="geometry" />
        </mxCell>
        <mxCell id="9aJ4kUpK9t7uexoVAxs4-104" value="" style="whiteSpace=wrap;html=1;aspect=fixed;movable=0;resizable=0;rotatable=0;deletable=0;editable=0;locked=1;connectable=0;" parent="1" vertex="1">
          <mxGeometry x="-80" y="640" width="40" height="40" as="geometry" />
        </mxCell>
        <mxCell id="9aJ4kUpK9t7uexoVAxs4-105" value="" style="whiteSpace=wrap;html=1;aspect=fixed;movable=0;resizable=0;rotatable=0;deletable=0;editable=0;locked=1;connectable=0;" parent="1" vertex="1">
          <mxGeometry x="-40" y="640" width="40" height="40" as="geometry" />
        </mxCell>
        <mxCell id="9aJ4kUpK9t7uexoVAxs4-106" value="" style="whiteSpace=wrap;html=1;aspect=fixed;movable=0;resizable=0;rotatable=0;deletable=0;editable=0;locked=1;connectable=0;" parent="1" vertex="1">
          <mxGeometry y="640" width="40" height="40" as="geometry" />
        </mxCell>
        <mxCell id="9aJ4kUpK9t7uexoVAxs4-107" value="" style="whiteSpace=wrap;html=1;aspect=fixed;movable=0;resizable=0;rotatable=0;deletable=0;editable=0;locked=1;connectable=0;" parent="1" vertex="1">
          <mxGeometry x="40" y="640" width="40" height="40" as="geometry" />
        </mxCell>
        <mxCell id="9aJ4kUpK9t7uexoVAxs4-108" value="" style="whiteSpace=wrap;html=1;aspect=fixed;movable=0;resizable=0;rotatable=0;deletable=0;editable=0;locked=1;connectable=0;" parent="1" vertex="1">
          <mxGeometry x="80" y="640" width="40" height="40" as="geometry" />
        </mxCell>
        <mxCell id="9aJ4kUpK9t7uexoVAxs4-109" value="" style="whiteSpace=wrap;html=1;aspect=fixed;movable=0;resizable=0;rotatable=0;deletable=0;editable=0;locked=1;connectable=0;" parent="1" vertex="1">
          <mxGeometry x="120" y="640" width="40" height="40" as="geometry" />
        </mxCell>
        <mxCell id="9aJ4kUpK9t7uexoVAxs4-110" value="" style="whiteSpace=wrap;html=1;aspect=fixed;movable=0;resizable=0;rotatable=0;deletable=0;editable=0;locked=1;connectable=0;" parent="1" vertex="1">
          <mxGeometry x="160" y="640" width="40" height="40" as="geometry" />
        </mxCell>
        <mxCell id="9aJ4kUpK9t7uexoVAxs4-111" value="" style="whiteSpace=wrap;html=1;aspect=fixed;movable=0;resizable=0;rotatable=0;deletable=0;editable=0;locked=1;connectable=0;" parent="1" vertex="1">
          <mxGeometry x="200" y="640" width="40" height="40" as="geometry" />
        </mxCell>
        <mxCell id="9aJ4kUpK9t7uexoVAxs4-112" value="" style="whiteSpace=wrap;html=1;aspect=fixed;movable=0;resizable=0;rotatable=0;deletable=0;editable=0;locked=1;connectable=0;" parent="1" vertex="1">
          <mxGeometry x="240" y="640" width="40" height="40" as="geometry" />
        </mxCell>
        <mxCell id="9aJ4kUpK9t7uexoVAxs4-113" value="" style="whiteSpace=wrap;html=1;aspect=fixed;movable=0;resizable=0;rotatable=0;deletable=0;editable=0;locked=1;connectable=0;" parent="1" vertex="1">
          <mxGeometry x="-120" y="680" width="40" height="40" as="geometry" />
        </mxCell>
        <mxCell id="9aJ4kUpK9t7uexoVAxs4-114" value="" style="whiteSpace=wrap;html=1;aspect=fixed;movable=0;resizable=0;rotatable=0;deletable=0;editable=0;locked=1;connectable=0;" parent="1" vertex="1">
          <mxGeometry x="-80" y="680" width="40" height="40" as="geometry" />
        </mxCell>
        <mxCell id="9aJ4kUpK9t7uexoVAxs4-115" value="" style="whiteSpace=wrap;html=1;aspect=fixed;movable=0;resizable=0;rotatable=0;deletable=0;editable=0;locked=1;connectable=0;" parent="1" vertex="1">
          <mxGeometry x="-40" y="680" width="40" height="40" as="geometry" />
        </mxCell>
        <mxCell id="9aJ4kUpK9t7uexoVAxs4-116" value="" style="whiteSpace=wrap;html=1;aspect=fixed;movable=0;resizable=0;rotatable=0;deletable=0;editable=0;locked=1;connectable=0;" parent="1" vertex="1">
          <mxGeometry y="680" width="40" height="40" as="geometry" />
        </mxCell>
        <mxCell id="9aJ4kUpK9t7uexoVAxs4-117" value="" style="whiteSpace=wrap;html=1;aspect=fixed;movable=0;resizable=0;rotatable=0;deletable=0;editable=0;locked=1;connectable=0;" parent="1" vertex="1">
          <mxGeometry x="40" y="680" width="40" height="40" as="geometry" />
        </mxCell>
        <mxCell id="9aJ4kUpK9t7uexoVAxs4-118" value="" style="whiteSpace=wrap;html=1;aspect=fixed;movable=0;resizable=0;rotatable=0;deletable=0;editable=0;locked=1;connectable=0;" parent="1" vertex="1">
          <mxGeometry x="80" y="680" width="40" height="40" as="geometry" />
        </mxCell>
        <mxCell id="9aJ4kUpK9t7uexoVAxs4-119" value="" style="whiteSpace=wrap;html=1;aspect=fixed;movable=0;resizable=0;rotatable=0;deletable=0;editable=0;locked=1;connectable=0;" parent="1" vertex="1">
          <mxGeometry x="120" y="680" width="40" height="40" as="geometry" />
        </mxCell>
        <mxCell id="9aJ4kUpK9t7uexoVAxs4-120" value="" style="whiteSpace=wrap;html=1;aspect=fixed;movable=0;resizable=0;rotatable=0;deletable=0;editable=0;locked=1;connectable=0;" parent="1" vertex="1">
          <mxGeometry x="160" y="680" width="40" height="40" as="geometry" />
        </mxCell>
        <mxCell id="9aJ4kUpK9t7uexoVAxs4-121" value="" style="whiteSpace=wrap;html=1;aspect=fixed;movable=0;resizable=0;rotatable=0;deletable=0;editable=0;locked=1;connectable=0;" parent="1" vertex="1">
          <mxGeometry x="200" y="680" width="40" height="40" as="geometry" />
        </mxCell>
        <mxCell id="9aJ4kUpK9t7uexoVAxs4-122" value="" style="whiteSpace=wrap;html=1;aspect=fixed;movable=0;resizable=0;rotatable=0;deletable=0;editable=0;locked=1;connectable=0;" parent="1" vertex="1">
          <mxGeometry x="240" y="680" width="40" height="40" as="geometry" />
        </mxCell>
        <mxCell id="9aJ4kUpK9t7uexoVAxs4-123" value="" style="whiteSpace=wrap;html=1;aspect=fixed;movable=0;resizable=0;rotatable=0;deletable=0;editable=0;locked=1;connectable=0;" parent="1" vertex="1">
          <mxGeometry x="-120" y="720" width="40" height="40" as="geometry" />
        </mxCell>
        <mxCell id="9aJ4kUpK9t7uexoVAxs4-124" value="" style="whiteSpace=wrap;html=1;aspect=fixed;movable=0;resizable=0;rotatable=0;deletable=0;editable=0;locked=1;connectable=0;" parent="1" vertex="1">
          <mxGeometry x="-80" y="720" width="40" height="40" as="geometry" />
        </mxCell>
        <mxCell id="9aJ4kUpK9t7uexoVAxs4-125" value="" style="whiteSpace=wrap;html=1;aspect=fixed;movable=0;resizable=0;rotatable=0;deletable=0;editable=0;locked=1;connectable=0;" parent="1" vertex="1">
          <mxGeometry x="-40" y="720" width="40" height="40" as="geometry" />
        </mxCell>
        <mxCell id="9aJ4kUpK9t7uexoVAxs4-126" value="" style="whiteSpace=wrap;html=1;aspect=fixed;movable=0;resizable=0;rotatable=0;deletable=0;editable=0;locked=1;connectable=0;" parent="1" vertex="1">
          <mxGeometry y="720" width="40" height="40" as="geometry" />
        </mxCell>
        <mxCell id="9aJ4kUpK9t7uexoVAxs4-127" value="" style="whiteSpace=wrap;html=1;aspect=fixed;movable=0;resizable=0;rotatable=0;deletable=0;editable=0;locked=1;connectable=0;" parent="1" vertex="1">
          <mxGeometry x="40" y="720" width="40" height="40" as="geometry" />
        </mxCell>
        <mxCell id="9aJ4kUpK9t7uexoVAxs4-128" value="" style="whiteSpace=wrap;html=1;aspect=fixed;movable=0;resizable=0;rotatable=0;deletable=0;editable=0;locked=1;connectable=0;" parent="1" vertex="1">
          <mxGeometry x="80" y="720" width="40" height="40" as="geometry" />
        </mxCell>
        <mxCell id="9aJ4kUpK9t7uexoVAxs4-129" value="" style="whiteSpace=wrap;html=1;aspect=fixed;movable=0;resizable=0;rotatable=0;deletable=0;editable=0;locked=1;connectable=0;" parent="1" vertex="1">
          <mxGeometry x="120" y="720" width="40" height="40" as="geometry" />
        </mxCell>
        <mxCell id="9aJ4kUpK9t7uexoVAxs4-130" value="" style="whiteSpace=wrap;html=1;aspect=fixed;movable=0;resizable=0;rotatable=0;deletable=0;editable=0;locked=1;connectable=0;" parent="1" vertex="1">
          <mxGeometry x="160" y="720" width="40" height="40" as="geometry" />
        </mxCell>
        <mxCell id="9aJ4kUpK9t7uexoVAxs4-131" value="" style="whiteSpace=wrap;html=1;aspect=fixed;movable=0;resizable=0;rotatable=0;deletable=0;editable=0;locked=1;connectable=0;" parent="1" vertex="1">
          <mxGeometry x="200" y="720" width="40" height="40" as="geometry" />
        </mxCell>
        <mxCell id="9aJ4kUpK9t7uexoVAxs4-132" value="" style="whiteSpace=wrap;html=1;aspect=fixed;movable=0;resizable=0;rotatable=0;deletable=0;editable=0;locked=1;connectable=0;" parent="1" vertex="1">
          <mxGeometry x="240" y="720" width="40" height="40" as="geometry" />
        </mxCell>
        <mxCell id="9aJ4kUpK9t7uexoVAxs4-133" value="" style="whiteSpace=wrap;html=1;aspect=fixed;movable=0;resizable=0;rotatable=0;deletable=0;editable=0;locked=1;connectable=0;" parent="1" vertex="1">
          <mxGeometry x="-120" y="760" width="40" height="40" as="geometry" />
        </mxCell>
        <mxCell id="9aJ4kUpK9t7uexoVAxs4-134" value="" style="whiteSpace=wrap;html=1;aspect=fixed;movable=0;resizable=0;rotatable=0;deletable=0;editable=0;locked=1;connectable=0;" parent="1" vertex="1">
          <mxGeometry x="-80" y="760" width="40" height="40" as="geometry" />
        </mxCell>
        <mxCell id="9aJ4kUpK9t7uexoVAxs4-135" value="" style="whiteSpace=wrap;html=1;aspect=fixed;movable=0;resizable=0;rotatable=0;deletable=0;editable=0;locked=1;connectable=0;" parent="1" vertex="1">
          <mxGeometry x="-40" y="760" width="40" height="40" as="geometry" />
        </mxCell>
        <mxCell id="9aJ4kUpK9t7uexoVAxs4-136" value="" style="whiteSpace=wrap;html=1;aspect=fixed;movable=0;resizable=0;rotatable=0;deletable=0;editable=0;locked=1;connectable=0;" parent="1" vertex="1">
          <mxGeometry y="760" width="40" height="40" as="geometry" />
        </mxCell>
        <mxCell id="9aJ4kUpK9t7uexoVAxs4-137" value="" style="whiteSpace=wrap;html=1;aspect=fixed;movable=0;resizable=0;rotatable=0;deletable=0;editable=0;locked=1;connectable=0;" parent="1" vertex="1">
          <mxGeometry x="40" y="760" width="40" height="40" as="geometry" />
        </mxCell>
        <mxCell id="9aJ4kUpK9t7uexoVAxs4-138" value="" style="whiteSpace=wrap;html=1;aspect=fixed;movable=0;resizable=0;rotatable=0;deletable=0;editable=0;locked=1;connectable=0;" parent="1" vertex="1">
          <mxGeometry x="80" y="760" width="40" height="40" as="geometry" />
        </mxCell>
        <mxCell id="9aJ4kUpK9t7uexoVAxs4-139" value="" style="whiteSpace=wrap;html=1;aspect=fixed;movable=0;resizable=0;rotatable=0;deletable=0;editable=0;locked=1;connectable=0;" parent="1" vertex="1">
          <mxGeometry x="120" y="760" width="40" height="40" as="geometry" />
        </mxCell>
        <mxCell id="9aJ4kUpK9t7uexoVAxs4-140" value="" style="whiteSpace=wrap;html=1;aspect=fixed;movable=0;resizable=0;rotatable=0;deletable=0;editable=0;locked=1;connectable=0;" parent="1" vertex="1">
          <mxGeometry x="160" y="760" width="40" height="40" as="geometry" />
        </mxCell>
        <mxCell id="9aJ4kUpK9t7uexoVAxs4-141" value="" style="whiteSpace=wrap;html=1;aspect=fixed;movable=0;resizable=0;rotatable=0;deletable=0;editable=0;locked=1;connectable=0;" parent="1" vertex="1">
          <mxGeometry x="200" y="760" width="40" height="40" as="geometry" />
        </mxCell>
        <mxCell id="9aJ4kUpK9t7uexoVAxs4-142" value="" style="whiteSpace=wrap;html=1;aspect=fixed;movable=0;resizable=0;rotatable=0;deletable=0;editable=0;locked=1;connectable=0;" parent="1" vertex="1">
          <mxGeometry x="240" y="760" width="40" height="40" as="geometry" />
        </mxCell>
        <mxCell id="9aJ4kUpK9t7uexoVAxs4-143" value="" style="whiteSpace=wrap;html=1;aspect=fixed;movable=0;resizable=0;rotatable=0;deletable=0;editable=0;locked=1;connectable=0;" parent="1" vertex="1">
          <mxGeometry x="-120" y="800" width="40" height="40" as="geometry" />
        </mxCell>
        <mxCell id="9aJ4kUpK9t7uexoVAxs4-144" value="" style="whiteSpace=wrap;html=1;aspect=fixed;movable=0;resizable=0;rotatable=0;deletable=0;editable=0;locked=1;connectable=0;" parent="1" vertex="1">
          <mxGeometry x="-80" y="800" width="40" height="40" as="geometry" />
        </mxCell>
        <mxCell id="9aJ4kUpK9t7uexoVAxs4-145" value="" style="whiteSpace=wrap;html=1;aspect=fixed;movable=0;resizable=0;rotatable=0;deletable=0;editable=0;locked=1;connectable=0;" parent="1" vertex="1">
          <mxGeometry x="-40" y="800" width="40" height="40" as="geometry" />
        </mxCell>
        <mxCell id="9aJ4kUpK9t7uexoVAxs4-146" value="" style="whiteSpace=wrap;html=1;aspect=fixed;movable=0;resizable=0;rotatable=0;deletable=0;editable=0;locked=1;connectable=0;" parent="1" vertex="1">
          <mxGeometry y="800" width="40" height="40" as="geometry" />
        </mxCell>
        <mxCell id="9aJ4kUpK9t7uexoVAxs4-147" value="" style="whiteSpace=wrap;html=1;aspect=fixed;movable=0;resizable=0;rotatable=0;deletable=0;editable=0;locked=1;connectable=0;" parent="1" vertex="1">
          <mxGeometry x="40" y="800" width="40" height="40" as="geometry" />
        </mxCell>
        <mxCell id="9aJ4kUpK9t7uexoVAxs4-148" value="" style="whiteSpace=wrap;html=1;aspect=fixed;movable=0;resizable=0;rotatable=0;deletable=0;editable=0;locked=1;connectable=0;" parent="1" vertex="1">
          <mxGeometry x="80" y="800" width="40" height="40" as="geometry" />
        </mxCell>
        <mxCell id="9aJ4kUpK9t7uexoVAxs4-149" value="" style="whiteSpace=wrap;html=1;aspect=fixed;movable=0;resizable=0;rotatable=0;deletable=0;editable=0;locked=1;connectable=0;" parent="1" vertex="1">
          <mxGeometry x="120" y="800" width="40" height="40" as="geometry" />
        </mxCell>
        <mxCell id="9aJ4kUpK9t7uexoVAxs4-150" value="" style="whiteSpace=wrap;html=1;aspect=fixed;movable=0;resizable=0;rotatable=0;deletable=0;editable=0;locked=1;connectable=0;" parent="1" vertex="1">
          <mxGeometry x="160" y="800" width="40" height="40" as="geometry" />
        </mxCell>
        <mxCell id="9aJ4kUpK9t7uexoVAxs4-151" value="" style="whiteSpace=wrap;html=1;aspect=fixed;movable=0;resizable=0;rotatable=0;deletable=0;editable=0;locked=1;connectable=0;" parent="1" vertex="1">
          <mxGeometry x="200" y="800" width="40" height="40" as="geometry" />
        </mxCell>
        <mxCell id="9aJ4kUpK9t7uexoVAxs4-152" value="" style="whiteSpace=wrap;html=1;aspect=fixed;movable=0;resizable=0;rotatable=0;deletable=0;editable=0;locked=1;connectable=0;" parent="1" vertex="1">
          <mxGeometry x="240" y="800" width="40" height="40" as="geometry" />
        </mxCell>
        <mxCell id="9aJ4kUpK9t7uexoVAxs4-153" value="" style="whiteSpace=wrap;html=1;aspect=fixed;movable=0;resizable=0;rotatable=0;deletable=0;editable=0;locked=1;connectable=0;" parent="1" vertex="1">
          <mxGeometry x="-120" y="840" width="40" height="40" as="geometry" />
        </mxCell>
        <mxCell id="9aJ4kUpK9t7uexoVAxs4-154" value="" style="whiteSpace=wrap;html=1;aspect=fixed;movable=0;resizable=0;rotatable=0;deletable=0;editable=0;locked=1;connectable=0;" parent="1" vertex="1">
          <mxGeometry x="-80" y="840" width="40" height="40" as="geometry" />
        </mxCell>
        <mxCell id="9aJ4kUpK9t7uexoVAxs4-155" value="" style="whiteSpace=wrap;html=1;aspect=fixed;movable=0;resizable=0;rotatable=0;deletable=0;editable=0;locked=1;connectable=0;" parent="1" vertex="1">
          <mxGeometry x="-40" y="840" width="40" height="40" as="geometry" />
        </mxCell>
        <mxCell id="9aJ4kUpK9t7uexoVAxs4-156" value="" style="whiteSpace=wrap;html=1;aspect=fixed;movable=0;resizable=0;rotatable=0;deletable=0;editable=0;locked=1;connectable=0;" parent="1" vertex="1">
          <mxGeometry y="840" width="40" height="40" as="geometry" />
        </mxCell>
        <mxCell id="9aJ4kUpK9t7uexoVAxs4-157" value="" style="whiteSpace=wrap;html=1;aspect=fixed;movable=0;resizable=0;rotatable=0;deletable=0;editable=0;locked=1;connectable=0;" parent="1" vertex="1">
          <mxGeometry x="40" y="840" width="40" height="40" as="geometry" />
        </mxCell>
        <mxCell id="9aJ4kUpK9t7uexoVAxs4-158" value="" style="whiteSpace=wrap;html=1;aspect=fixed;movable=0;resizable=0;rotatable=0;deletable=0;editable=0;locked=1;connectable=0;" parent="1" vertex="1">
          <mxGeometry x="80" y="840" width="40" height="40" as="geometry" />
        </mxCell>
        <mxCell id="9aJ4kUpK9t7uexoVAxs4-159" value="" style="whiteSpace=wrap;html=1;aspect=fixed;movable=0;resizable=0;rotatable=0;deletable=0;editable=0;locked=1;connectable=0;" parent="1" vertex="1">
          <mxGeometry x="120" y="840" width="40" height="40" as="geometry" />
        </mxCell>
        <mxCell id="9aJ4kUpK9t7uexoVAxs4-160" value="" style="whiteSpace=wrap;html=1;aspect=fixed;movable=0;resizable=0;rotatable=0;deletable=0;editable=0;locked=1;connectable=0;" parent="1" vertex="1">
          <mxGeometry x="160" y="840" width="40" height="40" as="geometry" />
        </mxCell>
        <mxCell id="9aJ4kUpK9t7uexoVAxs4-161" value="" style="whiteSpace=wrap;html=1;aspect=fixed;movable=0;resizable=0;rotatable=0;deletable=0;editable=0;locked=1;connectable=0;" parent="1" vertex="1">
          <mxGeometry x="200" y="840" width="40" height="40" as="geometry" />
        </mxCell>
        <mxCell id="9aJ4kUpK9t7uexoVAxs4-162" value="" style="whiteSpace=wrap;html=1;aspect=fixed;movable=0;resizable=0;rotatable=0;deletable=0;editable=0;locked=1;connectable=0;" parent="1" vertex="1">
          <mxGeometry x="240" y="840" width="40" height="40" as="geometry" />
        </mxCell>
        <mxCell id="9aJ4kUpK9t7uexoVAxs4-163" value="" style="whiteSpace=wrap;html=1;aspect=fixed;movable=0;resizable=0;rotatable=0;deletable=0;editable=0;locked=1;connectable=0;" parent="1" vertex="1">
          <mxGeometry x="-120" y="80" width="40" height="40" as="geometry" />
        </mxCell>
        <mxCell id="9aJ4kUpK9t7uexoVAxs4-164" value="" style="whiteSpace=wrap;html=1;aspect=fixed;movable=0;resizable=0;rotatable=0;deletable=0;editable=0;locked=1;connectable=0;" parent="1" vertex="1">
          <mxGeometry x="-80" y="80" width="40" height="40" as="geometry" />
        </mxCell>
        <mxCell id="9aJ4kUpK9t7uexoVAxs4-165" value="" style="whiteSpace=wrap;html=1;aspect=fixed;movable=0;resizable=0;rotatable=0;deletable=0;editable=0;locked=1;connectable=0;" parent="1" vertex="1">
          <mxGeometry x="-40" y="80" width="40" height="40" as="geometry" />
        </mxCell>
        <mxCell id="9aJ4kUpK9t7uexoVAxs4-166" value="" style="whiteSpace=wrap;html=1;aspect=fixed;movable=0;resizable=0;rotatable=0;deletable=0;editable=0;locked=1;connectable=0;" parent="1" vertex="1">
          <mxGeometry y="80" width="40" height="40" as="geometry" />
        </mxCell>
        <mxCell id="9aJ4kUpK9t7uexoVAxs4-167" value="" style="whiteSpace=wrap;html=1;aspect=fixed;movable=0;resizable=0;rotatable=0;deletable=0;editable=0;locked=1;connectable=0;" parent="1" vertex="1">
          <mxGeometry x="40" y="80" width="40" height="40" as="geometry" />
        </mxCell>
        <mxCell id="9aJ4kUpK9t7uexoVAxs4-168" value="" style="whiteSpace=wrap;html=1;aspect=fixed;movable=0;resizable=0;rotatable=0;deletable=0;editable=0;locked=1;connectable=0;" parent="1" vertex="1">
          <mxGeometry x="80" y="80" width="40" height="40" as="geometry" />
        </mxCell>
        <mxCell id="9aJ4kUpK9t7uexoVAxs4-169" value="" style="whiteSpace=wrap;html=1;aspect=fixed;movable=0;resizable=0;rotatable=0;deletable=0;editable=0;locked=1;connectable=0;" parent="1" vertex="1">
          <mxGeometry x="120" y="80" width="40" height="40" as="geometry" />
        </mxCell>
        <mxCell id="9aJ4kUpK9t7uexoVAxs4-170" value="" style="whiteSpace=wrap;html=1;aspect=fixed;movable=0;resizable=0;rotatable=0;deletable=0;editable=0;locked=1;connectable=0;" parent="1" vertex="1">
          <mxGeometry x="160" y="80" width="40" height="40" as="geometry" />
        </mxCell>
        <mxCell id="9aJ4kUpK9t7uexoVAxs4-171" value="" style="whiteSpace=wrap;html=1;aspect=fixed;movable=0;resizable=0;rotatable=0;deletable=0;editable=0;locked=1;connectable=0;" parent="1" vertex="1">
          <mxGeometry x="200" y="80" width="40" height="40" as="geometry" />
        </mxCell>
        <mxCell id="9aJ4kUpK9t7uexoVAxs4-172" value="" style="whiteSpace=wrap;html=1;aspect=fixed;movable=0;resizable=0;rotatable=0;deletable=0;editable=0;locked=1;connectable=0;" parent="1" vertex="1">
          <mxGeometry x="240" y="80" width="40" height="40" as="geometry" />
        </mxCell>
        <mxCell id="9aJ4kUpK9t7uexoVAxs4-173" value="" style="whiteSpace=wrap;html=1;aspect=fixed;movable=0;resizable=0;rotatable=0;deletable=0;editable=0;locked=1;connectable=0;" parent="1" vertex="1">
          <mxGeometry x="-120" y="120" width="40" height="40" as="geometry" />
        </mxCell>
        <mxCell id="9aJ4kUpK9t7uexoVAxs4-174" value="" style="whiteSpace=wrap;html=1;aspect=fixed;movable=0;resizable=0;rotatable=0;deletable=0;editable=0;locked=1;connectable=0;" parent="1" vertex="1">
          <mxGeometry x="-80" y="120" width="40" height="40" as="geometry" />
        </mxCell>
        <mxCell id="9aJ4kUpK9t7uexoVAxs4-175" value="" style="whiteSpace=wrap;html=1;aspect=fixed;movable=0;resizable=0;rotatable=0;deletable=0;editable=0;locked=1;connectable=0;" parent="1" vertex="1">
          <mxGeometry x="-40" y="120" width="40" height="40" as="geometry" />
        </mxCell>
        <mxCell id="9aJ4kUpK9t7uexoVAxs4-176" value="" style="whiteSpace=wrap;html=1;aspect=fixed;movable=0;resizable=0;rotatable=0;deletable=0;editable=0;locked=1;connectable=0;" parent="1" vertex="1">
          <mxGeometry y="120" width="40" height="40" as="geometry" />
        </mxCell>
        <mxCell id="9aJ4kUpK9t7uexoVAxs4-177" value="" style="whiteSpace=wrap;html=1;aspect=fixed;movable=0;resizable=0;rotatable=0;deletable=0;editable=0;locked=1;connectable=0;" parent="1" vertex="1">
          <mxGeometry x="40" y="120" width="40" height="40" as="geometry" />
        </mxCell>
        <mxCell id="9aJ4kUpK9t7uexoVAxs4-178" value="" style="whiteSpace=wrap;html=1;aspect=fixed;movable=0;resizable=0;rotatable=0;deletable=0;editable=0;locked=1;connectable=0;" parent="1" vertex="1">
          <mxGeometry x="80" y="120" width="40" height="40" as="geometry" />
        </mxCell>
        <mxCell id="9aJ4kUpK9t7uexoVAxs4-179" value="" style="whiteSpace=wrap;html=1;aspect=fixed;movable=0;resizable=0;rotatable=0;deletable=0;editable=0;locked=1;connectable=0;" parent="1" vertex="1">
          <mxGeometry x="120" y="120" width="40" height="40" as="geometry" />
        </mxCell>
        <mxCell id="9aJ4kUpK9t7uexoVAxs4-180" value="" style="whiteSpace=wrap;html=1;aspect=fixed;movable=0;resizable=0;rotatable=0;deletable=0;editable=0;locked=1;connectable=0;" parent="1" vertex="1">
          <mxGeometry x="160" y="120" width="40" height="40" as="geometry" />
        </mxCell>
        <mxCell id="9aJ4kUpK9t7uexoVAxs4-181" value="" style="whiteSpace=wrap;html=1;aspect=fixed;movable=0;resizable=0;rotatable=0;deletable=0;editable=0;locked=1;connectable=0;" parent="1" vertex="1">
          <mxGeometry x="200" y="120" width="40" height="40" as="geometry" />
        </mxCell>
        <mxCell id="9aJ4kUpK9t7uexoVAxs4-182" value="" style="whiteSpace=wrap;html=1;aspect=fixed;movable=0;resizable=0;rotatable=0;deletable=0;editable=0;locked=1;connectable=0;" parent="1" vertex="1">
          <mxGeometry x="240" y="120" width="40" height="40" as="geometry" />
        </mxCell>
        <mxCell id="9aJ4kUpK9t7uexoVAxs4-183" value="" style="whiteSpace=wrap;html=1;aspect=fixed;movable=0;resizable=0;rotatable=0;deletable=0;editable=0;locked=1;connectable=0;" parent="1" vertex="1">
          <mxGeometry x="-120" y="160" width="40" height="40" as="geometry" />
        </mxCell>
        <mxCell id="9aJ4kUpK9t7uexoVAxs4-184" value="" style="whiteSpace=wrap;html=1;aspect=fixed;movable=0;resizable=0;rotatable=0;deletable=0;editable=0;locked=1;connectable=0;" parent="1" vertex="1">
          <mxGeometry x="-80" y="160" width="40" height="40" as="geometry" />
        </mxCell>
        <mxCell id="9aJ4kUpK9t7uexoVAxs4-185" value="" style="whiteSpace=wrap;html=1;aspect=fixed;movable=0;resizable=0;rotatable=0;deletable=0;editable=0;locked=1;connectable=0;" parent="1" vertex="1">
          <mxGeometry x="-40" y="160" width="40" height="40" as="geometry" />
        </mxCell>
        <mxCell id="9aJ4kUpK9t7uexoVAxs4-186" value="" style="whiteSpace=wrap;html=1;aspect=fixed;movable=0;resizable=0;rotatable=0;deletable=0;editable=0;locked=1;connectable=0;" parent="1" vertex="1">
          <mxGeometry y="160" width="40" height="40" as="geometry" />
        </mxCell>
        <mxCell id="9aJ4kUpK9t7uexoVAxs4-187" value="" style="whiteSpace=wrap;html=1;aspect=fixed;movable=0;resizable=0;rotatable=0;deletable=0;editable=0;locked=1;connectable=0;" parent="1" vertex="1">
          <mxGeometry x="40" y="160" width="40" height="40" as="geometry" />
        </mxCell>
        <mxCell id="9aJ4kUpK9t7uexoVAxs4-188" value="" style="whiteSpace=wrap;html=1;aspect=fixed;movable=0;resizable=0;rotatable=0;deletable=0;editable=0;locked=1;connectable=0;" parent="1" vertex="1">
          <mxGeometry x="80" y="160" width="40" height="40" as="geometry" />
        </mxCell>
        <mxCell id="9aJ4kUpK9t7uexoVAxs4-189" value="" style="whiteSpace=wrap;html=1;aspect=fixed;movable=0;resizable=0;rotatable=0;deletable=0;editable=0;locked=1;connectable=0;" parent="1" vertex="1">
          <mxGeometry x="120" y="160" width="40" height="40" as="geometry" />
        </mxCell>
        <mxCell id="9aJ4kUpK9t7uexoVAxs4-190" value="" style="whiteSpace=wrap;html=1;aspect=fixed;movable=0;resizable=0;rotatable=0;deletable=0;editable=0;locked=1;connectable=0;" parent="1" vertex="1">
          <mxGeometry x="160" y="160" width="40" height="40" as="geometry" />
        </mxCell>
        <mxCell id="9aJ4kUpK9t7uexoVAxs4-191" value="" style="whiteSpace=wrap;html=1;aspect=fixed;movable=0;resizable=0;rotatable=0;deletable=0;editable=0;locked=1;connectable=0;" parent="1" vertex="1">
          <mxGeometry x="200" y="160" width="40" height="40" as="geometry" />
        </mxCell>
        <mxCell id="9aJ4kUpK9t7uexoVAxs4-192" value="" style="whiteSpace=wrap;html=1;aspect=fixed;movable=0;resizable=0;rotatable=0;deletable=0;editable=0;locked=1;connectable=0;" parent="1" vertex="1">
          <mxGeometry x="240" y="160" width="40" height="40" as="geometry" />
        </mxCell>
        <mxCell id="9aJ4kUpK9t7uexoVAxs4-193" value="" style="whiteSpace=wrap;html=1;aspect=fixed;movable=0;resizable=0;rotatable=0;deletable=0;editable=0;locked=1;connectable=0;" parent="1" vertex="1">
          <mxGeometry x="-120" y="200" width="40" height="40" as="geometry" />
        </mxCell>
        <mxCell id="9aJ4kUpK9t7uexoVAxs4-194" value="" style="whiteSpace=wrap;html=1;aspect=fixed;movable=0;resizable=0;rotatable=0;deletable=0;editable=0;locked=1;connectable=0;" parent="1" vertex="1">
          <mxGeometry x="-80" y="200" width="40" height="40" as="geometry" />
        </mxCell>
        <mxCell id="9aJ4kUpK9t7uexoVAxs4-195" value="" style="whiteSpace=wrap;html=1;aspect=fixed;movable=0;resizable=0;rotatable=0;deletable=0;editable=0;locked=1;connectable=0;" parent="1" vertex="1">
          <mxGeometry x="-40" y="200" width="40" height="40" as="geometry" />
        </mxCell>
        <mxCell id="9aJ4kUpK9t7uexoVAxs4-196" value="" style="whiteSpace=wrap;html=1;aspect=fixed;movable=0;resizable=0;rotatable=0;deletable=0;editable=0;locked=1;connectable=0;" parent="1" vertex="1">
          <mxGeometry y="200" width="40" height="40" as="geometry" />
        </mxCell>
        <mxCell id="9aJ4kUpK9t7uexoVAxs4-197" value="" style="whiteSpace=wrap;html=1;aspect=fixed;movable=0;resizable=0;rotatable=0;deletable=0;editable=0;locked=1;connectable=0;" parent="1" vertex="1">
          <mxGeometry x="40" y="200" width="40" height="40" as="geometry" />
        </mxCell>
        <mxCell id="9aJ4kUpK9t7uexoVAxs4-198" value="" style="whiteSpace=wrap;html=1;aspect=fixed;movable=0;resizable=0;rotatable=0;deletable=0;editable=0;locked=1;connectable=0;" parent="1" vertex="1">
          <mxGeometry x="80" y="200" width="40" height="40" as="geometry" />
        </mxCell>
        <mxCell id="9aJ4kUpK9t7uexoVAxs4-199" value="" style="whiteSpace=wrap;html=1;aspect=fixed;movable=0;resizable=0;rotatable=0;deletable=0;editable=0;locked=1;connectable=0;" parent="1" vertex="1">
          <mxGeometry x="120" y="200" width="40" height="40" as="geometry" />
        </mxCell>
        <mxCell id="9aJ4kUpK9t7uexoVAxs4-200" value="" style="whiteSpace=wrap;html=1;aspect=fixed;movable=0;resizable=0;rotatable=0;deletable=0;editable=0;locked=1;connectable=0;" parent="1" vertex="1">
          <mxGeometry x="160" y="200" width="40" height="40" as="geometry" />
        </mxCell>
        <mxCell id="9aJ4kUpK9t7uexoVAxs4-201" value="" style="whiteSpace=wrap;html=1;aspect=fixed;movable=0;resizable=0;rotatable=0;deletable=0;editable=0;locked=1;connectable=0;" parent="1" vertex="1">
          <mxGeometry x="200" y="200" width="40" height="40" as="geometry" />
        </mxCell>
        <mxCell id="9aJ4kUpK9t7uexoVAxs4-202" value="" style="whiteSpace=wrap;html=1;aspect=fixed;movable=0;resizable=0;rotatable=0;deletable=0;editable=0;locked=1;connectable=0;" parent="1" vertex="1">
          <mxGeometry x="240" y="200" width="40" height="40" as="geometry" />
        </mxCell>
        <mxCell id="9aJ4kUpK9t7uexoVAxs4-897" value="" style="shape=hexagon;perimeter=hexagonPerimeter2;whiteSpace=wrap;html=1;fixedSize=1;fillColor=none;fontColor=#ffffff;strokeColor=#B20000;size=20;strokeWidth=9;" parent="1" vertex="1">
          <mxGeometry x="-140" y="800" width="420" height="80" as="geometry" />
        </mxCell>
        <mxCell id="9aJ4kUpK9t7uexoVAxs4-598" value="" style="group;rotation=0;" parent="1" vertex="1" connectable="0">
          <mxGeometry x="1240" y="520" width="160" height="160" as="geometry" />
        </mxCell>
        <mxCell id="9aJ4kUpK9t7uexoVAxs4-599" value="" style="rounded=0;whiteSpace=wrap;html=1;fillColor=#d80073;fontColor=#ffffff;strokeColor=#A50040;fillStyle=hatch;rotation=0;" parent="9aJ4kUpK9t7uexoVAxs4-598" vertex="1">
          <mxGeometry width="160" height="160" as="geometry" />
        </mxCell>
        <mxCell id="9aJ4kUpK9t7uexoVAxs4-600" value="" style="rounded=1;whiteSpace=wrap;html=1;fillStyle=solid;fillColor=#D80073;rotation=0;" parent="9aJ4kUpK9t7uexoVAxs4-598" vertex="1">
          <mxGeometry x="130" y="130" width="20" height="20" as="geometry" />
        </mxCell>
        <mxCell id="9aJ4kUpK9t7uexoVAxs4-601" value="" style="rounded=1;whiteSpace=wrap;html=1;fillStyle=solid;fillColor=#D80073;rotation=0;" parent="9aJ4kUpK9t7uexoVAxs4-598" vertex="1">
          <mxGeometry x="50" y="130" width="20" height="20" as="geometry" />
        </mxCell>
        <mxCell id="9aJ4kUpK9t7uexoVAxs4-602" value="" style="rounded=1;whiteSpace=wrap;html=1;fillStyle=solid;fillColor=#D80073;rotation=0;" parent="9aJ4kUpK9t7uexoVAxs4-598" vertex="1">
          <mxGeometry x="90" y="130" width="20" height="20" as="geometry" />
        </mxCell>
        <mxCell id="9aJ4kUpK9t7uexoVAxs4-603" value="" style="rounded=1;whiteSpace=wrap;html=1;fillStyle=solid;fillColor=#D80073;rotation=0;" parent="9aJ4kUpK9t7uexoVAxs4-598" vertex="1">
          <mxGeometry x="10" y="130" width="20" height="20" as="geometry" />
        </mxCell>
        <mxCell id="9aJ4kUpK9t7uexoVAxs4-604" value="" style="rounded=0;whiteSpace=wrap;html=1;fillColor=#000000;fontColor=#ffffff;strokeColor=#A50040;fillStyle=hatch;" parent="1" vertex="1">
          <mxGeometry x="1240" y="720" width="160" height="160" as="geometry" />
        </mxCell>
        <mxCell id="9aJ4kUpK9t7uexoVAxs4-605" value="" style="group" parent="1" vertex="1" connectable="0">
          <mxGeometry x="640" y="120" width="160" height="160" as="geometry" />
        </mxCell>
        <mxCell id="9aJ4kUpK9t7uexoVAxs4-606" value="" style="rounded=0;whiteSpace=wrap;html=1;fillColor=#FFFF00;fontColor=#ffffff;strokeColor=#A50040;fillStyle=hatch;" parent="9aJ4kUpK9t7uexoVAxs4-605" vertex="1">
          <mxGeometry width="160" height="160" as="geometry" />
        </mxCell>
        <mxCell id="9aJ4kUpK9t7uexoVAxs4-607" value="" style="rounded=1;whiteSpace=wrap;html=1;fillStyle=solid;fillColor=#FFFF00;" parent="9aJ4kUpK9t7uexoVAxs4-605" vertex="1">
          <mxGeometry x="50" y="50" width="20" height="20" as="geometry" />
        </mxCell>
        <mxCell id="9aJ4kUpK9t7uexoVAxs4-608" value="" style="rounded=1;whiteSpace=wrap;html=1;fillStyle=solid;fillColor=#FFFF00;" parent="9aJ4kUpK9t7uexoVAxs4-605" vertex="1">
          <mxGeometry x="50" y="90" width="20" height="20" as="geometry" />
        </mxCell>
        <mxCell id="9aJ4kUpK9t7uexoVAxs4-609" value="" style="rounded=1;whiteSpace=wrap;html=1;fillStyle=solid;fillColor=#FFFF00;" parent="9aJ4kUpK9t7uexoVAxs4-605" vertex="1">
          <mxGeometry x="10" y="130" width="20" height="20" as="geometry" />
        </mxCell>
        <mxCell id="9aJ4kUpK9t7uexoVAxs4-610" value="" style="rounded=1;whiteSpace=wrap;html=1;fillStyle=solid;fillColor=#FFFF00;" parent="9aJ4kUpK9t7uexoVAxs4-605" vertex="1">
          <mxGeometry x="50" y="130" width="20" height="20" as="geometry" />
        </mxCell>
        <mxCell id="9aJ4kUpK9t7uexoVAxs4-611" value="" style="group" parent="1" vertex="1" connectable="0">
          <mxGeometry x="640" y="320" width="160" height="160" as="geometry" />
        </mxCell>
        <mxCell id="9aJ4kUpK9t7uexoVAxs4-612" value="" style="rounded=0;whiteSpace=wrap;html=1;fillColor=#FFFF00;fontColor=#ffffff;strokeColor=#A50040;fillStyle=hatch;" parent="9aJ4kUpK9t7uexoVAxs4-611" vertex="1">
          <mxGeometry width="160" height="160" as="geometry" />
        </mxCell>
        <mxCell id="9aJ4kUpK9t7uexoVAxs4-613" value="" style="rounded=1;whiteSpace=wrap;html=1;fillStyle=solid;fillColor=#FFFF00;" parent="9aJ4kUpK9t7uexoVAxs4-611" vertex="1">
          <mxGeometry x="10" y="90" width="20" height="20" as="geometry" />
        </mxCell>
        <mxCell id="9aJ4kUpK9t7uexoVAxs4-614" value="" style="rounded=1;whiteSpace=wrap;html=1;fillStyle=solid;fillColor=#FFFF00;" parent="9aJ4kUpK9t7uexoVAxs4-611" vertex="1">
          <mxGeometry x="50" y="90" width="20" height="20" as="geometry" />
        </mxCell>
        <mxCell id="9aJ4kUpK9t7uexoVAxs4-615" value="" style="rounded=1;whiteSpace=wrap;html=1;fillStyle=solid;fillColor=#FFFF00;" parent="9aJ4kUpK9t7uexoVAxs4-611" vertex="1">
          <mxGeometry x="90" y="130" width="20" height="20" as="geometry" />
        </mxCell>
        <mxCell id="9aJ4kUpK9t7uexoVAxs4-616" value="" style="rounded=1;whiteSpace=wrap;html=1;fillStyle=solid;fillColor=#FFFF00;" parent="9aJ4kUpK9t7uexoVAxs4-611" vertex="1">
          <mxGeometry x="90" y="90" width="20" height="20" as="geometry" />
        </mxCell>
        <mxCell id="9aJ4kUpK9t7uexoVAxs4-617" value="" style="group" parent="1" vertex="1" connectable="0">
          <mxGeometry x="640" y="520" width="160" height="160" as="geometry" />
        </mxCell>
        <mxCell id="9aJ4kUpK9t7uexoVAxs4-618" value="" style="rounded=0;whiteSpace=wrap;html=1;fillColor=#FFFF00;fontColor=#ffffff;strokeColor=#A50040;fillStyle=hatch;" parent="9aJ4kUpK9t7uexoVAxs4-617" vertex="1">
          <mxGeometry width="160" height="160" as="geometry" />
        </mxCell>
        <mxCell id="9aJ4kUpK9t7uexoVAxs4-619" value="" style="rounded=1;whiteSpace=wrap;html=1;fillStyle=solid;fillColor=#FFFF00;" parent="9aJ4kUpK9t7uexoVAxs4-617" vertex="1">
          <mxGeometry x="50" y="50" width="20" height="20" as="geometry" />
        </mxCell>
        <mxCell id="9aJ4kUpK9t7uexoVAxs4-620" value="" style="rounded=1;whiteSpace=wrap;html=1;fillStyle=solid;fillColor=#FFFF00;" parent="9aJ4kUpK9t7uexoVAxs4-617" vertex="1">
          <mxGeometry x="10" y="50" width="20" height="20" as="geometry" />
        </mxCell>
        <mxCell id="9aJ4kUpK9t7uexoVAxs4-621" value="" style="rounded=1;whiteSpace=wrap;html=1;fillStyle=solid;fillColor=#FFFF00;" parent="9aJ4kUpK9t7uexoVAxs4-617" vertex="1">
          <mxGeometry x="10" y="130" width="20" height="20" as="geometry" />
        </mxCell>
        <mxCell id="9aJ4kUpK9t7uexoVAxs4-622" value="" style="rounded=1;whiteSpace=wrap;html=1;fillStyle=solid;fillColor=#FFFF00;" parent="9aJ4kUpK9t7uexoVAxs4-617" vertex="1">
          <mxGeometry x="10" y="90" width="20" height="20" as="geometry" />
        </mxCell>
        <mxCell id="9aJ4kUpK9t7uexoVAxs4-623" value="" style="group" parent="1" vertex="1" connectable="0">
          <mxGeometry x="640" y="720" width="160" height="160" as="geometry" />
        </mxCell>
        <mxCell id="9aJ4kUpK9t7uexoVAxs4-624" value="" style="rounded=0;whiteSpace=wrap;html=1;fillColor=#FFFF00;fontColor=#ffffff;strokeColor=#A50040;fillStyle=hatch;" parent="9aJ4kUpK9t7uexoVAxs4-623" vertex="1">
          <mxGeometry width="160" height="160" as="geometry" />
        </mxCell>
        <mxCell id="9aJ4kUpK9t7uexoVAxs4-625" value="" style="rounded=1;whiteSpace=wrap;html=1;fillStyle=solid;fillColor=#FFFF00;" parent="9aJ4kUpK9t7uexoVAxs4-623" vertex="1">
          <mxGeometry x="10" y="90" width="20" height="20" as="geometry" />
        </mxCell>
        <mxCell id="9aJ4kUpK9t7uexoVAxs4-626" value="" style="rounded=1;whiteSpace=wrap;html=1;fillStyle=solid;fillColor=#FFFF00;" parent="9aJ4kUpK9t7uexoVAxs4-623" vertex="1">
          <mxGeometry x="90" y="130" width="20" height="20" as="geometry" />
        </mxCell>
        <mxCell id="9aJ4kUpK9t7uexoVAxs4-627" value="" style="rounded=1;whiteSpace=wrap;html=1;fillStyle=solid;fillColor=#FFFF00;" parent="9aJ4kUpK9t7uexoVAxs4-623" vertex="1">
          <mxGeometry x="10" y="130" width="20" height="20" as="geometry" />
        </mxCell>
        <mxCell id="9aJ4kUpK9t7uexoVAxs4-628" value="" style="rounded=1;whiteSpace=wrap;html=1;fillStyle=solid;fillColor=#FFFF00;" parent="9aJ4kUpK9t7uexoVAxs4-623" vertex="1">
          <mxGeometry x="50" y="130" width="20" height="20" as="geometry" />
        </mxCell>
        <mxCell id="9aJ4kUpK9t7uexoVAxs4-629" value="" style="group" parent="1" vertex="1" connectable="0">
          <mxGeometry x="840" y="720" width="160" height="160" as="geometry" />
        </mxCell>
        <mxCell id="9aJ4kUpK9t7uexoVAxs4-630" value="" style="rounded=0;whiteSpace=wrap;html=1;fillColor=#00CC00;fontColor=#ffffff;strokeColor=#A50040;fillStyle=hatch;" parent="9aJ4kUpK9t7uexoVAxs4-629" vertex="1">
          <mxGeometry width="160" height="160" as="geometry" />
        </mxCell>
        <mxCell id="9aJ4kUpK9t7uexoVAxs4-631" value="" style="rounded=1;whiteSpace=wrap;html=1;fillStyle=solid;fillColor=#00CC00;" parent="9aJ4kUpK9t7uexoVAxs4-629" vertex="1">
          <mxGeometry x="90" y="90" width="20" height="20" as="geometry" />
        </mxCell>
        <mxCell id="9aJ4kUpK9t7uexoVAxs4-632" value="" style="rounded=1;whiteSpace=wrap;html=1;fillStyle=solid;fillColor=#00CC00;" parent="9aJ4kUpK9t7uexoVAxs4-629" vertex="1">
          <mxGeometry x="10" y="90" width="20" height="20" as="geometry" />
        </mxCell>
        <mxCell id="9aJ4kUpK9t7uexoVAxs4-633" value="" style="rounded=1;whiteSpace=wrap;html=1;fillStyle=solid;fillColor=#00CC00;" parent="9aJ4kUpK9t7uexoVAxs4-629" vertex="1">
          <mxGeometry x="10" y="130" width="20" height="20" as="geometry" />
        </mxCell>
        <mxCell id="9aJ4kUpK9t7uexoVAxs4-634" value="" style="rounded=1;whiteSpace=wrap;html=1;fillStyle=solid;fillColor=#00CC00;" parent="9aJ4kUpK9t7uexoVAxs4-629" vertex="1">
          <mxGeometry x="50" y="90" width="20" height="20" as="geometry" />
        </mxCell>
        <mxCell id="9aJ4kUpK9t7uexoVAxs4-635" value="" style="group" parent="1" vertex="1" connectable="0">
          <mxGeometry x="840" y="520" width="160" height="160" as="geometry" />
        </mxCell>
        <mxCell id="9aJ4kUpK9t7uexoVAxs4-636" value="" style="rounded=0;whiteSpace=wrap;html=1;fillColor=#00CC00;fontColor=#ffffff;strokeColor=#A50040;fillStyle=hatch;" parent="9aJ4kUpK9t7uexoVAxs4-635" vertex="1">
          <mxGeometry width="160" height="160" as="geometry" />
        </mxCell>
        <mxCell id="9aJ4kUpK9t7uexoVAxs4-637" value="" style="rounded=1;whiteSpace=wrap;html=1;fillStyle=solid;fillColor=#00CC00;" parent="9aJ4kUpK9t7uexoVAxs4-635" vertex="1">
          <mxGeometry x="10" y="50" width="20" height="20" as="geometry" />
        </mxCell>
        <mxCell id="9aJ4kUpK9t7uexoVAxs4-638" value="" style="rounded=1;whiteSpace=wrap;html=1;fillStyle=solid;fillColor=#00CC00;" parent="9aJ4kUpK9t7uexoVAxs4-635" vertex="1">
          <mxGeometry x="50" y="50" width="20" height="20" as="geometry" />
        </mxCell>
        <mxCell id="9aJ4kUpK9t7uexoVAxs4-639" value="" style="rounded=1;whiteSpace=wrap;html=1;fillStyle=solid;fillColor=#00CC00;" parent="9aJ4kUpK9t7uexoVAxs4-635" vertex="1">
          <mxGeometry x="50" y="90" width="20" height="20" as="geometry" />
        </mxCell>
        <mxCell id="9aJ4kUpK9t7uexoVAxs4-640" value="" style="rounded=1;whiteSpace=wrap;html=1;fillStyle=solid;fillColor=#00CC00;" parent="9aJ4kUpK9t7uexoVAxs4-635" vertex="1">
          <mxGeometry x="50" y="130" width="20" height="20" as="geometry" />
        </mxCell>
        <mxCell id="9aJ4kUpK9t7uexoVAxs4-641" value="" style="group" parent="1" vertex="1" connectable="0">
          <mxGeometry x="840" y="320" width="160" height="160" as="geometry" />
        </mxCell>
        <mxCell id="9aJ4kUpK9t7uexoVAxs4-642" value="" style="rounded=0;whiteSpace=wrap;html=1;fillColor=#00CC00;fontColor=#ffffff;strokeColor=#A50040;fillStyle=hatch;" parent="9aJ4kUpK9t7uexoVAxs4-641" vertex="1">
          <mxGeometry width="160" height="160" as="geometry" />
        </mxCell>
        <mxCell id="9aJ4kUpK9t7uexoVAxs4-643" value="" style="rounded=1;whiteSpace=wrap;html=1;fillStyle=solid;fillColor=#00CC00;" parent="9aJ4kUpK9t7uexoVAxs4-641" vertex="1">
          <mxGeometry x="90" y="90" width="20" height="20" as="geometry" />
        </mxCell>
        <mxCell id="9aJ4kUpK9t7uexoVAxs4-644" value="" style="rounded=1;whiteSpace=wrap;html=1;fillStyle=solid;fillColor=#00CC00;" parent="9aJ4kUpK9t7uexoVAxs4-641" vertex="1">
          <mxGeometry x="90" y="130" width="20" height="20" as="geometry" />
        </mxCell>
        <mxCell id="9aJ4kUpK9t7uexoVAxs4-645" value="" style="rounded=1;whiteSpace=wrap;html=1;fillStyle=solid;fillColor=#00CC00;" parent="9aJ4kUpK9t7uexoVAxs4-641" vertex="1">
          <mxGeometry x="10" y="130" width="20" height="20" as="geometry" />
        </mxCell>
        <mxCell id="9aJ4kUpK9t7uexoVAxs4-646" value="" style="rounded=1;whiteSpace=wrap;html=1;fillStyle=solid;fillColor=#00CC00;" parent="9aJ4kUpK9t7uexoVAxs4-641" vertex="1">
          <mxGeometry x="50" y="130" width="20" height="20" as="geometry" />
        </mxCell>
        <mxCell id="9aJ4kUpK9t7uexoVAxs4-647" value="" style="group" parent="1" vertex="1" connectable="0">
          <mxGeometry x="840" y="120" width="160" height="160" as="geometry" />
        </mxCell>
        <mxCell id="9aJ4kUpK9t7uexoVAxs4-648" value="" style="rounded=0;whiteSpace=wrap;html=1;fillColor=#00CC00;fontColor=#ffffff;strokeColor=#A50040;fillStyle=hatch;" parent="9aJ4kUpK9t7uexoVAxs4-647" vertex="1">
          <mxGeometry width="160" height="160" as="geometry" />
        </mxCell>
        <mxCell id="9aJ4kUpK9t7uexoVAxs4-649" value="" style="rounded=1;whiteSpace=wrap;html=1;fillStyle=solid;fillColor=#00CC00;" parent="9aJ4kUpK9t7uexoVAxs4-647" vertex="1">
          <mxGeometry x="10" y="50" width="20" height="20" as="geometry" />
        </mxCell>
        <mxCell id="9aJ4kUpK9t7uexoVAxs4-650" value="" style="rounded=1;whiteSpace=wrap;html=1;fillStyle=solid;fillColor=#00CC00;" parent="9aJ4kUpK9t7uexoVAxs4-647" vertex="1">
          <mxGeometry x="10" y="90" width="20" height="20" as="geometry" />
        </mxCell>
        <mxCell id="9aJ4kUpK9t7uexoVAxs4-651" value="" style="rounded=1;whiteSpace=wrap;html=1;fillStyle=solid;fillColor=#00CC00;" parent="9aJ4kUpK9t7uexoVAxs4-647" vertex="1">
          <mxGeometry x="10" y="130" width="20" height="20" as="geometry" />
        </mxCell>
        <mxCell id="9aJ4kUpK9t7uexoVAxs4-652" value="" style="rounded=1;whiteSpace=wrap;html=1;fillStyle=solid;fillColor=#00CC00;" parent="9aJ4kUpK9t7uexoVAxs4-647" vertex="1">
          <mxGeometry x="50" y="130" width="20" height="20" as="geometry" />
        </mxCell>
        <mxCell id="9aJ4kUpK9t7uexoVAxs4-653" value="" style="group" parent="1" vertex="1" connectable="0">
          <mxGeometry x="1040" y="120" width="160" height="160" as="geometry" />
        </mxCell>
        <mxCell id="9aJ4kUpK9t7uexoVAxs4-654" value="" style="rounded=0;whiteSpace=wrap;html=1;fillColor=#001DBC;fontColor=#ffffff;strokeColor=#A50040;fillStyle=hatch;" parent="9aJ4kUpK9t7uexoVAxs4-653" vertex="1">
          <mxGeometry width="160" height="160" as="geometry" />
        </mxCell>
        <mxCell id="9aJ4kUpK9t7uexoVAxs4-655" value="" style="rounded=1;whiteSpace=wrap;html=1;fillStyle=solid;fillColor=#001DBC;" parent="9aJ4kUpK9t7uexoVAxs4-653" vertex="1">
          <mxGeometry x="10" y="50" width="20" height="20" as="geometry" />
        </mxCell>
        <mxCell id="9aJ4kUpK9t7uexoVAxs4-656" value="" style="rounded=1;whiteSpace=wrap;html=1;fillStyle=solid;fillColor=#001DBC;" parent="9aJ4kUpK9t7uexoVAxs4-653" vertex="1">
          <mxGeometry x="10" y="90" width="20" height="20" as="geometry" />
        </mxCell>
        <mxCell id="9aJ4kUpK9t7uexoVAxs4-657" value="" style="rounded=1;whiteSpace=wrap;html=1;fillStyle=solid;fillColor=#001DBC;" parent="9aJ4kUpK9t7uexoVAxs4-653" vertex="1">
          <mxGeometry x="10" y="130" width="20" height="20" as="geometry" />
        </mxCell>
        <mxCell id="9aJ4kUpK9t7uexoVAxs4-658" value="" style="rounded=1;whiteSpace=wrap;html=1;fillStyle=solid;fillColor=#001DBC;" parent="9aJ4kUpK9t7uexoVAxs4-653" vertex="1">
          <mxGeometry x="50" y="90" width="20" height="20" as="geometry" />
        </mxCell>
        <mxCell id="9aJ4kUpK9t7uexoVAxs4-659" value="" style="group" parent="1" vertex="1" connectable="0">
          <mxGeometry x="1240" y="120" width="160" height="160" as="geometry" />
        </mxCell>
        <mxCell id="9aJ4kUpK9t7uexoVAxs4-660" value="" style="rounded=0;whiteSpace=wrap;html=1;fillColor=#00FFFF;fontColor=#ffffff;strokeColor=#A50040;fillStyle=hatch;" parent="9aJ4kUpK9t7uexoVAxs4-659" vertex="1">
          <mxGeometry width="160" height="160" as="geometry" />
        </mxCell>
        <mxCell id="9aJ4kUpK9t7uexoVAxs4-661" value="" style="rounded=1;whiteSpace=wrap;html=1;fillStyle=solid;fillColor=#00FFFF;" parent="9aJ4kUpK9t7uexoVAxs4-659" vertex="1">
          <mxGeometry x="50" y="90" width="20" height="20" as="geometry" />
        </mxCell>
        <mxCell id="9aJ4kUpK9t7uexoVAxs4-662" value="" style="rounded=1;whiteSpace=wrap;html=1;fillStyle=solid;fillColor=#00FFFF;" parent="9aJ4kUpK9t7uexoVAxs4-659" vertex="1">
          <mxGeometry x="50" y="130" width="20" height="20" as="geometry" />
        </mxCell>
        <mxCell id="9aJ4kUpK9t7uexoVAxs4-663" value="" style="rounded=1;whiteSpace=wrap;html=1;fillStyle=solid;fillColor=#00FFFF;" parent="9aJ4kUpK9t7uexoVAxs4-659" vertex="1">
          <mxGeometry x="10" y="90" width="20" height="20" as="geometry" />
        </mxCell>
        <mxCell id="9aJ4kUpK9t7uexoVAxs4-664" value="" style="rounded=1;whiteSpace=wrap;html=1;fillStyle=solid;fillColor=#00FFFF;" parent="9aJ4kUpK9t7uexoVAxs4-659" vertex="1">
          <mxGeometry x="10" y="130" width="20" height="20" as="geometry" />
        </mxCell>
        <mxCell id="9aJ4kUpK9t7uexoVAxs4-665" value="" style="group" parent="1" vertex="1" connectable="0">
          <mxGeometry x="1240" y="320" width="160" height="160" as="geometry" />
        </mxCell>
        <mxCell id="9aJ4kUpK9t7uexoVAxs4-666" value="" style="rounded=0;whiteSpace=wrap;html=1;fillColor=#d80073;fontColor=#ffffff;strokeColor=#A50040;fillStyle=hatch;" parent="9aJ4kUpK9t7uexoVAxs4-665" vertex="1">
          <mxGeometry width="160" height="160" as="geometry" />
        </mxCell>
        <mxCell id="9aJ4kUpK9t7uexoVAxs4-667" value="" style="rounded=1;whiteSpace=wrap;html=1;fillStyle=solid;fillColor=#D80073;" parent="9aJ4kUpK9t7uexoVAxs4-665" vertex="1">
          <mxGeometry x="10" y="10" width="20" height="20" as="geometry" />
        </mxCell>
        <mxCell id="9aJ4kUpK9t7uexoVAxs4-668" value="" style="rounded=1;whiteSpace=wrap;html=1;fillStyle=solid;fillColor=#D80073;" parent="9aJ4kUpK9t7uexoVAxs4-665" vertex="1">
          <mxGeometry x="10" y="50" width="20" height="20" as="geometry" />
        </mxCell>
        <mxCell id="9aJ4kUpK9t7uexoVAxs4-669" value="" style="rounded=1;whiteSpace=wrap;html=1;fillStyle=solid;fillColor=#D80073;" parent="9aJ4kUpK9t7uexoVAxs4-665" vertex="1">
          <mxGeometry x="10" y="90" width="20" height="20" as="geometry" />
        </mxCell>
        <mxCell id="9aJ4kUpK9t7uexoVAxs4-670" value="" style="rounded=1;whiteSpace=wrap;html=1;fillStyle=solid;fillColor=#D80073;" parent="9aJ4kUpK9t7uexoVAxs4-665" vertex="1">
          <mxGeometry x="10" y="130" width="20" height="20" as="geometry" />
        </mxCell>
        <mxCell id="9aJ4kUpK9t7uexoVAxs4-671" value="" style="group" parent="1" vertex="1" connectable="0">
          <mxGeometry x="1040" y="320" width="160" height="160" as="geometry" />
        </mxCell>
        <mxCell id="9aJ4kUpK9t7uexoVAxs4-672" value="" style="rounded=0;whiteSpace=wrap;html=1;fillColor=#001DBC;fontColor=#ffffff;strokeColor=#A50040;fillStyle=hatch;" parent="9aJ4kUpK9t7uexoVAxs4-671" vertex="1">
          <mxGeometry width="160" height="160" as="geometry" />
        </mxCell>
        <mxCell id="9aJ4kUpK9t7uexoVAxs4-673" value="" style="rounded=1;whiteSpace=wrap;html=1;fillStyle=solid;fillColor=#001DBC;" parent="9aJ4kUpK9t7uexoVAxs4-671" vertex="1">
          <mxGeometry x="90" y="130" width="20" height="20" as="geometry" />
        </mxCell>
        <mxCell id="9aJ4kUpK9t7uexoVAxs4-674" value="" style="rounded=1;whiteSpace=wrap;html=1;fillStyle=solid;fillColor=#001DBC;" parent="9aJ4kUpK9t7uexoVAxs4-671" vertex="1">
          <mxGeometry x="50" y="130" width="20" height="20" as="geometry" />
        </mxCell>
        <mxCell id="9aJ4kUpK9t7uexoVAxs4-675" value="" style="rounded=1;whiteSpace=wrap;html=1;fillStyle=solid;fillColor=#001DBC;" parent="9aJ4kUpK9t7uexoVAxs4-671" vertex="1">
          <mxGeometry x="10" y="130" width="20" height="20" as="geometry" />
        </mxCell>
        <mxCell id="9aJ4kUpK9t7uexoVAxs4-676" value="" style="rounded=1;whiteSpace=wrap;html=1;fillStyle=solid;fillColor=#001DBC;" parent="9aJ4kUpK9t7uexoVAxs4-671" vertex="1">
          <mxGeometry x="50" y="90" width="20" height="20" as="geometry" />
        </mxCell>
        <mxCell id="9aJ4kUpK9t7uexoVAxs4-677" value="" style="group" parent="1" vertex="1" connectable="0">
          <mxGeometry x="1040" y="520" width="160" height="160" as="geometry" />
        </mxCell>
        <mxCell id="9aJ4kUpK9t7uexoVAxs4-678" value="" style="rounded=0;whiteSpace=wrap;html=1;fillColor=#001DBC;fontColor=#ffffff;strokeColor=#A50040;fillStyle=hatch;" parent="9aJ4kUpK9t7uexoVAxs4-677" vertex="1">
          <mxGeometry width="160" height="160" as="geometry" />
        </mxCell>
        <mxCell id="9aJ4kUpK9t7uexoVAxs4-679" value="" style="rounded=1;whiteSpace=wrap;html=1;fillStyle=solid;fillColor=#001DBC;" parent="9aJ4kUpK9t7uexoVAxs4-677" vertex="1">
          <mxGeometry x="50" y="50" width="20" height="20" as="geometry" />
        </mxCell>
        <mxCell id="9aJ4kUpK9t7uexoVAxs4-680" value="" style="rounded=1;whiteSpace=wrap;html=1;fillStyle=solid;fillColor=#001DBC;" parent="9aJ4kUpK9t7uexoVAxs4-677" vertex="1">
          <mxGeometry x="10" y="90" width="20" height="20" as="geometry" />
        </mxCell>
        <mxCell id="9aJ4kUpK9t7uexoVAxs4-681" value="" style="rounded=1;whiteSpace=wrap;html=1;fillStyle=solid;fillColor=#001DBC;" parent="9aJ4kUpK9t7uexoVAxs4-677" vertex="1">
          <mxGeometry x="50" y="130" width="20" height="20" as="geometry" />
        </mxCell>
        <mxCell id="9aJ4kUpK9t7uexoVAxs4-682" value="" style="rounded=1;whiteSpace=wrap;html=1;fillStyle=solid;fillColor=#001DBC;" parent="9aJ4kUpK9t7uexoVAxs4-677" vertex="1">
          <mxGeometry x="50" y="90" width="20" height="20" as="geometry" />
        </mxCell>
        <mxCell id="9aJ4kUpK9t7uexoVAxs4-683" value="" style="group;fontStyle=4" parent="1" vertex="1" connectable="0">
          <mxGeometry x="1040" y="720" width="160" height="160" as="geometry" />
        </mxCell>
        <mxCell id="9aJ4kUpK9t7uexoVAxs4-684" value="" style="rounded=0;whiteSpace=wrap;html=1;fillColor=#001DBC;fontColor=#ffffff;strokeColor=#A50040;fillStyle=hatch;fontStyle=4" parent="9aJ4kUpK9t7uexoVAxs4-683" vertex="1">
          <mxGeometry width="160" height="160" as="geometry" />
        </mxCell>
        <mxCell id="9aJ4kUpK9t7uexoVAxs4-685" value="" style="rounded=1;whiteSpace=wrap;html=1;fillStyle=solid;fillColor=#001DBC;fontStyle=4" parent="9aJ4kUpK9t7uexoVAxs4-683" vertex="1">
          <mxGeometry x="90" y="90" width="20" height="20" as="geometry" />
        </mxCell>
        <mxCell id="9aJ4kUpK9t7uexoVAxs4-686" value="" style="rounded=1;whiteSpace=wrap;html=1;fillStyle=solid;fillColor=#001DBC;fontStyle=4" parent="9aJ4kUpK9t7uexoVAxs4-683" vertex="1">
          <mxGeometry x="10" y="90" width="20" height="20" as="geometry" />
        </mxCell>
        <mxCell id="9aJ4kUpK9t7uexoVAxs4-687" value="" style="rounded=1;whiteSpace=wrap;html=1;fillStyle=solid;fillColor=#001DBC;fontStyle=4" parent="9aJ4kUpK9t7uexoVAxs4-683" vertex="1">
          <mxGeometry x="50" y="130" width="20" height="20" as="geometry" />
        </mxCell>
        <mxCell id="9aJ4kUpK9t7uexoVAxs4-688" value="" style="rounded=1;whiteSpace=wrap;html=1;fillStyle=solid;fillColor=#001DBC;fontStyle=4" parent="9aJ4kUpK9t7uexoVAxs4-683" vertex="1">
          <mxGeometry x="50" y="90" width="20" height="20" as="geometry" />
        </mxCell>
        <mxCell id="9aJ4kUpK9t7uexoVAxs4-780" value="" style="group;opacity=25;" parent="1" vertex="1" connectable="0">
          <mxGeometry x="-360" y="-40" width="160" height="160" as="geometry" />
        </mxCell>
        <mxCell id="9aJ4kUpK9t7uexoVAxs4-697" value="" style="rounded=0;whiteSpace=wrap;html=1;fillColor=#FFFF00;fontColor=#ffffff;strokeColor=#A50040;fillStyle=hatch;opacity=25;" parent="9aJ4kUpK9t7uexoVAxs4-780" vertex="1">
          <mxGeometry width="160" height="160" as="geometry" />
        </mxCell>
        <mxCell id="9aJ4kUpK9t7uexoVAxs4-698" value="" style="rounded=1;whiteSpace=wrap;html=1;fillStyle=solid;fillColor=#FFFF00;opacity=25;" parent="9aJ4kUpK9t7uexoVAxs4-780" vertex="1">
          <mxGeometry x="50" y="50" width="20" height="20" as="geometry" />
        </mxCell>
        <mxCell id="9aJ4kUpK9t7uexoVAxs4-699" value="" style="rounded=1;whiteSpace=wrap;html=1;fillStyle=solid;fillColor=#FFFF00;opacity=25;" parent="9aJ4kUpK9t7uexoVAxs4-780" vertex="1">
          <mxGeometry x="50" y="90" width="20" height="20" as="geometry" />
        </mxCell>
        <mxCell id="9aJ4kUpK9t7uexoVAxs4-700" value="" style="rounded=1;whiteSpace=wrap;html=1;fillStyle=solid;fillColor=#FFFF00;opacity=25;" parent="9aJ4kUpK9t7uexoVAxs4-780" vertex="1">
          <mxGeometry x="10" y="130" width="20" height="20" as="geometry" />
        </mxCell>
        <mxCell id="9aJ4kUpK9t7uexoVAxs4-701" value="" style="rounded=1;whiteSpace=wrap;html=1;fillStyle=solid;fillColor=#FFFF00;opacity=25;" parent="9aJ4kUpK9t7uexoVAxs4-780" vertex="1">
          <mxGeometry x="50" y="130" width="20" height="20" as="geometry" />
        </mxCell>
        <mxCell id="9aJ4kUpK9t7uexoVAxs4-703" value="" style="rounded=0;whiteSpace=wrap;html=1;fillColor=#FFFF00;fontColor=#ffffff;strokeColor=#A50040;fillStyle=hatch;opacity=25;" parent="9aJ4kUpK9t7uexoVAxs4-780" vertex="1">
          <mxGeometry width="160" height="160" as="geometry" />
        </mxCell>
        <mxCell id="9aJ4kUpK9t7uexoVAxs4-704" value="" style="rounded=1;whiteSpace=wrap;html=1;fillStyle=solid;fillColor=#FFFF00;opacity=25;" parent="9aJ4kUpK9t7uexoVAxs4-780" vertex="1">
          <mxGeometry x="10" y="90" width="20" height="20" as="geometry" />
        </mxCell>
        <mxCell id="9aJ4kUpK9t7uexoVAxs4-705" value="" style="rounded=1;whiteSpace=wrap;html=1;fillStyle=solid;fillColor=#FFFF00;opacity=25;" parent="9aJ4kUpK9t7uexoVAxs4-780" vertex="1">
          <mxGeometry x="50" y="90" width="20" height="20" as="geometry" />
        </mxCell>
        <mxCell id="9aJ4kUpK9t7uexoVAxs4-706" value="" style="rounded=1;whiteSpace=wrap;html=1;fillStyle=solid;fillColor=#FFFF00;opacity=25;" parent="9aJ4kUpK9t7uexoVAxs4-780" vertex="1">
          <mxGeometry x="90" y="130" width="20" height="20" as="geometry" />
        </mxCell>
        <mxCell id="9aJ4kUpK9t7uexoVAxs4-707" value="" style="rounded=1;whiteSpace=wrap;html=1;fillStyle=solid;fillColor=#FFFF00;opacity=25;" parent="9aJ4kUpK9t7uexoVAxs4-780" vertex="1">
          <mxGeometry x="90" y="90" width="20" height="20" as="geometry" />
        </mxCell>
        <mxCell id="9aJ4kUpK9t7uexoVAxs4-709" value="" style="rounded=0;whiteSpace=wrap;html=1;fillColor=#FFFF00;fontColor=#ffffff;strokeColor=#A50040;fillStyle=hatch;opacity=25;" parent="9aJ4kUpK9t7uexoVAxs4-780" vertex="1">
          <mxGeometry width="160" height="160" as="geometry" />
        </mxCell>
        <mxCell id="9aJ4kUpK9t7uexoVAxs4-710" value="" style="rounded=1;whiteSpace=wrap;html=1;fillStyle=solid;fillColor=#FFFF00;opacity=25;" parent="9aJ4kUpK9t7uexoVAxs4-780" vertex="1">
          <mxGeometry x="50" y="50" width="20" height="20" as="geometry" />
        </mxCell>
        <mxCell id="9aJ4kUpK9t7uexoVAxs4-711" value="" style="rounded=1;whiteSpace=wrap;html=1;fillStyle=solid;fillColor=#FFFF00;opacity=25;" parent="9aJ4kUpK9t7uexoVAxs4-780" vertex="1">
          <mxGeometry x="10" y="50" width="20" height="20" as="geometry" />
        </mxCell>
        <mxCell id="9aJ4kUpK9t7uexoVAxs4-712" value="" style="rounded=1;whiteSpace=wrap;html=1;fillStyle=solid;fillColor=#FFFF00;opacity=25;" parent="9aJ4kUpK9t7uexoVAxs4-780" vertex="1">
          <mxGeometry x="10" y="130" width="20" height="20" as="geometry" />
        </mxCell>
        <mxCell id="9aJ4kUpK9t7uexoVAxs4-713" value="" style="rounded=1;whiteSpace=wrap;html=1;fillStyle=solid;fillColor=#FFFF00;opacity=25;" parent="9aJ4kUpK9t7uexoVAxs4-780" vertex="1">
          <mxGeometry x="10" y="90" width="20" height="20" as="geometry" />
        </mxCell>
        <mxCell id="9aJ4kUpK9t7uexoVAxs4-714" value="" style="group;opacity=25;" parent="9aJ4kUpK9t7uexoVAxs4-780" vertex="1" connectable="0">
          <mxGeometry width="160" height="160" as="geometry" />
        </mxCell>
        <mxCell id="9aJ4kUpK9t7uexoVAxs4-715" value="" style="rounded=0;whiteSpace=wrap;html=1;fillColor=#FFFF00;fontColor=#ffffff;strokeColor=#A50040;fillStyle=hatch;opacity=25;" parent="9aJ4kUpK9t7uexoVAxs4-714" vertex="1">
          <mxGeometry width="160" height="160" as="geometry" />
        </mxCell>
        <mxCell id="9aJ4kUpK9t7uexoVAxs4-716" value="" style="rounded=1;whiteSpace=wrap;html=1;fillStyle=solid;fillColor=#FFFF00;opacity=25;" parent="9aJ4kUpK9t7uexoVAxs4-714" vertex="1">
          <mxGeometry x="10" y="90" width="20" height="20" as="geometry" />
        </mxCell>
        <mxCell id="9aJ4kUpK9t7uexoVAxs4-717" value="" style="rounded=1;whiteSpace=wrap;html=1;fillStyle=solid;fillColor=#FFFF00;opacity=25;" parent="9aJ4kUpK9t7uexoVAxs4-714" vertex="1">
          <mxGeometry x="90" y="130" width="20" height="20" as="geometry" />
        </mxCell>
        <mxCell id="9aJ4kUpK9t7uexoVAxs4-718" value="" style="rounded=1;whiteSpace=wrap;html=1;fillStyle=solid;fillColor=#FFFF00;opacity=25;" parent="9aJ4kUpK9t7uexoVAxs4-714" vertex="1">
          <mxGeometry x="10" y="130" width="20" height="20" as="geometry" />
        </mxCell>
        <mxCell id="9aJ4kUpK9t7uexoVAxs4-719" value="" style="rounded=1;whiteSpace=wrap;html=1;fillStyle=solid;fillColor=#FFFF00;opacity=25;" parent="9aJ4kUpK9t7uexoVAxs4-714" vertex="1">
          <mxGeometry x="50" y="130" width="20" height="20" as="geometry" />
        </mxCell>
        <mxCell id="9aJ4kUpK9t7uexoVAxs4-720" value="" style="group;opacity=25;" parent="9aJ4kUpK9t7uexoVAxs4-714" vertex="1" connectable="0">
          <mxGeometry width="160" height="160" as="geometry" />
        </mxCell>
        <mxCell id="9aJ4kUpK9t7uexoVAxs4-721" value="" style="rounded=0;whiteSpace=wrap;html=1;fillColor=#00CC00;fontColor=#ffffff;strokeColor=#A50040;fillStyle=hatch;opacity=25;" parent="9aJ4kUpK9t7uexoVAxs4-720" vertex="1">
          <mxGeometry width="160" height="160" as="geometry" />
        </mxCell>
        <mxCell id="9aJ4kUpK9t7uexoVAxs4-722" value="" style="rounded=1;whiteSpace=wrap;html=1;fillStyle=solid;fillColor=#00CC00;opacity=25;" parent="9aJ4kUpK9t7uexoVAxs4-720" vertex="1">
          <mxGeometry x="90" y="90" width="20" height="20" as="geometry" />
        </mxCell>
        <mxCell id="9aJ4kUpK9t7uexoVAxs4-723" value="" style="rounded=1;whiteSpace=wrap;html=1;fillStyle=solid;fillColor=#00CC00;opacity=25;" parent="9aJ4kUpK9t7uexoVAxs4-720" vertex="1">
          <mxGeometry x="10" y="90" width="20" height="20" as="geometry" />
        </mxCell>
        <mxCell id="9aJ4kUpK9t7uexoVAxs4-724" value="" style="rounded=1;whiteSpace=wrap;html=1;fillStyle=solid;fillColor=#00CC00;opacity=25;" parent="9aJ4kUpK9t7uexoVAxs4-720" vertex="1">
          <mxGeometry x="10" y="130" width="20" height="20" as="geometry" />
        </mxCell>
        <mxCell id="9aJ4kUpK9t7uexoVAxs4-725" value="" style="rounded=1;whiteSpace=wrap;html=1;fillStyle=solid;fillColor=#00CC00;opacity=25;" parent="9aJ4kUpK9t7uexoVAxs4-720" vertex="1">
          <mxGeometry x="50" y="90" width="20" height="20" as="geometry" />
        </mxCell>
        <mxCell id="9aJ4kUpK9t7uexoVAxs4-726" value="" style="group;opacity=25;" parent="9aJ4kUpK9t7uexoVAxs4-714" vertex="1" connectable="0">
          <mxGeometry width="160" height="160" as="geometry" />
        </mxCell>
        <mxCell id="9aJ4kUpK9t7uexoVAxs4-727" value="" style="rounded=0;whiteSpace=wrap;html=1;fillColor=#00CC00;fontColor=#ffffff;strokeColor=#A50040;fillStyle=hatch;opacity=25;" parent="9aJ4kUpK9t7uexoVAxs4-726" vertex="1">
          <mxGeometry width="160" height="160" as="geometry" />
        </mxCell>
        <mxCell id="9aJ4kUpK9t7uexoVAxs4-728" value="" style="rounded=1;whiteSpace=wrap;html=1;fillStyle=solid;fillColor=#00CC00;opacity=25;" parent="9aJ4kUpK9t7uexoVAxs4-726" vertex="1">
          <mxGeometry x="10" y="50" width="20" height="20" as="geometry" />
        </mxCell>
        <mxCell id="9aJ4kUpK9t7uexoVAxs4-729" value="" style="rounded=1;whiteSpace=wrap;html=1;fillStyle=solid;fillColor=#00CC00;opacity=25;" parent="9aJ4kUpK9t7uexoVAxs4-726" vertex="1">
          <mxGeometry x="50" y="50" width="20" height="20" as="geometry" />
        </mxCell>
        <mxCell id="9aJ4kUpK9t7uexoVAxs4-730" value="" style="rounded=1;whiteSpace=wrap;html=1;fillStyle=solid;fillColor=#00CC00;opacity=25;" parent="9aJ4kUpK9t7uexoVAxs4-726" vertex="1">
          <mxGeometry x="50" y="90" width="20" height="20" as="geometry" />
        </mxCell>
        <mxCell id="9aJ4kUpK9t7uexoVAxs4-731" value="" style="rounded=1;whiteSpace=wrap;html=1;fillStyle=solid;fillColor=#00CC00;opacity=25;" parent="9aJ4kUpK9t7uexoVAxs4-726" vertex="1">
          <mxGeometry x="50" y="130" width="20" height="20" as="geometry" />
        </mxCell>
        <mxCell id="9aJ4kUpK9t7uexoVAxs4-732" value="" style="group;opacity=25;" parent="9aJ4kUpK9t7uexoVAxs4-714" vertex="1" connectable="0">
          <mxGeometry width="160" height="160" as="geometry" />
        </mxCell>
        <mxCell id="9aJ4kUpK9t7uexoVAxs4-733" value="" style="rounded=0;whiteSpace=wrap;html=1;fillColor=#00CC00;fontColor=#ffffff;strokeColor=#A50040;fillStyle=hatch;opacity=25;" parent="9aJ4kUpK9t7uexoVAxs4-732" vertex="1">
          <mxGeometry width="160" height="160" as="geometry" />
        </mxCell>
        <mxCell id="9aJ4kUpK9t7uexoVAxs4-734" value="" style="rounded=1;whiteSpace=wrap;html=1;fillStyle=solid;fillColor=#00CC00;opacity=25;" parent="9aJ4kUpK9t7uexoVAxs4-732" vertex="1">
          <mxGeometry x="90" y="90" width="20" height="20" as="geometry" />
        </mxCell>
        <mxCell id="9aJ4kUpK9t7uexoVAxs4-735" value="" style="rounded=1;whiteSpace=wrap;html=1;fillStyle=solid;fillColor=#00CC00;opacity=25;" parent="9aJ4kUpK9t7uexoVAxs4-732" vertex="1">
          <mxGeometry x="90" y="130" width="20" height="20" as="geometry" />
        </mxCell>
        <mxCell id="9aJ4kUpK9t7uexoVAxs4-736" value="" style="rounded=1;whiteSpace=wrap;html=1;fillStyle=solid;fillColor=#00CC00;opacity=25;" parent="9aJ4kUpK9t7uexoVAxs4-732" vertex="1">
          <mxGeometry x="10" y="130" width="20" height="20" as="geometry" />
        </mxCell>
        <mxCell id="9aJ4kUpK9t7uexoVAxs4-737" value="" style="rounded=1;whiteSpace=wrap;html=1;fillStyle=solid;fillColor=#00CC00;opacity=25;" parent="9aJ4kUpK9t7uexoVAxs4-732" vertex="1">
          <mxGeometry x="50" y="130" width="20" height="20" as="geometry" />
        </mxCell>
        <mxCell id="9aJ4kUpK9t7uexoVAxs4-738" value="" style="group;opacity=25;" parent="9aJ4kUpK9t7uexoVAxs4-714" vertex="1" connectable="0">
          <mxGeometry width="160" height="160" as="geometry" />
        </mxCell>
        <mxCell id="9aJ4kUpK9t7uexoVAxs4-739" value="" style="rounded=0;whiteSpace=wrap;html=1;fillColor=#00CC00;fontColor=#ffffff;strokeColor=#A50040;fillStyle=hatch;opacity=25;" parent="9aJ4kUpK9t7uexoVAxs4-738" vertex="1">
          <mxGeometry width="160" height="160" as="geometry" />
        </mxCell>
        <mxCell id="9aJ4kUpK9t7uexoVAxs4-740" value="" style="rounded=1;whiteSpace=wrap;html=1;fillStyle=solid;fillColor=#00CC00;opacity=25;" parent="9aJ4kUpK9t7uexoVAxs4-738" vertex="1">
          <mxGeometry x="10" y="50" width="20" height="20" as="geometry" />
        </mxCell>
        <mxCell id="9aJ4kUpK9t7uexoVAxs4-741" value="" style="rounded=1;whiteSpace=wrap;html=1;fillStyle=solid;fillColor=#00CC00;opacity=25;" parent="9aJ4kUpK9t7uexoVAxs4-738" vertex="1">
          <mxGeometry x="10" y="90" width="20" height="20" as="geometry" />
        </mxCell>
        <mxCell id="9aJ4kUpK9t7uexoVAxs4-742" value="" style="rounded=1;whiteSpace=wrap;html=1;fillStyle=solid;fillColor=#00CC00;opacity=25;" parent="9aJ4kUpK9t7uexoVAxs4-738" vertex="1">
          <mxGeometry x="10" y="130" width="20" height="20" as="geometry" />
        </mxCell>
        <mxCell id="9aJ4kUpK9t7uexoVAxs4-743" value="" style="rounded=1;whiteSpace=wrap;html=1;fillStyle=solid;fillColor=#00CC00;opacity=25;" parent="9aJ4kUpK9t7uexoVAxs4-738" vertex="1">
          <mxGeometry x="50" y="130" width="20" height="20" as="geometry" />
        </mxCell>
        <mxCell id="9aJ4kUpK9t7uexoVAxs4-774" value="" style="group;fontStyle=4;opacity=25;" parent="9aJ4kUpK9t7uexoVAxs4-738" vertex="1" connectable="0">
          <mxGeometry width="160" height="160" as="geometry" />
        </mxCell>
        <mxCell id="9aJ4kUpK9t7uexoVAxs4-775" value="" style="rounded=0;whiteSpace=wrap;html=1;fillColor=#001DBC;fontColor=#ffffff;strokeColor=#A50040;fillStyle=hatch;fontStyle=4;opacity=25;" parent="9aJ4kUpK9t7uexoVAxs4-774" vertex="1">
          <mxGeometry width="160" height="160" as="geometry" />
        </mxCell>
        <mxCell id="9aJ4kUpK9t7uexoVAxs4-776" value="" style="rounded=1;whiteSpace=wrap;html=1;fillStyle=solid;fillColor=#001DBC;fontStyle=4;opacity=25;" parent="9aJ4kUpK9t7uexoVAxs4-774" vertex="1">
          <mxGeometry x="90" y="90" width="20" height="20" as="geometry" />
        </mxCell>
        <mxCell id="9aJ4kUpK9t7uexoVAxs4-777" value="" style="rounded=1;whiteSpace=wrap;html=1;fillStyle=solid;fillColor=#001DBC;fontStyle=4;opacity=25;" parent="9aJ4kUpK9t7uexoVAxs4-774" vertex="1">
          <mxGeometry x="10" y="90" width="20" height="20" as="geometry" />
        </mxCell>
        <mxCell id="9aJ4kUpK9t7uexoVAxs4-778" value="" style="rounded=1;whiteSpace=wrap;html=1;fillStyle=solid;fillColor=#001DBC;fontStyle=4;opacity=25;" parent="9aJ4kUpK9t7uexoVAxs4-774" vertex="1">
          <mxGeometry x="50" y="130" width="20" height="20" as="geometry" />
        </mxCell>
        <mxCell id="9aJ4kUpK9t7uexoVAxs4-779" value="" style="rounded=1;whiteSpace=wrap;html=1;fillStyle=solid;fillColor=#001DBC;fontStyle=4;opacity=25;" parent="9aJ4kUpK9t7uexoVAxs4-774" vertex="1">
          <mxGeometry x="50" y="90" width="20" height="20" as="geometry" />
        </mxCell>
        <mxCell id="9aJ4kUpK9t7uexoVAxs4-768" value="" style="group;opacity=25;" parent="9aJ4kUpK9t7uexoVAxs4-738" vertex="1" connectable="0">
          <mxGeometry width="160" height="160" as="geometry" />
        </mxCell>
        <mxCell id="9aJ4kUpK9t7uexoVAxs4-769" value="" style="rounded=0;whiteSpace=wrap;html=1;fillColor=#001DBC;fontColor=#ffffff;strokeColor=#A50040;fillStyle=hatch;opacity=25;" parent="9aJ4kUpK9t7uexoVAxs4-768" vertex="1">
          <mxGeometry width="160" height="160" as="geometry" />
        </mxCell>
        <mxCell id="9aJ4kUpK9t7uexoVAxs4-770" value="" style="rounded=1;whiteSpace=wrap;html=1;fillStyle=solid;fillColor=#001DBC;opacity=25;" parent="9aJ4kUpK9t7uexoVAxs4-768" vertex="1">
          <mxGeometry x="50" y="50" width="20" height="20" as="geometry" />
        </mxCell>
        <mxCell id="9aJ4kUpK9t7uexoVAxs4-771" value="" style="rounded=1;whiteSpace=wrap;html=1;fillStyle=solid;fillColor=#001DBC;opacity=25;" parent="9aJ4kUpK9t7uexoVAxs4-768" vertex="1">
          <mxGeometry x="10" y="90" width="20" height="20" as="geometry" />
        </mxCell>
        <mxCell id="9aJ4kUpK9t7uexoVAxs4-772" value="" style="rounded=1;whiteSpace=wrap;html=1;fillStyle=solid;fillColor=#001DBC;opacity=25;" parent="9aJ4kUpK9t7uexoVAxs4-768" vertex="1">
          <mxGeometry x="50" y="130" width="20" height="20" as="geometry" />
        </mxCell>
        <mxCell id="9aJ4kUpK9t7uexoVAxs4-773" value="" style="rounded=1;whiteSpace=wrap;html=1;fillStyle=solid;fillColor=#001DBC;opacity=25;" parent="9aJ4kUpK9t7uexoVAxs4-768" vertex="1">
          <mxGeometry x="50" y="90" width="20" height="20" as="geometry" />
        </mxCell>
        <mxCell id="9aJ4kUpK9t7uexoVAxs4-762" value="" style="group;opacity=25;" parent="9aJ4kUpK9t7uexoVAxs4-738" vertex="1" connectable="0">
          <mxGeometry width="160" height="160" as="geometry" />
        </mxCell>
        <mxCell id="9aJ4kUpK9t7uexoVAxs4-763" value="" style="rounded=0;whiteSpace=wrap;html=1;fillColor=#001DBC;fontColor=#ffffff;strokeColor=#A50040;fillStyle=hatch;opacity=25;" parent="9aJ4kUpK9t7uexoVAxs4-762" vertex="1">
          <mxGeometry width="160" height="160" as="geometry" />
        </mxCell>
        <mxCell id="9aJ4kUpK9t7uexoVAxs4-764" value="" style="rounded=1;whiteSpace=wrap;html=1;fillStyle=solid;fillColor=#001DBC;opacity=25;" parent="9aJ4kUpK9t7uexoVAxs4-762" vertex="1">
          <mxGeometry x="90" y="130" width="20" height="20" as="geometry" />
        </mxCell>
        <mxCell id="9aJ4kUpK9t7uexoVAxs4-765" value="" style="rounded=1;whiteSpace=wrap;html=1;fillStyle=solid;fillColor=#001DBC;opacity=25;" parent="9aJ4kUpK9t7uexoVAxs4-762" vertex="1">
          <mxGeometry x="50" y="130" width="20" height="20" as="geometry" />
        </mxCell>
        <mxCell id="9aJ4kUpK9t7uexoVAxs4-766" value="" style="rounded=1;whiteSpace=wrap;html=1;fillStyle=solid;fillColor=#001DBC;opacity=25;" parent="9aJ4kUpK9t7uexoVAxs4-762" vertex="1">
          <mxGeometry x="10" y="130" width="20" height="20" as="geometry" />
        </mxCell>
        <mxCell id="9aJ4kUpK9t7uexoVAxs4-767" value="" style="rounded=1;whiteSpace=wrap;html=1;fillStyle=solid;fillColor=#001DBC;opacity=25;" parent="9aJ4kUpK9t7uexoVAxs4-762" vertex="1">
          <mxGeometry x="50" y="90" width="20" height="20" as="geometry" />
        </mxCell>
        <mxCell id="9aJ4kUpK9t7uexoVAxs4-744" value="" style="group;opacity=25;" parent="9aJ4kUpK9t7uexoVAxs4-738" vertex="1" connectable="0">
          <mxGeometry width="160" height="160" as="geometry" />
        </mxCell>
        <mxCell id="9aJ4kUpK9t7uexoVAxs4-745" value="" style="rounded=0;whiteSpace=wrap;html=1;fillColor=#001DBC;fontColor=#ffffff;strokeColor=#A50040;fillStyle=hatch;opacity=25;" parent="9aJ4kUpK9t7uexoVAxs4-744" vertex="1">
          <mxGeometry width="160" height="160" as="geometry" />
        </mxCell>
        <mxCell id="9aJ4kUpK9t7uexoVAxs4-746" value="" style="rounded=1;whiteSpace=wrap;html=1;fillStyle=solid;fillColor=#001DBC;opacity=25;" parent="9aJ4kUpK9t7uexoVAxs4-744" vertex="1">
          <mxGeometry x="10" y="50" width="20" height="20" as="geometry" />
        </mxCell>
        <mxCell id="9aJ4kUpK9t7uexoVAxs4-747" value="" style="rounded=1;whiteSpace=wrap;html=1;fillStyle=solid;fillColor=#001DBC;opacity=25;" parent="9aJ4kUpK9t7uexoVAxs4-744" vertex="1">
          <mxGeometry x="10" y="90" width="20" height="20" as="geometry" />
        </mxCell>
        <mxCell id="9aJ4kUpK9t7uexoVAxs4-748" value="" style="rounded=1;whiteSpace=wrap;html=1;fillStyle=solid;fillColor=#001DBC;opacity=25;" parent="9aJ4kUpK9t7uexoVAxs4-744" vertex="1">
          <mxGeometry x="10" y="130" width="20" height="20" as="geometry" />
        </mxCell>
        <mxCell id="9aJ4kUpK9t7uexoVAxs4-749" value="" style="rounded=1;whiteSpace=wrap;html=1;fillStyle=solid;fillColor=#001DBC;opacity=25;" parent="9aJ4kUpK9t7uexoVAxs4-744" vertex="1">
          <mxGeometry x="50" y="90" width="20" height="20" as="geometry" />
        </mxCell>
        <mxCell id="9aJ4kUpK9t7uexoVAxs4-689" value="" style="group;rotation=0;opacity=25;" parent="9aJ4kUpK9t7uexoVAxs4-744" vertex="1" connectable="0">
          <mxGeometry width="160" height="160" as="geometry" />
        </mxCell>
        <mxCell id="9aJ4kUpK9t7uexoVAxs4-690" value="" style="rounded=0;whiteSpace=wrap;html=1;fillColor=#d80073;fontColor=#ffffff;strokeColor=#A50040;fillStyle=hatch;rotation=0;opacity=25;" parent="9aJ4kUpK9t7uexoVAxs4-689" vertex="1">
          <mxGeometry width="160" height="160" as="geometry" />
        </mxCell>
        <mxCell id="9aJ4kUpK9t7uexoVAxs4-691" value="" style="rounded=1;whiteSpace=wrap;html=1;fillStyle=solid;fillColor=#D80073;rotation=0;opacity=25;" parent="9aJ4kUpK9t7uexoVAxs4-689" vertex="1">
          <mxGeometry x="130" y="130" width="20" height="20" as="geometry" />
        </mxCell>
        <mxCell id="9aJ4kUpK9t7uexoVAxs4-692" value="" style="rounded=1;whiteSpace=wrap;html=1;fillStyle=solid;fillColor=#D80073;rotation=0;opacity=25;" parent="9aJ4kUpK9t7uexoVAxs4-689" vertex="1">
          <mxGeometry x="50" y="130" width="20" height="20" as="geometry" />
        </mxCell>
        <mxCell id="9aJ4kUpK9t7uexoVAxs4-693" value="" style="rounded=1;whiteSpace=wrap;html=1;fillStyle=solid;fillColor=#D80073;rotation=0;opacity=25;" parent="9aJ4kUpK9t7uexoVAxs4-689" vertex="1">
          <mxGeometry x="90" y="130" width="20" height="20" as="geometry" />
        </mxCell>
        <mxCell id="9aJ4kUpK9t7uexoVAxs4-694" value="" style="rounded=1;whiteSpace=wrap;html=1;fillStyle=solid;fillColor=#D80073;rotation=0;opacity=25;" parent="9aJ4kUpK9t7uexoVAxs4-689" vertex="1">
          <mxGeometry x="10" y="130" width="20" height="20" as="geometry" />
        </mxCell>
        <mxCell id="9aJ4kUpK9t7uexoVAxs4-695" value="" style="rounded=0;whiteSpace=wrap;html=1;fillColor=#000000;fontColor=#ffffff;strokeColor=#A50040;fillStyle=hatch;opacity=25;" parent="9aJ4kUpK9t7uexoVAxs4-744" vertex="1">
          <mxGeometry width="160" height="160" as="geometry" />
        </mxCell>
        <mxCell id="9aJ4kUpK9t7uexoVAxs4-756" value="" style="group;opacity=25;" parent="9aJ4kUpK9t7uexoVAxs4-744" vertex="1" connectable="0">
          <mxGeometry width="160" height="160" as="geometry" />
        </mxCell>
        <mxCell id="9aJ4kUpK9t7uexoVAxs4-757" value="" style="rounded=0;whiteSpace=wrap;html=1;fillColor=#d80073;fontColor=#ffffff;strokeColor=#A50040;fillStyle=hatch;opacity=25;" parent="9aJ4kUpK9t7uexoVAxs4-756" vertex="1">
          <mxGeometry width="160" height="160" as="geometry" />
        </mxCell>
        <mxCell id="9aJ4kUpK9t7uexoVAxs4-758" value="" style="rounded=1;whiteSpace=wrap;html=1;fillStyle=solid;fillColor=#D80073;opacity=25;" parent="9aJ4kUpK9t7uexoVAxs4-756" vertex="1">
          <mxGeometry x="10" y="10" width="20" height="20" as="geometry" />
        </mxCell>
        <mxCell id="9aJ4kUpK9t7uexoVAxs4-759" value="" style="rounded=1;whiteSpace=wrap;html=1;fillStyle=solid;fillColor=#D80073;opacity=25;" parent="9aJ4kUpK9t7uexoVAxs4-756" vertex="1">
          <mxGeometry x="10" y="50" width="20" height="20" as="geometry" />
        </mxCell>
        <mxCell id="9aJ4kUpK9t7uexoVAxs4-760" value="" style="rounded=1;whiteSpace=wrap;html=1;fillStyle=solid;fillColor=#D80073;opacity=25;" parent="9aJ4kUpK9t7uexoVAxs4-756" vertex="1">
          <mxGeometry x="10" y="90" width="20" height="20" as="geometry" />
        </mxCell>
        <mxCell id="9aJ4kUpK9t7uexoVAxs4-761" value="" style="rounded=1;whiteSpace=wrap;html=1;fillStyle=solid;fillColor=#D80073;opacity=25;" parent="9aJ4kUpK9t7uexoVAxs4-756" vertex="1">
          <mxGeometry x="10" y="130" width="20" height="20" as="geometry" />
        </mxCell>
        <mxCell id="9aJ4kUpK9t7uexoVAxs4-750" value="" style="group;opacity=25;" parent="9aJ4kUpK9t7uexoVAxs4-744" vertex="1" connectable="0">
          <mxGeometry width="160" height="160" as="geometry" />
        </mxCell>
        <mxCell id="9aJ4kUpK9t7uexoVAxs4-751" value="" style="rounded=0;whiteSpace=wrap;html=1;fillColor=#00FFFF;fontColor=#ffffff;strokeColor=#A50040;fillStyle=hatch;opacity=25;" parent="9aJ4kUpK9t7uexoVAxs4-750" vertex="1">
          <mxGeometry width="160" height="160" as="geometry" />
        </mxCell>
        <mxCell id="9aJ4kUpK9t7uexoVAxs4-752" value="" style="rounded=1;whiteSpace=wrap;html=1;fillStyle=solid;fillColor=#00FFFF;opacity=25;" parent="9aJ4kUpK9t7uexoVAxs4-750" vertex="1">
          <mxGeometry x="50" y="90" width="20" height="20" as="geometry" />
        </mxCell>
        <mxCell id="9aJ4kUpK9t7uexoVAxs4-753" value="" style="rounded=1;whiteSpace=wrap;html=1;fillStyle=solid;fillColor=#00FFFF;opacity=25;" parent="9aJ4kUpK9t7uexoVAxs4-750" vertex="1">
          <mxGeometry x="50" y="130" width="20" height="20" as="geometry" />
        </mxCell>
        <mxCell id="9aJ4kUpK9t7uexoVAxs4-754" value="" style="rounded=1;whiteSpace=wrap;html=1;fillStyle=solid;fillColor=#00FFFF;opacity=25;" parent="9aJ4kUpK9t7uexoVAxs4-750" vertex="1">
          <mxGeometry x="10" y="90" width="20" height="20" as="geometry" />
        </mxCell>
        <mxCell id="9aJ4kUpK9t7uexoVAxs4-755" value="" style="rounded=1;whiteSpace=wrap;html=1;fillStyle=solid;fillColor=#00FFFF;opacity=25;" parent="9aJ4kUpK9t7uexoVAxs4-750" vertex="1">
          <mxGeometry x="10" y="130" width="20" height="20" as="geometry" />
        </mxCell>
        <mxCell id="5MRvKkOccNVjFImGt6Yf-7" value="" style="group;opacity=25;" vertex="1" connectable="0" parent="9aJ4kUpK9t7uexoVAxs4-750">
          <mxGeometry width="160" height="160" as="geometry" />
        </mxCell>
        <mxCell id="5MRvKkOccNVjFImGt6Yf-8" value="" style="rounded=0;whiteSpace=wrap;html=1;fillColor=#4C0099;fontColor=#ffffff;strokeColor=#A50040;fillStyle=hatch;gradientColor=none;container=0;opacity=25;" vertex="1" parent="5MRvKkOccNVjFImGt6Yf-7">
          <mxGeometry width="160" height="160" as="geometry" />
        </mxCell>
        <mxCell id="5MRvKkOccNVjFImGt6Yf-9" value="" style="rounded=1;whiteSpace=wrap;html=1;fillStyle=solid;fillColor=#4C0099;container=0;opacity=25;" vertex="1" parent="5MRvKkOccNVjFImGt6Yf-7">
          <mxGeometry x="50" y="90" width="20" height="20" as="geometry" />
        </mxCell>
        <mxCell id="5MRvKkOccNVjFImGt6Yf-10" value="" style="rounded=1;whiteSpace=wrap;html=1;fillStyle=solid;fillColor=#4C0099;container=0;opacity=25;" vertex="1" parent="5MRvKkOccNVjFImGt6Yf-7">
          <mxGeometry x="10" y="50" width="20" height="20" as="geometry" />
        </mxCell>
        <mxCell id="5MRvKkOccNVjFImGt6Yf-11" value="" style="rounded=1;whiteSpace=wrap;html=1;fillStyle=solid;fillColor=#4C0099;container=0;opacity=25;" vertex="1" parent="5MRvKkOccNVjFImGt6Yf-7">
          <mxGeometry x="10" y="90" width="20" height="20" as="geometry" />
        </mxCell>
        <mxCell id="5MRvKkOccNVjFImGt6Yf-12" value="" style="rounded=1;whiteSpace=wrap;html=1;fillStyle=solid;fillColor=#4C0099;container=0;opacity=25;" vertex="1" parent="5MRvKkOccNVjFImGt6Yf-7">
          <mxGeometry x="50" y="130" width="20" height="20" as="geometry" />
        </mxCell>
        <mxCell id="5MRvKkOccNVjFImGt6Yf-1" value="" style="group;opacity=25;" vertex="1" connectable="0" parent="5MRvKkOccNVjFImGt6Yf-7">
          <mxGeometry width="160" height="160" as="geometry" />
        </mxCell>
        <mxCell id="5MRvKkOccNVjFImGt6Yf-2" value="" style="rounded=0;whiteSpace=wrap;html=1;fillColor=#4C0099;fontColor=#ffffff;strokeColor=#A50040;fillStyle=hatch;gradientColor=none;container=0;opacity=25;" vertex="1" parent="5MRvKkOccNVjFImGt6Yf-1">
          <mxGeometry width="160" height="160" as="geometry" />
        </mxCell>
        <mxCell id="5MRvKkOccNVjFImGt6Yf-3" value="" style="rounded=1;whiteSpace=wrap;html=1;fillStyle=solid;fillColor=#4C0099;container=0;opacity=25;" vertex="1" parent="5MRvKkOccNVjFImGt6Yf-1">
          <mxGeometry x="50" y="90" width="20" height="20" as="geometry" />
        </mxCell>
        <mxCell id="5MRvKkOccNVjFImGt6Yf-4" value="" style="rounded=1;whiteSpace=wrap;html=1;fillStyle=solid;fillColor=#4C0099;container=0;opacity=25;" vertex="1" parent="5MRvKkOccNVjFImGt6Yf-1">
          <mxGeometry x="90" y="90" width="20" height="20" as="geometry" />
        </mxCell>
        <mxCell id="5MRvKkOccNVjFImGt6Yf-5" value="" style="rounded=1;whiteSpace=wrap;html=1;fillStyle=solid;fillColor=#4C0099;container=0;opacity=25;" vertex="1" parent="5MRvKkOccNVjFImGt6Yf-1">
          <mxGeometry x="10" y="130" width="20" height="20" as="geometry" />
        </mxCell>
        <mxCell id="5MRvKkOccNVjFImGt6Yf-6" value="" style="rounded=1;whiteSpace=wrap;html=1;fillStyle=solid;fillColor=#4C0099;container=0;opacity=25;" vertex="1" parent="5MRvKkOccNVjFImGt6Yf-1">
          <mxGeometry x="50" y="130" width="20" height="20" as="geometry" />
        </mxCell>
        <mxCell id="5MRvKkOccNVjFImGt6Yf-19" value="" style="group;opacity=25;" vertex="1" connectable="0" parent="5MRvKkOccNVjFImGt6Yf-1">
          <mxGeometry width="160" height="160" as="geometry" />
        </mxCell>
        <mxCell id="5MRvKkOccNVjFImGt6Yf-20" value="" style="rounded=0;whiteSpace=wrap;html=1;fillColor=#FF8000;fontColor=#ffffff;strokeColor=#A50040;fillStyle=hatch;gradientColor=none;container=0;opacity=25;" vertex="1" parent="5MRvKkOccNVjFImGt6Yf-19">
          <mxGeometry width="160" height="160" as="geometry" />
        </mxCell>
        <mxCell id="5MRvKkOccNVjFImGt6Yf-21" value="" style="rounded=1;whiteSpace=wrap;html=1;fillStyle=solid;fillColor=#FF8000;container=0;opacity=25;" vertex="1" parent="5MRvKkOccNVjFImGt6Yf-19">
          <mxGeometry x="50" y="90" width="20" height="20" as="geometry" />
        </mxCell>
        <mxCell id="5MRvKkOccNVjFImGt6Yf-22" value="" style="rounded=1;whiteSpace=wrap;html=1;fillStyle=solid;fillColor=#FF8000;container=0;opacity=25;" vertex="1" parent="5MRvKkOccNVjFImGt6Yf-19">
          <mxGeometry x="50" y="50" width="20" height="20" as="geometry" />
        </mxCell>
        <mxCell id="5MRvKkOccNVjFImGt6Yf-23" value="" style="rounded=1;whiteSpace=wrap;html=1;fillStyle=solid;fillColor=#FF8000;container=0;opacity=25;" vertex="1" parent="5MRvKkOccNVjFImGt6Yf-19">
          <mxGeometry x="10" y="130" width="20" height="20" as="geometry" />
        </mxCell>
        <mxCell id="5MRvKkOccNVjFImGt6Yf-24" value="" style="rounded=1;whiteSpace=wrap;html=1;fillStyle=solid;fillColor=#FF8000;container=0;opacity=25;" vertex="1" parent="5MRvKkOccNVjFImGt6Yf-19">
          <mxGeometry x="10" y="90" width="20" height="20" as="geometry" />
        </mxCell>
        <mxCell id="5MRvKkOccNVjFImGt6Yf-13" value="" style="group;opacity=25;" vertex="1" connectable="0" parent="5MRvKkOccNVjFImGt6Yf-19">
          <mxGeometry width="160" height="160" as="geometry" />
        </mxCell>
        <mxCell id="5MRvKkOccNVjFImGt6Yf-14" value="" style="rounded=0;whiteSpace=wrap;html=1;fillColor=#FF8000;fontColor=#ffffff;strokeColor=#A50040;fillStyle=hatch;gradientColor=none;container=0;opacity=25;" vertex="1" parent="5MRvKkOccNVjFImGt6Yf-13">
          <mxGeometry width="160" height="160" as="geometry" />
        </mxCell>
        <mxCell id="5MRvKkOccNVjFImGt6Yf-15" value="" style="rounded=1;whiteSpace=wrap;html=1;fillStyle=solid;fillColor=#FF8000;container=0;opacity=25;" vertex="1" parent="5MRvKkOccNVjFImGt6Yf-13">
          <mxGeometry x="50" y="90" width="20" height="20" as="geometry" />
        </mxCell>
        <mxCell id="5MRvKkOccNVjFImGt6Yf-16" value="" style="rounded=1;whiteSpace=wrap;html=1;fillStyle=solid;fillColor=#FF8000;container=0;opacity=25;" vertex="1" parent="5MRvKkOccNVjFImGt6Yf-13">
          <mxGeometry x="10" y="90" width="20" height="20" as="geometry" />
        </mxCell>
        <mxCell id="5MRvKkOccNVjFImGt6Yf-17" value="" style="rounded=1;whiteSpace=wrap;html=1;fillStyle=solid;fillColor=#FF8000;container=0;opacity=25;" vertex="1" parent="5MRvKkOccNVjFImGt6Yf-13">
          <mxGeometry x="90" y="130" width="20" height="20" as="geometry" />
        </mxCell>
        <mxCell id="5MRvKkOccNVjFImGt6Yf-18" value="" style="rounded=1;whiteSpace=wrap;html=1;fillStyle=solid;fillColor=#FF8000;container=0;opacity=25;" vertex="1" parent="5MRvKkOccNVjFImGt6Yf-13">
          <mxGeometry x="50" y="130" width="20" height="20" as="geometry" />
        </mxCell>
        <mxCell id="9aJ4kUpK9t7uexoVAxs4-793" value="" style="group;opacity=75;" parent="1" vertex="1" connectable="0">
          <mxGeometry x="240" y="720" width="160" height="160" as="geometry" />
        </mxCell>
        <mxCell id="9aJ4kUpK9t7uexoVAxs4-794" value="" style="rounded=0;whiteSpace=wrap;html=1;fillColor=#d80073;fontColor=#ffffff;strokeColor=#A50040;fillStyle=hatch;opacity=75;" parent="9aJ4kUpK9t7uexoVAxs4-793" vertex="1">
          <mxGeometry width="160" height="160" as="geometry" />
        </mxCell>
        <mxCell id="9aJ4kUpK9t7uexoVAxs4-795" value="" style="rounded=1;whiteSpace=wrap;html=1;fillStyle=solid;fillColor=#D80073;opacity=75;" parent="9aJ4kUpK9t7uexoVAxs4-793" vertex="1">
          <mxGeometry x="10" y="10" width="20" height="20" as="geometry" />
        </mxCell>
        <mxCell id="9aJ4kUpK9t7uexoVAxs4-796" value="" style="rounded=1;whiteSpace=wrap;html=1;fillStyle=solid;fillColor=#D80073;opacity=75;" parent="9aJ4kUpK9t7uexoVAxs4-793" vertex="1">
          <mxGeometry x="10" y="50" width="20" height="20" as="geometry" />
        </mxCell>
        <mxCell id="9aJ4kUpK9t7uexoVAxs4-797" value="" style="rounded=1;whiteSpace=wrap;html=1;fillStyle=solid;fillColor=#D80073;opacity=75;" parent="9aJ4kUpK9t7uexoVAxs4-793" vertex="1">
          <mxGeometry x="10" y="90" width="20" height="20" as="geometry" />
        </mxCell>
        <mxCell id="9aJ4kUpK9t7uexoVAxs4-798" value="" style="rounded=1;whiteSpace=wrap;html=1;fillStyle=solid;fillColor=#D80073;opacity=75;" parent="9aJ4kUpK9t7uexoVAxs4-793" vertex="1">
          <mxGeometry x="10" y="130" width="20" height="20" as="geometry" />
        </mxCell>
        <mxCell id="9aJ4kUpK9t7uexoVAxs4-805" value="" style="group;rotation=0;" parent="1" vertex="1" connectable="0">
          <mxGeometry x="-120" y="-40" width="160" height="160" as="geometry" />
        </mxCell>
        <mxCell id="9aJ4kUpK9t7uexoVAxs4-806" value="" style="rounded=0;whiteSpace=wrap;html=1;fillColor=#d80073;fontColor=#ffffff;strokeColor=#A50040;fillStyle=hatch;rotation=0;" parent="9aJ4kUpK9t7uexoVAxs4-805" vertex="1">
          <mxGeometry width="160" height="160" as="geometry" />
        </mxCell>
        <mxCell id="9aJ4kUpK9t7uexoVAxs4-807" value="" style="rounded=1;whiteSpace=wrap;html=1;fillStyle=solid;fillColor=#D80073;rotation=0;" parent="9aJ4kUpK9t7uexoVAxs4-805" vertex="1">
          <mxGeometry x="130" y="130" width="20" height="20" as="geometry" />
        </mxCell>
        <mxCell id="9aJ4kUpK9t7uexoVAxs4-808" value="" style="rounded=1;whiteSpace=wrap;html=1;fillStyle=solid;fillColor=#D80073;rotation=0;" parent="9aJ4kUpK9t7uexoVAxs4-805" vertex="1">
          <mxGeometry x="50" y="130" width="20" height="20" as="geometry" />
        </mxCell>
        <mxCell id="9aJ4kUpK9t7uexoVAxs4-809" value="" style="rounded=1;whiteSpace=wrap;html=1;fillStyle=solid;fillColor=#D80073;rotation=0;" parent="9aJ4kUpK9t7uexoVAxs4-805" vertex="1">
          <mxGeometry x="90" y="130" width="20" height="20" as="geometry" />
        </mxCell>
        <mxCell id="9aJ4kUpK9t7uexoVAxs4-810" value="" style="rounded=1;whiteSpace=wrap;html=1;fillStyle=solid;fillColor=#D80073;rotation=0;" parent="9aJ4kUpK9t7uexoVAxs4-805" vertex="1">
          <mxGeometry x="10" y="130" width="20" height="20" as="geometry" />
        </mxCell>
        <mxCell id="9aJ4kUpK9t7uexoVAxs4-811" value="" style="group" parent="1" vertex="1" connectable="0">
          <mxGeometry x="200" width="160" height="160" as="geometry" />
        </mxCell>
        <mxCell id="9aJ4kUpK9t7uexoVAxs4-812" value="" style="rounded=0;whiteSpace=wrap;html=1;fillColor=#00FFFF;fontColor=#ffffff;strokeColor=#A50040;fillStyle=hatch;" parent="9aJ4kUpK9t7uexoVAxs4-811" vertex="1">
          <mxGeometry width="160" height="160" as="geometry" />
        </mxCell>
        <mxCell id="9aJ4kUpK9t7uexoVAxs4-813" value="" style="rounded=1;whiteSpace=wrap;html=1;fillStyle=solid;fillColor=#00FFFF;" parent="9aJ4kUpK9t7uexoVAxs4-811" vertex="1">
          <mxGeometry x="50" y="90" width="20" height="20" as="geometry" />
        </mxCell>
        <mxCell id="9aJ4kUpK9t7uexoVAxs4-814" value="" style="rounded=1;whiteSpace=wrap;html=1;fillStyle=solid;fillColor=#00FFFF;" parent="9aJ4kUpK9t7uexoVAxs4-811" vertex="1">
          <mxGeometry x="50" y="130" width="20" height="20" as="geometry" />
        </mxCell>
        <mxCell id="9aJ4kUpK9t7uexoVAxs4-815" value="" style="rounded=1;whiteSpace=wrap;html=1;fillStyle=solid;fillColor=#00FFFF;" parent="9aJ4kUpK9t7uexoVAxs4-811" vertex="1">
          <mxGeometry x="10" y="90" width="20" height="20" as="geometry" />
        </mxCell>
        <mxCell id="9aJ4kUpK9t7uexoVAxs4-816" value="" style="rounded=1;whiteSpace=wrap;html=1;fillStyle=solid;fillColor=#00FFFF;" parent="9aJ4kUpK9t7uexoVAxs4-811" vertex="1">
          <mxGeometry x="10" y="130" width="20" height="20" as="geometry" />
        </mxCell>
        <mxCell id="9aJ4kUpK9t7uexoVAxs4-817" value="" style="group;opacity=75;" parent="1" vertex="1" connectable="0">
          <mxGeometry x="-120" y="720" width="160" height="160" as="geometry" />
        </mxCell>
        <mxCell id="9aJ4kUpK9t7uexoVAxs4-818" value="" style="rounded=0;whiteSpace=wrap;html=1;fillColor=#FFFF00;fontColor=#ffffff;strokeColor=#A50040;fillStyle=hatch;opacity=75;" parent="9aJ4kUpK9t7uexoVAxs4-817" vertex="1">
          <mxGeometry width="160" height="160" as="geometry" />
        </mxCell>
        <mxCell id="9aJ4kUpK9t7uexoVAxs4-819" value="" style="rounded=1;whiteSpace=wrap;html=1;fillStyle=solid;fillColor=#FFFF00;opacity=75;" parent="9aJ4kUpK9t7uexoVAxs4-817" vertex="1">
          <mxGeometry x="10" y="90" width="20" height="20" as="geometry" />
        </mxCell>
        <mxCell id="9aJ4kUpK9t7uexoVAxs4-820" value="" style="rounded=1;whiteSpace=wrap;html=1;fillStyle=solid;fillColor=#FFFF00;opacity=75;" parent="9aJ4kUpK9t7uexoVAxs4-817" vertex="1">
          <mxGeometry x="90" y="130" width="20" height="20" as="geometry" />
        </mxCell>
        <mxCell id="9aJ4kUpK9t7uexoVAxs4-821" value="" style="rounded=1;whiteSpace=wrap;html=1;fillStyle=solid;fillColor=#FFFF00;opacity=75;" parent="9aJ4kUpK9t7uexoVAxs4-817" vertex="1">
          <mxGeometry x="10" y="130" width="20" height="20" as="geometry" />
        </mxCell>
        <mxCell id="9aJ4kUpK9t7uexoVAxs4-822" value="" style="rounded=1;whiteSpace=wrap;html=1;fillStyle=solid;fillColor=#FFFF00;opacity=75;" parent="9aJ4kUpK9t7uexoVAxs4-817" vertex="1">
          <mxGeometry x="50" y="130" width="20" height="20" as="geometry" />
        </mxCell>
        <mxCell id="9aJ4kUpK9t7uexoVAxs4-829" value="" style="group;opacity=75;" parent="1" vertex="1" connectable="0">
          <mxGeometry x="40" y="720" width="160" height="160" as="geometry" />
        </mxCell>
        <mxCell id="9aJ4kUpK9t7uexoVAxs4-830" value="" style="rounded=0;whiteSpace=wrap;html=1;fillColor=#00FFFF;fontColor=#ffffff;strokeColor=#A50040;fillStyle=hatch;opacity=75;" parent="9aJ4kUpK9t7uexoVAxs4-829" vertex="1">
          <mxGeometry width="160" height="160" as="geometry" />
        </mxCell>
        <mxCell id="9aJ4kUpK9t7uexoVAxs4-831" value="" style="rounded=1;whiteSpace=wrap;html=1;fillStyle=solid;fillColor=#00FFFF;opacity=75;" parent="9aJ4kUpK9t7uexoVAxs4-829" vertex="1">
          <mxGeometry x="50" y="90" width="20" height="20" as="geometry" />
        </mxCell>
        <mxCell id="9aJ4kUpK9t7uexoVAxs4-832" value="" style="rounded=1;whiteSpace=wrap;html=1;fillStyle=solid;fillColor=#00FFFF;opacity=75;" parent="9aJ4kUpK9t7uexoVAxs4-829" vertex="1">
          <mxGeometry x="50" y="130" width="20" height="20" as="geometry" />
        </mxCell>
        <mxCell id="9aJ4kUpK9t7uexoVAxs4-833" value="" style="rounded=1;whiteSpace=wrap;html=1;fillStyle=solid;fillColor=#00FFFF;opacity=75;" parent="9aJ4kUpK9t7uexoVAxs4-829" vertex="1">
          <mxGeometry x="10" y="90" width="20" height="20" as="geometry" />
        </mxCell>
        <mxCell id="9aJ4kUpK9t7uexoVAxs4-834" value="" style="rounded=1;whiteSpace=wrap;html=1;fillStyle=solid;fillColor=#00FFFF;opacity=75;" parent="9aJ4kUpK9t7uexoVAxs4-829" vertex="1">
          <mxGeometry x="10" y="130" width="20" height="20" as="geometry" />
        </mxCell>
        <mxCell id="9aJ4kUpK9t7uexoVAxs4-835" value="" style="group;opacity=75;" parent="1" vertex="1" connectable="0">
          <mxGeometry x="120" y="720" width="160" height="160" as="geometry" />
        </mxCell>
        <mxCell id="9aJ4kUpK9t7uexoVAxs4-836" value="" style="rounded=0;whiteSpace=wrap;html=1;fillColor=#00CC00;fontColor=#ffffff;strokeColor=#A50040;fillStyle=hatch;opacity=75;" parent="9aJ4kUpK9t7uexoVAxs4-835" vertex="1">
          <mxGeometry width="160" height="160" as="geometry" />
        </mxCell>
        <mxCell id="9aJ4kUpK9t7uexoVAxs4-837" value="" style="rounded=1;whiteSpace=wrap;html=1;fillStyle=solid;fillColor=#00CC00;opacity=75;" parent="9aJ4kUpK9t7uexoVAxs4-835" vertex="1">
          <mxGeometry x="90" y="90" width="20" height="20" as="geometry" />
        </mxCell>
        <mxCell id="9aJ4kUpK9t7uexoVAxs4-838" value="" style="rounded=1;whiteSpace=wrap;html=1;fillStyle=solid;fillColor=#00CC00;opacity=75;" parent="9aJ4kUpK9t7uexoVAxs4-835" vertex="1">
          <mxGeometry x="90" y="130" width="20" height="20" as="geometry" />
        </mxCell>
        <mxCell id="9aJ4kUpK9t7uexoVAxs4-839" value="" style="rounded=1;whiteSpace=wrap;html=1;fillStyle=solid;fillColor=#00CC00;opacity=75;" parent="9aJ4kUpK9t7uexoVAxs4-835" vertex="1">
          <mxGeometry x="10" y="130" width="20" height="20" as="geometry" />
        </mxCell>
        <mxCell id="9aJ4kUpK9t7uexoVAxs4-840" value="" style="rounded=1;whiteSpace=wrap;html=1;fillStyle=solid;fillColor=#00CC00;opacity=75;" parent="9aJ4kUpK9t7uexoVAxs4-835" vertex="1">
          <mxGeometry x="50" y="130" width="20" height="20" as="geometry" />
        </mxCell>
        <mxCell id="9aJ4kUpK9t7uexoVAxs4-866" value="" style="group" parent="1" vertex="1" connectable="0">
          <mxGeometry x="440" y="320" width="160" height="160" as="geometry" />
        </mxCell>
        <mxCell id="9aJ4kUpK9t7uexoVAxs4-842" value="" style="rounded=0;whiteSpace=wrap;html=1;fillColor=#4C0099;fontColor=#ffffff;strokeColor=#A50040;fillStyle=hatch;gradientColor=none;container=0;" parent="9aJ4kUpK9t7uexoVAxs4-866" vertex="1">
          <mxGeometry width="160" height="160" as="geometry" />
        </mxCell>
        <mxCell id="9aJ4kUpK9t7uexoVAxs4-843" value="" style="rounded=1;whiteSpace=wrap;html=1;fillStyle=solid;fillColor=#4C0099;container=0;" parent="9aJ4kUpK9t7uexoVAxs4-866" vertex="1">
          <mxGeometry x="50" y="90" width="20" height="20" as="geometry" />
        </mxCell>
        <mxCell id="9aJ4kUpK9t7uexoVAxs4-844" value="" style="rounded=1;whiteSpace=wrap;html=1;fillStyle=solid;fillColor=#4C0099;container=0;" parent="9aJ4kUpK9t7uexoVAxs4-866" vertex="1">
          <mxGeometry x="90" y="90" width="20" height="20" as="geometry" />
        </mxCell>
        <mxCell id="9aJ4kUpK9t7uexoVAxs4-845" value="" style="rounded=1;whiteSpace=wrap;html=1;fillStyle=solid;fillColor=#4C0099;container=0;" parent="9aJ4kUpK9t7uexoVAxs4-866" vertex="1">
          <mxGeometry x="10" y="130" width="20" height="20" as="geometry" />
        </mxCell>
        <mxCell id="9aJ4kUpK9t7uexoVAxs4-846" value="" style="rounded=1;whiteSpace=wrap;html=1;fillStyle=solid;fillColor=#4C0099;container=0;" parent="9aJ4kUpK9t7uexoVAxs4-866" vertex="1">
          <mxGeometry x="50" y="130" width="20" height="20" as="geometry" />
        </mxCell>
        <mxCell id="9aJ4kUpK9t7uexoVAxs4-867" value="" style="group" parent="1" vertex="1" connectable="0">
          <mxGeometry x="440" y="120" width="160" height="160" as="geometry" />
        </mxCell>
        <mxCell id="9aJ4kUpK9t7uexoVAxs4-848" value="" style="rounded=0;whiteSpace=wrap;html=1;fillColor=#4C0099;fontColor=#ffffff;strokeColor=#A50040;fillStyle=hatch;gradientColor=none;container=0;" parent="9aJ4kUpK9t7uexoVAxs4-867" vertex="1">
          <mxGeometry width="160" height="160" as="geometry" />
        </mxCell>
        <mxCell id="9aJ4kUpK9t7uexoVAxs4-849" value="" style="rounded=1;whiteSpace=wrap;html=1;fillStyle=solid;fillColor=#4C0099;container=0;" parent="9aJ4kUpK9t7uexoVAxs4-867" vertex="1">
          <mxGeometry x="50" y="90" width="20" height="20" as="geometry" />
        </mxCell>
        <mxCell id="9aJ4kUpK9t7uexoVAxs4-850" value="" style="rounded=1;whiteSpace=wrap;html=1;fillStyle=solid;fillColor=#4C0099;container=0;" parent="9aJ4kUpK9t7uexoVAxs4-867" vertex="1">
          <mxGeometry x="10" y="50" width="20" height="20" as="geometry" />
        </mxCell>
        <mxCell id="9aJ4kUpK9t7uexoVAxs4-851" value="" style="rounded=1;whiteSpace=wrap;html=1;fillStyle=solid;fillColor=#4C0099;container=0;" parent="9aJ4kUpK9t7uexoVAxs4-867" vertex="1">
          <mxGeometry x="10" y="90" width="20" height="20" as="geometry" />
        </mxCell>
        <mxCell id="9aJ4kUpK9t7uexoVAxs4-852" value="" style="rounded=1;whiteSpace=wrap;html=1;fillStyle=solid;fillColor=#4C0099;container=0;" parent="9aJ4kUpK9t7uexoVAxs4-867" vertex="1">
          <mxGeometry x="50" y="130" width="20" height="20" as="geometry" />
        </mxCell>
        <mxCell id="9aJ4kUpK9t7uexoVAxs4-868" value="" style="group" parent="1" vertex="1" connectable="0">
          <mxGeometry x="440" y="720" width="160" height="160" as="geometry" />
        </mxCell>
        <mxCell id="9aJ4kUpK9t7uexoVAxs4-853" value="" style="rounded=0;whiteSpace=wrap;html=1;fillColor=#FF8000;fontColor=#ffffff;strokeColor=#A50040;fillStyle=hatch;gradientColor=none;container=0;" parent="9aJ4kUpK9t7uexoVAxs4-868" vertex="1">
          <mxGeometry width="160" height="160" as="geometry" />
        </mxCell>
        <mxCell id="9aJ4kUpK9t7uexoVAxs4-854" value="" style="rounded=1;whiteSpace=wrap;html=1;fillStyle=solid;fillColor=#FF8000;container=0;" parent="9aJ4kUpK9t7uexoVAxs4-868" vertex="1">
          <mxGeometry x="50" y="90" width="20" height="20" as="geometry" />
        </mxCell>
        <mxCell id="9aJ4kUpK9t7uexoVAxs4-855" value="" style="rounded=1;whiteSpace=wrap;html=1;fillStyle=solid;fillColor=#FF8000;container=0;" parent="9aJ4kUpK9t7uexoVAxs4-868" vertex="1">
          <mxGeometry x="10" y="90" width="20" height="20" as="geometry" />
        </mxCell>
        <mxCell id="9aJ4kUpK9t7uexoVAxs4-856" value="" style="rounded=1;whiteSpace=wrap;html=1;fillStyle=solid;fillColor=#FF8000;container=0;" parent="9aJ4kUpK9t7uexoVAxs4-868" vertex="1">
          <mxGeometry x="90" y="130" width="20" height="20" as="geometry" />
        </mxCell>
        <mxCell id="9aJ4kUpK9t7uexoVAxs4-857" value="" style="rounded=1;whiteSpace=wrap;html=1;fillStyle=solid;fillColor=#FF8000;container=0;" parent="9aJ4kUpK9t7uexoVAxs4-868" vertex="1">
          <mxGeometry x="50" y="130" width="20" height="20" as="geometry" />
        </mxCell>
        <mxCell id="9aJ4kUpK9t7uexoVAxs4-869" value="" style="group" parent="1" vertex="1" connectable="0">
          <mxGeometry x="440" y="520" width="160" height="160" as="geometry" />
        </mxCell>
        <mxCell id="9aJ4kUpK9t7uexoVAxs4-858" value="" style="rounded=0;whiteSpace=wrap;html=1;fillColor=#FF8000;fontColor=#ffffff;strokeColor=#A50040;fillStyle=hatch;gradientColor=none;container=0;" parent="9aJ4kUpK9t7uexoVAxs4-869" vertex="1">
          <mxGeometry width="160" height="160" as="geometry" />
        </mxCell>
        <mxCell id="9aJ4kUpK9t7uexoVAxs4-859" value="" style="rounded=1;whiteSpace=wrap;html=1;fillStyle=solid;fillColor=#FF8000;container=0;" parent="9aJ4kUpK9t7uexoVAxs4-869" vertex="1">
          <mxGeometry x="50" y="90" width="20" height="20" as="geometry" />
        </mxCell>
        <mxCell id="9aJ4kUpK9t7uexoVAxs4-860" value="" style="rounded=1;whiteSpace=wrap;html=1;fillStyle=solid;fillColor=#FF8000;container=0;" parent="9aJ4kUpK9t7uexoVAxs4-869" vertex="1">
          <mxGeometry x="50" y="50" width="20" height="20" as="geometry" />
        </mxCell>
        <mxCell id="9aJ4kUpK9t7uexoVAxs4-861" value="" style="rounded=1;whiteSpace=wrap;html=1;fillStyle=solid;fillColor=#FF8000;container=0;" parent="9aJ4kUpK9t7uexoVAxs4-869" vertex="1">
          <mxGeometry x="10" y="130" width="20" height="20" as="geometry" />
        </mxCell>
        <mxCell id="9aJ4kUpK9t7uexoVAxs4-862" value="" style="rounded=1;whiteSpace=wrap;html=1;fillStyle=solid;fillColor=#FF8000;container=0;" parent="9aJ4kUpK9t7uexoVAxs4-869" vertex="1">
          <mxGeometry x="10" y="90" width="20" height="20" as="geometry" />
        </mxCell>
        <mxCell id="9aJ4kUpK9t7uexoVAxs4-883" value="" style="group;opacity=75;" parent="1" vertex="1" connectable="0">
          <mxGeometry x="80" y="680" width="160" height="160" as="geometry" />
        </mxCell>
        <mxCell id="9aJ4kUpK9t7uexoVAxs4-884" value="" style="rounded=0;whiteSpace=wrap;html=1;fillColor=#FF8000;fontColor=#ffffff;strokeColor=#A50040;fillStyle=hatch;gradientColor=none;container=0;opacity=75;" parent="9aJ4kUpK9t7uexoVAxs4-883" vertex="1">
          <mxGeometry width="160" height="160" as="geometry" />
        </mxCell>
        <mxCell id="9aJ4kUpK9t7uexoVAxs4-885" value="" style="rounded=1;whiteSpace=wrap;html=1;fillStyle=solid;fillColor=#FF8000;container=0;opacity=75;" parent="9aJ4kUpK9t7uexoVAxs4-883" vertex="1">
          <mxGeometry x="50" y="90" width="20" height="20" as="geometry" />
        </mxCell>
        <mxCell id="9aJ4kUpK9t7uexoVAxs4-886" value="" style="rounded=1;whiteSpace=wrap;html=1;fillStyle=solid;fillColor=#FF8000;container=0;opacity=75;" parent="9aJ4kUpK9t7uexoVAxs4-883" vertex="1">
          <mxGeometry x="10" y="90" width="20" height="20" as="geometry" />
        </mxCell>
        <mxCell id="9aJ4kUpK9t7uexoVAxs4-887" value="" style="rounded=1;whiteSpace=wrap;html=1;fillStyle=solid;fillColor=#FF8000;container=0;opacity=75;" parent="9aJ4kUpK9t7uexoVAxs4-883" vertex="1">
          <mxGeometry x="90" y="130" width="20" height="20" as="geometry" />
        </mxCell>
        <mxCell id="9aJ4kUpK9t7uexoVAxs4-888" value="" style="rounded=1;whiteSpace=wrap;html=1;fillStyle=solid;fillColor=#FF8000;container=0;opacity=75;" parent="9aJ4kUpK9t7uexoVAxs4-883" vertex="1">
          <mxGeometry x="50" y="130" width="20" height="20" as="geometry" />
        </mxCell>
        <mxCell id="9aJ4kUpK9t7uexoVAxs4-889" value="" style="group;opacity=75;" parent="1" vertex="1" connectable="0">
          <mxGeometry x="-40" y="720" width="160" height="160" as="geometry" />
        </mxCell>
        <mxCell id="9aJ4kUpK9t7uexoVAxs4-890" value="" style="rounded=0;whiteSpace=wrap;html=1;fillColor=#4C0099;fontColor=#ffffff;strokeColor=#A50040;fillStyle=hatch;gradientColor=none;container=0;opacity=75;" parent="9aJ4kUpK9t7uexoVAxs4-889" vertex="1">
          <mxGeometry width="160" height="160" as="geometry" />
        </mxCell>
        <mxCell id="9aJ4kUpK9t7uexoVAxs4-891" value="" style="rounded=1;whiteSpace=wrap;html=1;fillStyle=solid;fillColor=#4C0099;container=0;opacity=75;" parent="9aJ4kUpK9t7uexoVAxs4-889" vertex="1">
          <mxGeometry x="50" y="90" width="20" height="20" as="geometry" />
        </mxCell>
        <mxCell id="9aJ4kUpK9t7uexoVAxs4-892" value="" style="rounded=1;whiteSpace=wrap;html=1;fillStyle=solid;fillColor=#4C0099;container=0;opacity=75;" parent="9aJ4kUpK9t7uexoVAxs4-889" vertex="1">
          <mxGeometry x="10" y="50" width="20" height="20" as="geometry" />
        </mxCell>
        <mxCell id="9aJ4kUpK9t7uexoVAxs4-893" value="" style="rounded=1;whiteSpace=wrap;html=1;fillStyle=solid;fillColor=#4C0099;container=0;opacity=75;" parent="9aJ4kUpK9t7uexoVAxs4-889" vertex="1">
          <mxGeometry x="10" y="90" width="20" height="20" as="geometry" />
        </mxCell>
        <mxCell id="9aJ4kUpK9t7uexoVAxs4-894" value="" style="rounded=1;whiteSpace=wrap;html=1;fillStyle=solid;fillColor=#4C0099;container=0;opacity=75;" parent="9aJ4kUpK9t7uexoVAxs4-889" vertex="1">
          <mxGeometry x="50" y="130" width="20" height="20" as="geometry" />
        </mxCell>
        <mxCell id="9aJ4kUpK9t7uexoVAxs4-898" value="Z" style="text;html=1;align=center;verticalAlign=middle;resizable=0;points=[];autosize=1;strokeColor=none;fillColor=none;fontSize=24;" parent="1" vertex="1">
          <mxGeometry x="500" y="80" width="40" height="40" as="geometry" />
        </mxCell>
        <mxCell id="9aJ4kUpK9t7uexoVAxs4-899" value="S" style="text;html=1;align=center;verticalAlign=middle;resizable=0;points=[];autosize=1;strokeColor=none;fillColor=none;fontSize=24;" parent="1" vertex="1">
          <mxGeometry x="500" y="485" width="40" height="40" as="geometry" />
        </mxCell>
        <mxCell id="9aJ4kUpK9t7uexoVAxs4-900" value="J" style="text;html=1;align=center;verticalAlign=middle;resizable=0;points=[];autosize=1;strokeColor=none;fillColor=none;fontSize=24;" parent="1" vertex="1">
          <mxGeometry x="700" y="80" width="40" height="40" as="geometry" />
        </mxCell>
        <mxCell id="9aJ4kUpK9t7uexoVAxs4-901" value="L" style="text;html=1;align=center;verticalAlign=middle;resizable=0;points=[];autosize=1;strokeColor=none;fillColor=none;fontSize=24;" parent="1" vertex="1">
          <mxGeometry x="900" y="80" width="40" height="40" as="geometry" />
        </mxCell>
        <mxCell id="9aJ4kUpK9t7uexoVAxs4-902" value="T" style="text;html=1;align=center;verticalAlign=middle;resizable=0;points=[];autosize=1;strokeColor=none;fillColor=none;fontSize=24;" parent="1" vertex="1">
          <mxGeometry x="1100" y="80" width="40" height="40" as="geometry" />
        </mxCell>
        <mxCell id="9aJ4kUpK9t7uexoVAxs4-903" value="O" style="text;html=1;align=center;verticalAlign=middle;resizable=0;points=[];autosize=1;strokeColor=none;fillColor=none;fontSize=24;" parent="1" vertex="1">
          <mxGeometry x="1300" y="80" width="40" height="40" as="geometry" />
        </mxCell>
        <mxCell id="9aJ4kUpK9t7uexoVAxs4-904" value="I" style="text;html=1;align=center;verticalAlign=middle;resizable=0;points=[];autosize=1;strokeColor=none;fillColor=none;fontSize=24;" parent="1" vertex="1">
          <mxGeometry x="1305" y="285" width="30" height="40" as="geometry" />
        </mxCell>
        <mxCell id="9aJ4kUpK9t7uexoVAxs4-905" value="B" style="text;html=1;align=center;verticalAlign=middle;resizable=0;points=[];autosize=1;strokeColor=none;fillColor=none;fontSize=25;" parent="1" vertex="1">
          <mxGeometry x="1300" y="685" width="40" height="40" as="geometry" />
        </mxCell>
        <mxCell id="9aJ4kUpK9t7uexoVAxs4-906" value="0" style="text;html=1;align=center;verticalAlign=middle;resizable=0;points=[];autosize=1;strokeColor=none;fillColor=none;fontSize=24;fontStyle=1" parent="1" vertex="1">
          <mxGeometry x="1200" y="182.5" width="40" height="40" as="geometry" />
        </mxCell>
        <mxCell id="9aJ4kUpK9t7uexoVAxs4-907" value="1" style="text;html=1;align=center;verticalAlign=middle;resizable=0;points=[];autosize=1;strokeColor=none;fillColor=none;fontSize=24;fontStyle=1" parent="1" vertex="1">
          <mxGeometry x="1200" y="382.5" width="40" height="40" as="geometry" />
        </mxCell>
        <mxCell id="9aJ4kUpK9t7uexoVAxs4-908" value="2" style="text;html=1;align=center;verticalAlign=middle;resizable=0;points=[];autosize=1;strokeColor=none;fillColor=none;fontSize=24;fontStyle=1" parent="1" vertex="1">
          <mxGeometry x="1200" y="577.5" width="40" height="40" as="geometry" />
        </mxCell>
        <mxCell id="9aJ4kUpK9t7uexoVAxs4-909" value="3" style="text;html=1;align=center;verticalAlign=middle;resizable=0;points=[];autosize=1;strokeColor=none;fillColor=none;fontSize=24;fontStyle=1" parent="1" vertex="1">
          <mxGeometry x="1200" y="777.5" width="40" height="40" as="geometry" />
        </mxCell>
        <mxCell id="9aJ4kUpK9t7uexoVAxs4-911" value="0" style="text;html=1;align=center;verticalAlign=middle;resizable=0;points=[];autosize=1;strokeColor=none;fillColor=none;fontSize=24;fontStyle=1" parent="1" vertex="1">
          <mxGeometry x="1410" y="380" width="40" height="40" as="geometry" />
        </mxCell>
        <mxCell id="9aJ4kUpK9t7uexoVAxs4-912" value="1" style="text;html=1;align=center;verticalAlign=middle;resizable=0;points=[];autosize=1;strokeColor=none;fillColor=none;fontSize=24;fontStyle=1" parent="1" vertex="1">
          <mxGeometry x="1410" y="580" width="40" height="40" as="geometry" />
        </mxCell>
        <mxCell id="9aJ4kUpK9t7uexoVAxs4-914" value="0" style="text;html=1;align=center;verticalAlign=middle;resizable=0;points=[];autosize=1;strokeColor=none;fillColor=none;fontSize=24;fontStyle=1" parent="1" vertex="1">
          <mxGeometry x="600" y="580" width="40" height="40" as="geometry" />
        </mxCell>
        <mxCell id="9aJ4kUpK9t7uexoVAxs4-915" value="1" style="text;html=1;align=center;verticalAlign=middle;resizable=0;points=[];autosize=1;strokeColor=none;fillColor=none;fontSize=24;fontStyle=1" parent="1" vertex="1">
          <mxGeometry x="600" y="780" width="40" height="40" as="geometry" />
        </mxCell>
        <mxCell id="9aJ4kUpK9t7uexoVAxs4-916" value="0" style="text;html=1;align=center;verticalAlign=middle;resizable=0;points=[];autosize=1;strokeColor=none;fillColor=none;fontSize=24;fontStyle=1" parent="1" vertex="1">
          <mxGeometry x="600" y="180" width="40" height="40" as="geometry" />
        </mxCell>
        <mxCell id="9aJ4kUpK9t7uexoVAxs4-917" value="1" style="text;html=1;align=center;verticalAlign=middle;resizable=0;points=[];autosize=1;strokeColor=none;fillColor=none;fontSize=24;fontStyle=1" parent="1" vertex="1">
          <mxGeometry x="600" y="380" width="40" height="40" as="geometry" />
        </mxCell>
        <mxCell id="9aJ4kUpK9t7uexoVAxs4-918" value="0" style="text;html=1;align=center;verticalAlign=middle;resizable=0;points=[];autosize=1;strokeColor=none;fillColor=none;fontSize=24;fontStyle=1" parent="1" vertex="1">
          <mxGeometry x="1000" y="182.5" width="40" height="40" as="geometry" />
        </mxCell>
        <mxCell id="9aJ4kUpK9t7uexoVAxs4-919" value="1" style="text;html=1;align=center;verticalAlign=middle;resizable=0;points=[];autosize=1;strokeColor=none;fillColor=none;fontSize=24;fontStyle=1" parent="1" vertex="1">
          <mxGeometry x="1000" y="382.5" width="40" height="40" as="geometry" />
        </mxCell>
        <mxCell id="9aJ4kUpK9t7uexoVAxs4-920" value="2" style="text;html=1;align=center;verticalAlign=middle;resizable=0;points=[];autosize=1;strokeColor=none;fillColor=none;fontSize=24;fontStyle=1" parent="1" vertex="1">
          <mxGeometry x="1000" y="577.5" width="40" height="40" as="geometry" />
        </mxCell>
        <mxCell id="9aJ4kUpK9t7uexoVAxs4-921" value="3" style="text;html=1;align=center;verticalAlign=middle;resizable=0;points=[];autosize=1;strokeColor=none;fillColor=none;fontSize=24;fontStyle=1" parent="1" vertex="1">
          <mxGeometry x="1000" y="777.5" width="40" height="40" as="geometry" />
        </mxCell>
        <mxCell id="9aJ4kUpK9t7uexoVAxs4-922" value="0" style="text;html=1;align=center;verticalAlign=middle;resizable=0;points=[];autosize=1;strokeColor=none;fillColor=none;fontSize=24;fontStyle=1" parent="1" vertex="1">
          <mxGeometry x="800" y="182.5" width="40" height="40" as="geometry" />
        </mxCell>
        <mxCell id="9aJ4kUpK9t7uexoVAxs4-923" value="1" style="text;html=1;align=center;verticalAlign=middle;resizable=0;points=[];autosize=1;strokeColor=none;fillColor=none;fontSize=24;fontStyle=1" parent="1" vertex="1">
          <mxGeometry x="800" y="382.5" width="40" height="40" as="geometry" />
        </mxCell>
        <mxCell id="9aJ4kUpK9t7uexoVAxs4-924" value="2" style="text;html=1;align=center;verticalAlign=middle;resizable=0;points=[];autosize=1;strokeColor=none;fillColor=none;fontSize=24;fontStyle=1" parent="1" vertex="1">
          <mxGeometry x="800" y="577.5" width="40" height="40" as="geometry" />
        </mxCell>
        <mxCell id="9aJ4kUpK9t7uexoVAxs4-925" value="3" style="text;html=1;align=center;verticalAlign=middle;resizable=0;points=[];autosize=1;strokeColor=none;fillColor=none;fontSize=24;fontStyle=1" parent="1" vertex="1">
          <mxGeometry x="800" y="777.5" width="40" height="40" as="geometry" />
        </mxCell>
        <mxCell id="9aJ4kUpK9t7uexoVAxs4-927" value="" style="endArrow=box;html=1;rounded=1;fillColor=#e51400;strokeColor=#B20000;strokeWidth=8;curved=0;startArrow=box;startFill=0;endFill=0;endSize=5;startSize=5;" parent="1" edge="1">
          <mxGeometry width="50" height="50" relative="1" as="geometry">
            <mxPoint x="-140" y="868" as="sourcePoint" />
            <mxPoint x="-140" y="94" as="targetPoint" />
          </mxGeometry>
        </mxCell>
        <mxCell id="9aJ4kUpK9t7uexoVAxs4-928" value="" style="endArrow=classic;startArrow=classic;html=1;rounded=0;fillColor=#008a00;strokeColor=#005700;strokeWidth=6;startSize=1;endSize=1;" parent="1" edge="1">
          <mxGeometry width="50" height="50" relative="1" as="geometry">
            <mxPoint x="-130" y="-60" as="sourcePoint" />
            <mxPoint x="410" y="-60" as="targetPoint" />
          </mxGeometry>
        </mxCell>
        <mxCell id="9aJ4kUpK9t7uexoVAxs4-929" value="" style="endArrow=classic;startArrow=classic;html=1;rounded=0;fillColor=#008a00;strokeColor=#005700;strokeWidth=6;startSize=1;endSize=1;" parent="1" edge="1">
          <mxGeometry width="50" height="50" relative="1" as="geometry">
            <mxPoint x="420" y="880" as="sourcePoint" />
            <mxPoint x="420" y="-50" as="targetPoint" />
          </mxGeometry>
        </mxCell>
        <mxCell id="nyIn4_jOOnyOAh3BEMRj-1" value="" style="group" parent="1" vertex="1" connectable="0">
          <mxGeometry x="-120" y="680" width="160" height="160" as="geometry" />
        </mxCell>
        <mxCell id="nyIn4_jOOnyOAh3BEMRj-2" value="" style="rounded=0;whiteSpace=wrap;html=1;fillColor=#001DBC;fontColor=#ffffff;strokeColor=#A50040;fillStyle=hatch;" parent="nyIn4_jOOnyOAh3BEMRj-1" vertex="1">
          <mxGeometry width="160" height="160" as="geometry" />
        </mxCell>
        <mxCell id="nyIn4_jOOnyOAh3BEMRj-3" value="" style="rounded=1;whiteSpace=wrap;html=1;fillStyle=solid;fillColor=#001DBC;" parent="nyIn4_jOOnyOAh3BEMRj-1" vertex="1">
          <mxGeometry x="50" y="50" width="20" height="20" as="geometry" />
        </mxCell>
        <mxCell id="nyIn4_jOOnyOAh3BEMRj-4" value="" style="rounded=1;whiteSpace=wrap;html=1;fillStyle=solid;fillColor=#001DBC;" parent="nyIn4_jOOnyOAh3BEMRj-1" vertex="1">
          <mxGeometry x="10" y="90" width="20" height="20" as="geometry" />
        </mxCell>
        <mxCell id="nyIn4_jOOnyOAh3BEMRj-5" value="" style="rounded=1;whiteSpace=wrap;html=1;fillStyle=solid;fillColor=#001DBC;" parent="nyIn4_jOOnyOAh3BEMRj-1" vertex="1">
          <mxGeometry x="50" y="130" width="20" height="20" as="geometry" />
        </mxCell>
        <mxCell id="nyIn4_jOOnyOAh3BEMRj-6" value="" style="rounded=1;whiteSpace=wrap;html=1;fillStyle=solid;fillColor=#001DBC;" parent="nyIn4_jOOnyOAh3BEMRj-1" vertex="1">
          <mxGeometry x="50" y="90" width="20" height="20" as="geometry" />
        </mxCell>
        <mxCell id="5MRvKkOccNVjFImGt6Yf-26" value="Wasted Data" style="text;html=1;align=center;verticalAlign=middle;resizable=0;points=[];autosize=1;strokeColor=none;fillColor=none;" vertex="1" parent="1">
          <mxGeometry x="-330" y="-70" width="90" height="30" as="geometry" />
        </mxCell>
      </root>
    </mxGraphModel>
  </diagram>
</mxfile>
